<svg id="svg" version="1.1" xmlns="http://www.w3.org/2000/svg" xmlns:xlink="http://www.w3.org/1999/xlink" width="400" height="400" viewBox="0, 0, 400,400"><g id="svgg"><path id="path0" d="M197.599 68.100 C 196.393 70.575,195.269 72.660,195.103 72.733 C 194.936 72.807,194.800 73.086,194.800 73.354 C 194.800 74.063,193.851 75.993,193.500 75.997 C 193.335 75.999,193.200 76.360,193.200 76.800 C 193.200 77.240,193.020 77.600,192.800 77.600 C 192.580 77.600,192.400 77.960,192.400 78.400 C 192.400 78.840,192.220 79.200,192.000 79.200 C 191.780 79.200,191.600 79.416,191.600 79.681 C 191.600 79.945,189.823 83.770,187.652 88.181 C 185.481 92.591,182.765 98.126,181.618 100.479 C 179.176 105.488,179.245 105.418,176.400 105.775 C 175.190 105.926,173.030 106.224,171.600 106.436 C 166.429 107.202,159.142 108.259,155.400 108.784 C 153.860 109.001,151.520 109.351,150.200 109.563 C 148.880 109.775,146.360 110.153,144.600 110.402 C 142.840 110.652,140.320 111.012,139.000 111.203 C 137.680 111.394,135.689 111.671,134.575 111.818 L 132.551 112.087 138.953 118.344 C 142.475 121.785,148.588 127.750,152.538 131.600 C 156.487 135.450,161.156 140.011,162.912 141.735 L 166.105 144.869 165.847 147.135 C 165.705 148.381,165.413 150.390,165.198 151.600 C 164.983 152.810,164.624 154.880,164.400 156.200 C 164.176 157.520,163.816 159.590,163.600 160.800 C 163.384 162.010,163.012 164.170,162.772 165.600 C 162.287 168.491,161.807 171.251,161.186 174.700 C 160.442 178.841,159.974 181.769,159.764 183.600 C 159.651 184.590,159.400 185.760,159.207 186.200 C 158.852 187.008,158.395 191.200,158.662 191.200 C 158.807 191.200,165.713 187.617,171.027 184.786 C 173.653 183.386,178.554 180.817,187.800 175.992 C 189.780 174.959,193.157 173.188,195.304 172.057 C 199.666 169.758,200.515 169.621,202.688 170.867 C 203.520 171.344,205.820 172.578,207.800 173.611 C 209.780 174.643,213.020 176.341,215.000 177.383 C 216.980 178.425,220.670 180.365,223.200 181.694 C 225.730 183.023,229.330 184.922,231.200 185.913 C 238.242 189.647,241.322 191.211,241.428 191.106 C 241.549 190.985,240.985 186.973,240.372 183.600 C 240.153 182.390,239.805 180.410,239.600 179.200 C 238.636 173.512,237.626 167.680,236.414 160.800 C 236.240 159.810,235.902 157.740,235.663 156.200 C 235.424 154.660,234.952 151.960,234.614 150.200 C 233.690 145.383,233.753 144.974,235.700 143.112 C 236.635 142.218,242.800 136.224,249.400 129.793 C 256.000 123.362,262.799 116.746,264.509 115.091 L 267.618 112.082 265.909 111.856 C 264.969 111.732,262.850 111.432,261.200 111.190 C 254.971 110.277,252.937 110.001,250.800 109.777 C 249.590 109.651,248.240 109.390,247.800 109.199 C 247.360 109.007,245.920 108.748,244.600 108.625 C 242.019 108.382,240.884 108.226,228.300 106.373 C 226.705 106.138,224.410 105.823,223.200 105.673 L 221.000 105.400 215.509 94.400 C 212.489 88.350,210.014 83.175,210.009 82.900 C 210.004 82.625,209.820 82.400,209.600 82.400 C 209.380 82.400,209.200 82.040,209.200 81.600 C 209.200 81.160,209.020 80.800,208.800 80.800 C 208.580 80.800,208.400 80.440,208.400 80.000 C 208.400 79.560,208.220 79.200,208.000 79.200 C 207.780 79.200,207.600 78.840,207.600 78.400 C 207.600 77.960,207.420 77.600,207.200 77.600 C 206.980 77.600,206.800 77.347,206.800 77.038 C 206.800 76.372,205.132 73.059,204.700 72.867 C 204.535 72.793,204.400 72.523,204.400 72.267 C 204.401 71.703,200.286 63.607,199.996 63.603 C 199.885 63.601,198.806 65.625,197.599 68.100 " stroke="none" fill="#ffd900" fill-rule="evenodd"></path><path id="path1" d="M191.400 39.669 C 189.420 39.862,186.855 40.196,185.700 40.410 C 184.545 40.625,182.565 40.993,181.300 41.230 C 170.991 43.157,157.426 48.699,148.813 54.503 C 129.568 67.473,116.137 85.854,110.014 107.600 C 109.735 108.590,109.365 109.850,109.190 110.400 C 109.016 110.950,108.669 112.570,108.418 114.000 C 108.168 115.430,107.804 117.500,107.609 118.600 C 106.396 125.442,106.076 134.473,106.817 140.955 C 107.459 146.573,108.558 153.152,109.196 155.200 C 109.367 155.750,109.728 157.010,109.998 158.000 C 112.096 165.697,114.787 172.015,119.684 180.747 C 145.003 225.892,207.689 240.087,251.800 210.665 C 284.422 188.906,300.225 148.815,290.929 111.400 C 290.382 109.200,289.774 106.770,289.578 106.000 C 288.000 99.811,282.409 87.709,278.348 81.688 C 264.086 60.543,241.975 45.529,218.800 41.254 C 217.590 41.031,215.610 40.666,214.400 40.443 C 208.008 39.268,198.709 38.954,191.400 39.669 M205.563 72.505 C 219.283 100.414,221.289 104.349,221.922 104.594 C 222.295 104.738,223.860 105.017,225.400 105.214 C 226.940 105.410,229.460 105.758,231.000 105.988 C 232.540 106.217,235.150 106.597,236.800 106.833 C 238.450 107.069,240.880 107.426,242.200 107.627 C 245.222 108.087,248.894 108.622,253.000 109.201 C 254.760 109.449,257.190 109.808,258.400 110.000 C 259.610 110.192,261.950 110.528,263.600 110.747 C 266.983 111.197,268.400 111.561,268.400 111.978 C 268.400 112.231,246.207 134.073,237.821 142.075 L 234.642 145.108 235.149 148.254 C 236.179 154.659,236.441 156.250,236.815 158.400 C 237.026 159.610,237.380 161.680,237.603 163.000 C 237.825 164.320,238.184 166.390,238.400 167.600 C 238.616 168.810,238.988 170.970,239.228 172.400 C 239.649 174.910,239.985 176.851,240.771 181.300 C 241.247 183.994,241.930 188.141,242.246 190.248 C 242.484 191.843,241.875 193.011,241.255 192.146 C 241.115 191.949,239.560 191.062,237.800 190.173 C 233.276 187.889,221.578 181.759,213.400 177.385 C 211.860 176.562,208.232 174.660,205.337 173.159 L 200.074 170.430 196.737 172.115 C 194.902 173.042,193.340 173.935,193.267 174.100 C 193.193 174.265,192.788 174.400,192.367 174.400 C 191.945 174.400,191.600 174.580,191.600 174.800 C 191.600 175.020,191.255 175.200,190.833 175.200 C 190.412 175.200,190.007 175.335,189.933 175.500 C 189.798 175.804,189.230 176.120,182.400 179.698 C 180.310 180.793,176.530 182.780,174.000 184.115 C 171.470 185.449,167.420 187.544,165.000 188.770 C 162.580 189.997,160.540 191.135,160.467 191.300 C 160.393 191.465,160.003 191.600,159.600 191.600 C 159.197 191.600,158.796 191.812,158.710 192.071 C 158.617 192.348,158.338 192.409,158.030 192.219 C 157.417 191.840,157.461 191.444,159.214 181.700 C 159.441 180.435,159.795 178.410,160.000 177.200 C 160.205 175.990,160.546 174.010,160.757 172.800 C 161.258 169.938,161.940 165.960,162.403 163.200 C 162.607 161.990,162.946 160.010,163.157 158.800 C 163.369 157.590,163.719 155.520,163.936 154.200 C 164.153 152.880,164.544 150.540,164.805 149.000 C 165.066 147.460,165.292 145.948,165.307 145.641 C 165.321 145.334,161.208 141.082,156.167 136.194 C 151.125 131.305,143.491 123.874,139.203 119.680 L 131.405 112.054 132.603 111.580 C 133.261 111.320,135.150 110.936,136.800 110.728 C 138.450 110.519,140.880 110.182,142.200 109.978 C 145.033 109.541,148.583 109.022,153.000 108.399 C 154.760 108.151,157.190 107.794,158.400 107.605 C 159.610 107.417,161.950 107.069,163.600 106.833 C 165.250 106.597,167.770 106.229,169.200 106.015 C 170.630 105.801,173.064 105.450,174.609 105.236 C 176.154 105.021,177.743 104.720,178.140 104.567 C 178.783 104.321,184.526 93.005,196.537 68.314 C 198.316 64.655,199.627 62.424,200.000 62.418 C 200.390 62.412,202.340 65.948,205.563 72.505 " stroke="none" fill="#ecebf3" fill-rule="evenodd"></path><path id="path2" d="M185.600 8.000 C 185.600 8.231,184.333 8.400,182.600 8.400 C 180.829 8.400,179.600 8.567,179.600 8.808 C 179.600 9.040,179.180 9.110,178.621 8.970 C 178.083 8.834,176.958 8.958,176.121 9.245 C 175.285 9.532,174.060 9.818,173.400 9.880 C 170.590 10.147,168.780 10.508,168.574 10.842 C 168.452 11.039,167.821 11.200,167.171 11.200 C 166.521 11.200,165.677 11.358,165.295 11.551 C 164.128 12.140,161.792 12.800,160.872 12.800 C 160.392 12.800,160.000 12.980,160.000 13.200 C 160.000 13.420,159.561 13.600,159.024 13.600 C 158.487 13.600,157.936 13.780,157.800 14.000 C 157.664 14.220,157.124 14.400,156.600 14.400 C 156.076 14.400,155.536 14.580,155.400 14.800 C 155.264 15.020,154.803 15.200,154.376 15.200 C 153.949 15.200,153.600 15.380,153.600 15.600 C 153.600 15.820,153.238 16.000,152.795 16.000 C 152.352 16.000,151.677 16.157,151.295 16.350 C 148.320 17.848,147.047 18.400,146.562 18.400 C 146.253 18.400,146.000 18.580,146.000 18.800 C 146.000 19.020,145.640 19.200,145.200 19.200 C 144.760 19.200,144.400 19.380,144.400 19.600 C 144.400 19.820,144.040 20.000,143.600 20.000 C 143.160 20.000,142.800 20.180,142.800 20.400 C 142.800 20.620,142.440 20.800,142.000 20.800 C 141.560 20.800,141.200 20.980,141.200 21.200 C 141.200 21.420,140.840 21.600,140.400 21.600 C 139.960 21.600,139.600 21.746,139.600 21.925 C 139.600 22.104,138.978 22.495,138.218 22.793 C 137.458 23.091,136.929 23.485,137.042 23.668 C 137.155 23.850,136.877 24.000,136.424 24.000 C 135.971 24.000,135.600 24.180,135.600 24.400 C 135.600 24.620,135.240 24.800,134.800 24.800 C 134.360 24.800,134.000 24.980,134.000 25.200 C 134.000 25.420,133.699 25.600,133.331 25.600 C 132.964 25.600,132.333 25.899,131.929 26.264 C 131.133 26.984,129.921 27.730,128.500 28.373 C 128.005 28.597,127.600 28.924,127.600 29.099 C 127.600 29.275,126.970 29.757,126.200 30.172 C 125.430 30.587,124.800 31.078,124.800 31.263 C 124.800 31.448,124.557 31.600,124.259 31.600 C 123.962 31.600,123.154 32.140,122.463 32.800 C 121.772 33.460,121.026 34.000,120.804 34.000 C 120.582 34.000,120.400 34.180,120.400 34.400 C 120.400 34.620,120.223 34.800,120.007 34.800 C 119.791 34.800,118.769 35.610,117.735 36.600 C 116.702 37.590,115.725 38.400,115.564 38.400 C 115.116 38.400,104.349 49.188,102.995 50.994 C 102.338 51.871,101.215 53.182,100.500 53.908 C 99.785 54.633,99.200 55.392,99.200 55.595 C 99.200 55.798,98.788 56.377,98.285 56.882 C 97.782 57.387,96.765 58.700,96.025 59.800 C 95.285 60.900,94.302 62.234,93.840 62.765 C 93.378 63.295,93.256 63.580,93.568 63.399 C 93.920 63.194,93.844 63.469,93.368 64.122 C 92.946 64.701,92.465 65.181,92.300 65.187 C 92.135 65.194,92.000 65.520,92.000 65.912 C 92.000 66.303,91.640 66.883,91.200 67.200 C 90.760 67.517,90.400 68.009,90.400 68.294 C 90.400 68.987,89.562 70.441,88.700 71.243 C 88.315 71.601,88.000 72.188,88.000 72.547 C 88.000 72.906,87.820 73.200,87.600 73.200 C 87.380 73.200,87.200 73.560,87.200 74.000 C 87.200 74.440,87.020 74.800,86.800 74.800 C 86.580 74.800,86.400 75.145,86.400 75.567 C 86.400 75.988,86.265 76.393,86.100 76.467 C 85.668 76.659,84.000 79.972,84.000 80.638 C 84.000 80.947,83.820 81.200,83.600 81.200 C 83.380 81.200,83.200 81.549,83.200 81.976 C 83.200 82.403,83.020 82.864,82.800 83.000 C 82.580 83.136,82.400 83.597,82.400 84.024 C 82.400 84.451,82.253 84.800,82.072 84.800 C 81.892 84.800,81.500 85.700,81.200 86.800 C 80.900 87.900,80.508 88.800,80.328 88.800 C 80.147 88.800,80.000 89.340,80.000 90.000 C 80.000 90.660,79.820 91.200,79.600 91.200 C 79.380 91.200,79.200 91.639,79.200 92.176 C 79.200 92.713,79.020 93.264,78.800 93.400 C 78.580 93.536,78.400 94.076,78.400 94.600 C 78.400 95.124,78.241 95.651,78.046 95.771 C 77.699 95.986,77.383 97.265,77.017 99.939 C 76.917 100.675,76.631 101.522,76.383 101.821 C 76.134 102.120,76.045 102.549,76.184 102.774 C 76.323 102.999,76.261 103.513,76.045 103.915 C 75.654 104.646,75.293 106.601,74.920 110.000 C 74.811 110.990,74.560 111.971,74.361 112.180 C 74.163 112.389,74.000 113.874,74.000 115.480 C 74.000 117.160,73.830 118.400,73.600 118.400 C 73.341 118.400,73.200 123.333,73.200 132.400 C 73.200 141.467,73.341 146.400,73.600 146.400 C 73.829 146.400,74.000 147.600,74.000 149.200 C 74.000 150.800,74.171 152.000,74.400 152.000 C 74.620 152.000,74.800 152.979,74.800 154.176 C 74.800 155.373,74.983 156.466,75.207 156.604 C 75.430 156.742,75.536 156.979,75.443 157.131 C 75.296 157.368,75.759 160.194,76.142 161.400 C 76.212 161.620,76.409 162.657,76.581 163.705 C 76.752 164.753,77.052 165.708,77.246 165.829 C 77.441 165.949,77.600 166.430,77.600 166.897 C 77.600 167.725,78.923 171.999,79.552 173.200 C 79.724 173.530,80.115 174.655,80.420 175.700 C 80.725 176.745,81.115 177.600,81.287 177.600 C 81.459 177.600,81.600 178.039,81.600 178.576 C 81.600 179.113,81.780 179.664,82.000 179.800 C 82.220 179.936,82.400 180.397,82.400 180.824 C 82.400 181.251,82.580 181.600,82.800 181.600 C 83.020 181.600,83.200 181.960,83.200 182.400 C 83.200 182.840,83.380 183.200,83.600 183.200 C 83.820 183.200,84.000 183.445,84.000 183.744 C 84.000 184.401,86.476 189.345,86.900 189.533 C 87.065 189.607,87.200 190.022,87.200 190.457 C 87.200 190.892,87.380 191.136,87.600 191.000 C 87.820 190.864,88.000 191.123,88.000 191.576 C 88.000 192.029,88.180 192.400,88.400 192.400 C 88.620 192.400,88.800 192.760,88.800 193.200 C 88.800 193.640,88.980 194.000,89.200 194.000 C 89.420 194.000,89.600 194.320,89.600 194.712 C 89.600 195.103,89.960 195.683,90.400 196.000 C 90.840 196.317,91.200 196.897,91.200 197.288 C 91.200 197.680,91.380 198.000,91.600 198.000 C 91.820 198.000,92.000 198.189,92.000 198.419 C 92.000 198.650,92.675 199.850,93.500 201.086 C 94.325 202.321,95.180 203.621,95.400 203.973 C 96.275 205.373,98.257 207.857,99.299 208.860 C 99.904 209.444,100.400 210.093,100.400 210.303 C 100.400 211.402,114.805 225.864,118.445 228.418 C 119.190 228.941,120.277 229.871,120.860 230.485 C 121.444 231.098,122.143 231.600,122.414 231.600 C 122.684 231.600,123.197 231.917,123.553 232.305 C 123.909 232.693,124.874 233.458,125.697 234.005 C 126.521 234.552,127.196 235.135,127.197 235.300 C 127.199 235.465,127.442 235.600,127.738 235.600 C 128.034 235.600,128.602 235.960,129.000 236.400 C 129.398 236.840,129.889 237.200,130.090 237.200 C 130.291 237.200,131.241 237.740,132.200 238.400 C 133.159 239.060,134.102 239.600,134.294 239.600 C 134.487 239.600,135.255 240.050,136.000 240.600 C 136.745 241.150,137.680 241.600,138.078 241.600 C 138.475 241.600,138.800 241.780,138.800 242.000 C 138.800 242.220,139.160 242.400,139.600 242.400 C 140.040 242.400,140.400 242.580,140.400 242.800 C 140.400 243.020,140.758 243.200,141.197 243.200 C 141.635 243.200,142.218 243.560,142.493 244.000 C 142.768 244.440,143.217 244.800,143.492 244.800 C 144.420 244.800,153.600 253.500,153.600 254.380 C 153.600 254.611,153.780 254.800,154.000 254.800 C 154.220 254.800,154.400 255.070,154.400 255.400 C 154.400 255.730,154.580 256.000,154.800 256.000 C 155.020 256.000,155.200 256.230,155.200 256.512 C 155.200 256.793,155.560 257.283,156.000 257.600 C 156.440 257.917,156.800 258.482,156.800 258.855 C 156.800 259.228,156.967 259.593,157.170 259.667 C 157.374 259.740,157.599 260.070,157.670 260.400 C 157.742 260.730,157.904 261.090,158.032 261.200 C 158.267 261.403,160.230 265.533,160.788 267.000 C 160.956 267.440,161.321 268.340,161.600 269.000 C 161.879 269.660,162.248 270.560,162.420 271.000 C 163.401 273.509,163.818 274.400,164.010 274.400 C 164.129 274.400,164.266 274.895,164.316 275.500 C 164.366 276.105,164.585 276.660,164.803 276.733 C 165.022 276.807,165.200 277.201,165.200 277.610 C 165.200 278.018,165.380 278.464,165.600 278.600 C 165.820 278.736,166.000 279.287,166.000 279.824 C 166.000 280.361,166.180 280.800,166.400 280.800 C 166.620 280.800,166.800 281.160,166.800 281.600 C 166.800 282.040,166.980 282.400,167.200 282.400 C 167.420 282.400,167.600 282.850,167.600 283.400 C 167.600 283.950,167.780 284.400,168.000 284.400 C 168.220 284.400,168.400 284.850,168.400 285.400 C 168.400 285.950,168.580 286.400,168.800 286.400 C 169.020 286.400,169.200 286.850,169.200 287.400 C 169.200 287.950,169.380 288.400,169.600 288.400 C 169.820 288.400,170.000 288.760,170.000 289.200 C 170.000 289.640,170.180 290.000,170.400 290.000 C 170.620 290.000,170.800 290.540,170.800 291.200 C 170.800 291.860,170.980 292.400,171.200 292.400 C 171.420 292.400,171.600 292.760,171.600 293.200 C 171.600 293.640,171.780 294.000,172.000 294.000 C 172.220 294.000,172.400 294.439,172.400 294.976 C 172.400 295.513,172.580 296.064,172.800 296.200 C 173.020 296.336,173.200 296.797,173.200 297.224 C 173.200 297.651,173.380 298.000,173.600 298.000 C 173.820 298.000,174.000 298.461,174.000 299.024 C 174.000 299.604,174.173 299.940,174.400 299.800 C 174.627 299.660,174.800 299.998,174.800 300.582 C 174.800 301.148,174.975 301.923,175.190 302.305 C 175.618 303.068,176.855 305.964,177.024 306.600 C 177.392 307.984,178.649 311.022,178.900 311.133 C 179.065 311.207,179.200 311.691,179.200 312.210 C 179.200 312.728,179.380 313.264,179.600 313.400 C 179.820 313.536,180.000 313.997,180.000 314.424 C 180.000 314.851,180.180 315.200,180.400 315.200 C 180.620 315.200,180.800 315.472,180.800 315.804 C 180.800 316.356,181.933 319.193,182.833 320.895 C 183.035 321.277,183.200 321.862,183.200 322.195 C 183.200 322.528,183.380 322.800,183.600 322.800 C 183.820 322.800,184.000 323.239,184.000 323.776 C 184.000 324.313,184.180 324.864,184.400 325.000 C 184.620 325.136,184.800 325.597,184.800 326.024 C 184.800 326.451,184.980 326.800,185.200 326.800 C 185.420 326.800,185.600 327.160,185.600 327.600 C 185.600 328.040,185.780 328.400,186.000 328.400 C 186.220 328.400,186.400 328.589,186.400 328.819 C 186.400 329.050,186.829 329.635,187.353 330.119 C 187.877 330.604,188.792 332.260,189.386 333.800 C 189.981 335.340,190.741 337.230,191.074 338.000 C 191.408 338.770,191.819 339.760,191.987 340.200 C 192.155 340.640,192.497 341.495,192.746 342.100 C 192.996 342.705,193.380 343.650,193.600 344.200 C 193.820 344.750,194.180 345.650,194.400 346.200 C 194.620 346.750,194.962 347.605,195.159 348.100 C 195.357 348.595,195.792 349.630,196.125 350.400 C 196.459 351.170,197.396 353.465,198.208 355.500 C 200.156 360.384,199.751 360.628,203.008 352.600 C 203.811 350.620,204.615 348.640,204.794 348.200 C 204.974 347.760,205.498 346.547,205.960 345.504 C 206.422 344.462,206.800 343.515,206.800 343.400 C 206.800 343.285,207.178 342.338,207.640 341.296 C 208.694 338.915,209.279 337.506,210.500 334.400 C 210.716 333.850,211.052 333.087,211.247 332.705 C 211.441 332.323,211.600 331.778,211.600 331.493 C 211.600 331.209,212.230 330.382,213.000 329.656 C 213.770 328.929,214.400 328.097,214.400 327.805 C 214.400 327.514,214.786 326.494,215.257 325.538 C 215.728 324.582,216.289 323.350,216.503 322.800 C 216.718 322.250,217.052 321.487,217.247 321.105 C 217.441 320.723,217.600 320.138,217.600 319.805 C 217.600 319.472,217.780 319.200,218.000 319.200 C 218.220 319.200,218.400 318.851,218.400 318.424 C 218.400 317.997,218.580 317.536,218.800 317.400 C 219.020 317.264,219.200 316.724,219.200 316.200 C 219.200 315.676,219.380 315.136,219.600 315.000 C 219.820 314.864,220.000 314.403,220.000 313.976 C 220.000 313.549,220.180 313.200,220.400 313.200 C 220.620 313.200,220.800 312.750,220.800 312.200 C 220.800 311.650,220.980 311.200,221.200 311.200 C 221.420 311.200,221.600 310.928,221.600 310.595 C 221.600 310.262,221.767 309.677,221.971 309.295 C 222.355 308.574,222.782 307.344,222.772 306.986 C 222.769 306.873,223.028 306.290,223.347 305.690 C 224.459 303.604,225.203 301.666,225.289 300.636 C 225.336 300.066,225.515 299.600,225.687 299.600 C 225.859 299.600,226.000 299.240,226.000 298.800 C 226.000 298.360,226.180 298.000,226.400 298.000 C 226.620 298.000,226.800 297.640,226.800 297.200 C 226.800 296.760,226.980 296.400,227.200 296.400 C 227.420 296.400,227.600 295.860,227.600 295.200 C 227.600 294.540,227.780 294.000,228.000 294.000 C 228.220 294.000,228.400 293.640,228.400 293.200 C 228.400 292.760,228.580 292.400,228.800 292.400 C 229.020 292.400,229.200 291.860,229.200 291.200 C 229.200 290.540,229.360 290.000,229.556 290.000 C 229.752 290.000,230.151 289.190,230.443 288.200 C 230.735 287.210,231.115 286.400,231.287 286.400 C 231.459 286.400,231.600 286.040,231.600 285.600 C 231.600 285.160,231.780 284.800,232.000 284.800 C 232.220 284.800,232.400 284.438,232.400 283.995 C 232.400 283.552,232.559 282.877,232.753 282.495 C 232.948 282.113,233.329 281.260,233.600 280.600 C 233.871 279.940,234.252 279.087,234.447 278.705 C 234.641 278.323,234.800 277.738,234.800 277.405 C 234.800 277.072,234.980 276.800,235.200 276.800 C 235.420 276.800,235.600 276.350,235.600 275.800 C 235.600 275.250,235.780 274.800,236.000 274.800 C 236.220 274.800,236.400 274.528,236.400 274.195 C 236.400 273.862,236.559 273.277,236.753 272.895 C 236.948 272.513,237.284 271.750,237.500 271.200 C 238.350 269.037,238.768 268.088,240.158 265.170 C 240.951 263.504,241.600 261.929,241.600 261.670 C 241.600 261.412,241.780 261.200,242.000 261.200 C 242.220 261.200,242.400 260.840,242.400 260.400 C 242.400 259.960,242.580 259.600,242.800 259.600 C 243.020 259.600,243.200 259.229,243.200 258.776 C 243.200 258.323,243.380 258.064,243.600 258.200 C 243.820 258.336,244.000 258.167,244.000 257.824 C 244.000 257.481,244.180 257.200,244.400 257.200 C 244.620 257.200,244.800 256.930,244.800 256.600 C 244.800 256.270,244.980 256.000,245.200 256.000 C 245.420 256.000,245.600 255.822,245.600 255.605 C 245.600 254.813,253.629 246.400,254.385 246.400 C 254.613 246.400,254.800 246.220,254.800 246.000 C 254.800 245.780,255.070 245.600,255.400 245.600 C 255.730 245.600,256.000 245.420,256.000 245.200 C 256.000 244.980,256.281 244.800,256.624 244.800 C 256.967 244.800,257.136 244.620,257.000 244.400 C 256.864 244.180,257.033 244.000,257.376 244.000 C 257.719 244.000,258.000 243.820,258.000 243.600 C 258.000 243.380,258.360 243.200,258.800 243.200 C 259.240 243.200,259.600 243.020,259.600 242.800 C 259.600 242.580,259.945 242.400,260.367 242.400 C 260.788 242.400,261.193 242.265,261.267 242.100 C 261.340 241.935,262.480 241.270,263.800 240.623 C 265.120 239.975,266.920 238.980,267.800 238.410 C 268.680 237.841,269.895 237.126,270.500 236.820 C 271.105 236.515,271.600 236.115,271.600 235.932 C 271.600 235.750,271.870 235.600,272.200 235.600 C 272.530 235.600,272.800 235.459,272.800 235.286 C 272.800 235.114,273.345 234.651,274.011 234.257 C 274.677 233.864,275.659 233.105,276.193 232.571 C 276.727 232.037,277.452 231.600,277.805 231.600 C 278.158 231.600,278.336 231.420,278.200 231.200 C 278.064 230.980,278.145 230.800,278.380 230.800 C 278.615 230.800,279.372 230.260,280.063 229.600 C 280.754 228.940,281.573 228.400,281.883 228.400 C 282.193 228.400,282.336 228.220,282.200 228.000 C 282.064 227.780,282.149 227.600,282.388 227.600 C 283.427 227.600,299.600 211.347,299.600 210.303 C 299.600 210.093,300.102 209.444,300.717 208.860 C 301.331 208.277,302.456 206.900,303.217 205.800 C 303.977 204.700,304.695 203.710,304.810 203.600 C 305.643 202.807,308.802 197.662,308.801 197.100 C 308.800 196.715,308.980 196.400,309.200 196.400 C 309.420 196.400,309.600 196.119,309.600 195.776 C 309.600 195.433,309.780 195.264,310.000 195.400 C 310.220 195.536,310.400 195.277,310.400 194.824 C 310.400 194.371,310.580 194.000,310.800 194.000 C 311.020 194.000,311.200 193.640,311.200 193.200 C 311.200 192.760,311.380 192.400,311.600 192.400 C 311.820 192.400,312.000 192.010,312.000 191.533 C 312.000 191.057,312.116 190.783,312.258 190.924 C 312.543 191.210,315.200 186.152,315.200 185.323 C 315.200 185.035,315.380 184.800,315.600 184.800 C 315.820 184.800,316.000 184.440,316.000 184.000 C 316.000 183.560,316.180 183.200,316.400 183.200 C 316.620 183.200,316.800 182.840,316.800 182.400 C 316.800 181.960,316.980 181.600,317.200 181.600 C 317.420 181.600,317.600 181.251,317.600 180.824 C 317.600 180.397,317.780 179.936,318.000 179.800 C 318.220 179.664,318.400 179.113,318.400 178.576 C 318.400 178.039,318.580 177.600,318.800 177.600 C 319.020 177.600,319.200 177.060,319.200 176.400 C 319.200 175.740,319.380 175.200,319.600 175.200 C 319.820 175.200,320.000 174.928,320.000 174.595 C 320.000 174.262,320.167 173.677,320.371 173.295 C 320.914 172.277,321.301 171.133,321.486 170.000 C 321.576 169.450,321.818 168.829,322.025 168.620 C 322.231 168.411,322.400 167.772,322.400 167.200 C 322.400 166.628,322.616 165.944,322.880 165.680 C 323.144 165.416,323.238 165.200,323.090 165.200 C 322.941 165.200,323.020 164.705,323.265 164.100 C 323.685 163.061,323.870 162.278,324.776 157.700 C 324.983 156.655,325.163 154.956,325.176 153.924 C 325.189 152.892,325.380 151.936,325.600 151.800 C 325.820 151.664,326.000 150.293,326.000 148.753 C 326.000 146.988,326.148 146.044,326.400 146.200 C 326.664 146.363,326.800 141.663,326.800 132.400 C 326.800 123.137,326.664 118.437,326.400 118.600 C 326.146 118.757,326.000 117.671,326.000 115.624 C 326.000 113.851,325.846 112.400,325.659 112.400 C 325.471 112.400,325.199 111.095,325.055 109.500 C 324.781 106.466,324.671 105.790,324.290 104.800 C 324.076 104.243,323.927 103.507,323.338 100.103 C 323.206 99.342,322.940 98.913,322.695 99.065 C 322.460 99.210,322.395 99.132,322.545 98.888 C 322.693 98.649,322.544 97.676,322.213 96.727 C 321.882 95.777,321.609 94.685,321.606 94.300 C 321.603 93.915,321.420 93.600,321.200 93.600 C 320.980 93.600,320.800 93.060,320.800 92.400 C 320.800 91.740,320.620 91.200,320.400 91.200 C 320.180 91.200,320.000 90.660,320.000 90.000 C 320.000 89.340,319.820 88.800,319.600 88.800 C 319.380 88.800,319.200 88.361,319.200 87.824 C 319.200 87.287,319.020 86.736,318.800 86.600 C 318.580 86.464,318.400 86.003,318.400 85.576 C 318.400 85.149,318.220 84.800,318.000 84.800 C 317.780 84.800,317.600 84.528,317.600 84.195 C 317.600 83.862,317.432 83.277,317.226 82.895 C 317.021 82.513,316.617 81.615,316.329 80.900 C 316.040 80.185,315.669 79.600,315.502 79.600 C 315.336 79.600,315.200 79.366,315.200 79.080 C 315.200 78.344,314.259 76.407,313.900 76.403 C 313.735 76.401,313.600 76.040,313.600 75.600 C 313.600 75.160,313.420 74.800,313.200 74.800 C 312.980 74.800,312.800 74.440,312.800 74.000 C 312.800 73.560,312.620 73.200,312.400 73.200 C 312.180 73.200,312.000 72.964,312.000 72.675 C 312.000 72.387,311.640 71.764,311.200 71.292 C 310.760 70.820,310.400 70.156,310.400 69.817 C 310.400 69.478,310.241 69.200,310.047 69.200 C 309.852 69.200,309.590 68.885,309.464 68.500 C 309.088 67.351,305.502 61.454,304.782 60.800 C 304.661 60.690,304.129 59.970,303.600 59.200 C 303.071 58.430,302.314 57.509,301.919 57.153 C 301.524 56.797,301.200 56.324,301.200 56.101 C 301.200 55.879,300.525 54.994,299.700 54.136 C 298.875 53.278,297.690 51.899,297.067 51.072 C 295.640 49.177,285.204 38.639,285.188 39.076 C 285.181 39.254,284.992 39.085,284.768 38.700 C 284.544 38.315,284.190 38.000,283.982 38.000 C 283.774 38.000,282.685 37.100,281.561 36.000 C 280.438 34.900,279.307 34.000,279.048 34.000 C 278.789 34.000,278.317 33.640,278.000 33.200 C 277.683 32.760,277.183 32.400,276.888 32.400 C 276.594 32.400,276.464 32.220,276.600 32.000 C 276.736 31.780,276.516 31.600,276.112 31.600 C 275.707 31.600,275.117 31.240,274.800 30.800 C 274.483 30.360,274.087 30.000,273.920 30.000 C 273.753 30.000,272.679 29.290,271.533 28.423 C 270.387 27.556,269.330 26.919,269.185 27.009 C 269.040 27.099,268.541 26.819,268.077 26.386 C 267.613 25.954,266.956 25.600,266.617 25.600 C 266.278 25.600,266.000 25.420,266.000 25.200 C 266.000 24.980,265.640 24.800,265.200 24.800 C 264.760 24.800,264.400 24.620,264.400 24.400 C 264.400 24.180,264.119 24.000,263.776 24.000 C 263.433 24.000,263.264 23.820,263.400 23.600 C 263.536 23.380,263.277 23.200,262.824 23.200 C 262.371 23.200,262.000 23.020,262.000 22.800 C 262.000 22.580,261.640 22.400,261.200 22.400 C 260.760 22.400,260.400 22.220,260.400 22.000 C 260.400 21.780,260.055 21.600,259.633 21.600 C 259.212 21.600,258.807 21.464,258.733 21.298 C 258.660 21.132,257.340 20.393,255.800 19.656 C 254.260 18.919,252.687 18.155,252.305 17.958 C 251.923 17.761,251.338 17.600,251.005 17.600 C 250.672 17.600,250.400 17.420,250.400 17.200 C 250.400 16.980,250.040 16.800,249.600 16.800 C 249.160 16.800,248.800 16.620,248.800 16.400 C 248.800 16.180,248.260 16.000,247.600 16.000 C 246.940 16.000,246.400 15.820,246.400 15.600 C 246.400 15.380,246.040 15.200,245.600 15.200 C 245.160 15.200,244.800 15.020,244.800 14.800 C 244.800 14.580,244.260 14.400,243.600 14.400 C 242.940 14.400,242.400 14.220,242.400 14.000 C 242.400 13.780,241.860 13.600,241.200 13.600 C 240.540 13.600,240.000 13.459,240.000 13.287 C 240.000 13.115,239.513 12.934,238.918 12.885 C 238.322 12.836,237.656 12.616,237.438 12.398 C 237.219 12.179,236.446 12.000,235.720 12.000 C 234.994 12.000,234.400 11.840,234.400 11.644 C 234.400 11.448,233.815 11.188,233.100 11.066 C 232.385 10.944,230.900 10.648,229.800 10.408 C 228.700 10.168,227.160 9.921,226.378 9.858 C 225.596 9.795,224.720 9.598,224.430 9.419 C 223.859 9.066,221.830 8.810,217.300 8.522 C 215.705 8.420,214.400 8.171,214.400 7.968 C 214.400 7.751,208.510 7.600,200.000 7.600 C 190.667 7.600,185.600 7.741,185.600 8.000 M213.400 39.572 C 214.940 39.820,217.010 40.125,218.000 40.250 C 218.990 40.375,219.971 40.640,220.180 40.839 C 220.389 41.037,221.143 41.200,221.856 41.200 C 222.569 41.200,223.264 41.380,223.400 41.600 C 223.536 41.820,224.256 42.000,225.000 42.000 C 225.744 42.000,226.464 42.180,226.600 42.400 C 226.736 42.620,227.276 42.800,227.800 42.800 C 228.324 42.800,228.864 42.980,229.000 43.200 C 229.136 43.420,229.599 43.600,230.029 43.600 C 230.459 43.600,231.123 43.759,231.505 43.953 C 231.887 44.148,232.650 44.484,233.200 44.700 C 233.750 44.916,234.650 45.279,235.200 45.506 C 235.750 45.733,236.830 46.149,237.600 46.429 C 240.718 47.564,253.278 54.557,254.000 55.560 C 254.110 55.713,254.830 56.271,255.600 56.800 C 256.370 57.329,257.090 57.871,257.200 58.004 C 257.310 58.137,257.823 58.536,258.341 58.889 C 261.886 61.313,269.710 69.052,273.214 73.600 C 273.976 74.590,274.699 75.490,274.819 75.600 C 274.940 75.710,275.475 76.430,276.008 77.200 C 276.542 77.970,277.298 78.949,277.689 79.375 C 278.080 79.802,278.400 80.387,278.400 80.675 C 278.400 80.964,278.580 81.200,278.800 81.200 C 279.020 81.200,279.200 81.436,279.200 81.725 C 279.200 82.013,279.515 82.607,279.900 83.045 C 282.130 85.580,287.685 97.447,289.616 103.800 C 289.883 104.680,290.259 105.813,290.451 106.319 C 290.643 106.824,290.800 107.669,290.800 108.195 C 290.800 108.722,290.980 109.264,291.200 109.400 C 291.420 109.536,291.600 110.256,291.600 111.000 C 291.600 111.744,291.780 112.464,292.000 112.600 C 292.220 112.736,292.400 113.611,292.400 114.544 C 292.400 115.477,292.561 116.411,292.758 116.620 C 294.067 118.009,294.074 147.623,292.766 148.980 C 292.565 149.189,292.400 150.123,292.400 151.056 C 292.400 151.989,292.220 152.864,292.000 153.000 C 291.780 153.136,291.600 153.946,291.600 154.800 C 291.600 155.654,291.420 156.464,291.200 156.600 C 290.980 156.736,290.800 157.289,290.800 157.829 C 290.800 158.369,290.637 159.123,290.437 159.505 C 290.237 159.887,289.799 161.100,289.463 162.200 C 287.101 169.935,279.717 184.757,277.207 186.800 C 277.072 186.910,276.529 187.630,276.000 188.400 C 275.471 189.170,274.931 189.890,274.800 190.000 C 274.669 190.110,274.127 190.822,273.596 191.581 C 271.064 195.202,262.448 203.822,258.781 206.402 C 258.022 206.936,257.195 207.560,256.945 207.787 C 255.685 208.929,254.755 209.600,254.429 209.600 C 254.230 209.600,254.007 209.747,253.933 209.928 C 253.799 210.257,249.002 213.600,248.663 213.600 C 248.563 213.600,247.338 214.286,245.941 215.124 C 242.641 217.103,235.111 220.427,230.800 221.808 C 228.930 222.406,227.087 223.055,226.705 223.248 C 226.323 223.442,225.569 223.600,225.029 223.600 C 224.489 223.600,223.948 223.761,223.826 223.958 C 223.616 224.298,222.560 224.517,218.700 225.023 C 217.765 225.145,216.640 225.407,216.200 225.605 C 213.403 226.861,186.597 226.861,183.800 225.605 C 183.360 225.407,182.280 225.155,181.400 225.045 C 178.873 224.729,177.066 224.373,176.200 224.018 C 175.760 223.838,174.590 223.467,173.600 223.192 C 167.875 221.604,161.681 219.125,156.400 216.307 C 151.359 213.617,151.115 213.477,150.513 212.926 C 150.228 212.666,149.636 212.338,149.198 212.199 C 148.759 212.060,148.400 211.778,148.400 211.573 C 148.400 211.368,148.164 211.200,147.875 211.200 C 147.587 211.200,147.002 210.880,146.575 210.489 C 146.149 210.098,145.170 209.342,144.400 208.808 C 143.630 208.275,142.910 207.731,142.800 207.600 C 142.690 207.469,141.978 206.927,141.219 206.396 C 137.741 203.964,128.836 195.063,126.417 191.600 C 125.879 190.830,125.331 190.110,125.200 190.000 C 125.069 189.890,124.525 189.170,123.992 188.400 C 123.458 187.630,122.731 186.682,122.375 186.293 C 122.019 185.905,121.474 185.095,121.165 184.493 C 120.855 183.892,120.482 183.309,120.337 183.199 C 119.465 182.535,114.466 172.675,112.835 168.400 C 112.122 166.530,111.372 164.687,111.169 164.305 C 110.966 163.923,110.800 163.259,110.800 162.829 C 110.800 162.399,110.620 161.936,110.400 161.800 C 110.180 161.664,110.000 161.124,110.000 160.600 C 110.000 160.076,109.820 159.536,109.600 159.400 C 109.380 159.264,109.200 158.533,109.200 157.776 C 109.200 157.019,109.020 156.400,108.800 156.400 C 108.580 156.400,108.400 155.691,108.400 154.824 C 108.400 153.957,108.220 153.136,108.000 153.000 C 107.780 152.864,107.600 151.989,107.600 151.056 C 107.600 150.123,107.439 149.189,107.242 148.980 C 105.913 147.570,105.913 118.030,107.242 116.620 C 107.439 116.411,107.600 115.477,107.600 114.544 C 107.600 113.611,107.780 112.736,108.000 112.600 C 108.220 112.464,108.400 111.744,108.400 111.000 C 108.400 110.256,108.580 109.536,108.800 109.400 C 109.020 109.264,109.200 108.533,109.200 107.776 C 109.200 107.019,109.380 106.400,109.600 106.400 C 109.820 106.400,110.000 105.871,110.000 105.224 C 110.000 104.577,110.180 103.936,110.400 103.800 C 110.620 103.664,110.800 103.201,110.800 102.771 C 110.800 102.341,110.980 101.632,111.200 101.195 C 111.420 100.758,111.780 100.042,112.000 99.605 C 112.220 99.168,112.400 98.626,112.400 98.401 C 112.400 97.299,117.020 87.822,119.204 84.442 C 120.082 83.084,120.800 81.799,120.800 81.587 C 120.800 81.374,120.980 81.200,121.200 81.200 C 121.420 81.200,121.600 81.022,121.600 80.803 C 121.600 80.375,123.817 77.289,125.415 75.493 C 125.957 74.884,126.400 74.301,126.400 74.198 C 126.400 73.132,136.424 62.955,140.477 59.906 C 141.276 59.304,142.171 58.578,142.465 58.293 C 142.759 58.007,143.630 57.334,144.400 56.798 C 145.170 56.261,146.149 55.502,146.575 55.111 C 147.002 54.720,147.587 54.400,147.875 54.400 C 148.164 54.400,148.400 54.220,148.400 54.000 C 148.400 53.780,148.593 53.600,148.828 53.600 C 149.063 53.600,150.008 53.085,150.928 52.457 C 152.884 51.119,159.409 47.704,162.000 46.662 C 162.990 46.264,164.205 45.772,164.700 45.569 C 165.195 45.366,166.095 44.999,166.700 44.753 C 167.305 44.508,168.113 44.148,168.495 43.953 C 168.877 43.759,169.541 43.600,169.971 43.600 C 170.401 43.600,170.864 43.420,171.000 43.200 C 171.136 42.980,171.766 42.800,172.400 42.800 C 173.034 42.800,173.664 42.620,173.800 42.400 C 173.936 42.180,174.566 42.000,175.200 42.000 C 175.834 42.000,176.464 41.820,176.600 41.600 C 176.736 41.380,177.456 41.200,178.200 41.200 C 178.944 41.200,179.664 41.020,179.800 40.800 C 179.936 40.580,180.836 40.400,181.800 40.400 C 182.764 40.400,183.664 40.220,183.800 40.000 C 183.936 39.780,185.072 39.587,186.324 39.572 C 187.576 39.556,188.960 39.385,189.400 39.190 C 190.497 38.706,209.938 39.015,213.400 39.572 " stroke="none" fill="#fa1803" fill-rule="evenodd"></path><path id="path3" d="M183.600 329.921 C 182.170 329.988,180.829 330.213,180.620 330.421 C 180.411 330.630,179.477 330.800,178.544 330.800 C 177.611 330.800,176.736 330.980,176.600 331.200 C 176.464 331.420,175.564 331.600,174.600 331.600 C 173.636 331.600,172.736 331.780,172.600 332.000 C 172.464 332.220,171.744 332.400,171.000 332.400 C 170.256 332.400,169.536 332.580,169.400 332.800 C 169.264 333.020,168.623 333.200,167.976 333.200 C 167.329 333.200,166.800 333.380,166.800 333.600 C 166.800 333.820,166.249 334.000,165.576 334.000 C 164.863 334.000,164.456 334.167,164.600 334.400 C 164.739 334.625,164.419 334.800,163.869 334.800 C 163.331 334.800,162.389 335.061,161.774 335.380 C 161.160 335.698,160.482 335.850,160.267 335.718 C 160.050 335.584,160.004 335.682,160.162 335.938 C 160.349 336.241,160.095 336.400,159.424 336.400 C 158.861 336.400,158.400 336.580,158.400 336.800 C 158.400 337.020,158.040 337.200,157.600 337.200 C 157.160 337.200,156.800 337.380,156.800 337.600 C 156.800 337.820,156.440 338.000,156.000 338.000 C 155.560 338.000,155.200 338.180,155.200 338.400 C 155.200 338.620,154.840 338.800,154.400 338.800 C 153.960 338.800,153.600 338.980,153.600 339.200 C 153.600 339.420,153.240 339.600,152.800 339.600 C 152.360 339.600,152.000 339.780,152.000 340.000 C 152.000 340.220,151.764 340.400,151.475 340.400 C 151.187 340.400,150.602 340.715,150.175 341.100 C 149.749 341.485,148.911 342.052,148.313 342.361 C 146.210 343.445,139.600 350.308,139.600 351.407 C 139.600 351.733,139.420 352.000,139.200 352.000 C 138.980 352.000,138.800 352.360,138.800 352.800 C 138.800 353.240,138.620 353.600,138.400 353.600 C 138.180 353.600,138.000 354.039,138.000 354.576 C 138.000 355.113,137.820 355.664,137.600 355.800 C 137.368 355.943,137.200 358.130,137.200 361.000 C 137.200 363.870,137.368 366.057,137.600 366.200 C 137.820 366.336,138.000 366.887,138.000 367.424 C 138.000 367.961,138.180 368.400,138.400 368.400 C 138.620 368.400,138.800 368.760,138.800 369.200 C 138.800 369.640,138.980 370.000,139.200 370.000 C 139.420 370.000,139.600 370.243,139.600 370.541 C 139.600 370.838,140.140 371.646,140.800 372.337 C 141.460 373.028,142.000 373.698,142.000 373.828 C 142.000 374.239,147.453 379.199,147.907 379.201 C 148.068 379.201,148.830 379.741,149.600 380.400 C 150.370 381.059,151.225 381.599,151.500 381.599 C 151.775 381.600,152.000 381.780,152.000 382.000 C 152.000 382.220,152.360 382.400,152.800 382.400 C 153.240 382.400,153.600 382.580,153.600 382.800 C 153.600 383.020,153.960 383.200,154.400 383.200 C 154.840 383.200,155.200 383.380,155.200 383.600 C 155.200 383.820,155.560 384.000,156.000 384.000 C 156.440 384.000,156.800 384.180,156.800 384.400 C 156.800 384.620,157.160 384.800,157.600 384.800 C 158.040 384.800,158.400 384.941,158.400 385.113 C 158.400 385.285,159.255 385.675,160.300 385.980 C 162.124 386.512,162.638 386.716,164.395 387.600 C 164.832 387.820,165.464 388.000,165.800 388.000 C 166.136 388.000,166.723 388.158,167.105 388.351 C 168.351 388.980,170.634 389.600,171.705 389.600 C 172.281 389.600,172.846 389.751,172.960 389.935 C 173.073 390.119,173.806 390.293,174.587 390.323 C 175.368 390.352,176.360 390.565,176.791 390.795 C 177.222 391.026,178.075 391.222,178.687 391.230 C 182.047 391.278,186.000 391.711,186.000 392.032 C 186.000 392.249,191.734 392.400,200.000 392.400 C 207.700 392.400,214.000 392.247,214.000 392.061 C 214.000 391.874,215.871 391.607,218.157 391.467 C 220.443 391.327,222.784 391.034,223.359 390.816 C 223.933 390.597,224.988 390.324,225.702 390.208 C 226.416 390.092,227.677 389.888,228.504 389.755 C 229.331 389.621,230.106 389.351,230.227 389.156 C 230.348 388.960,230.966 388.800,231.600 388.800 C 232.234 388.800,232.864 388.620,233.000 388.400 C 233.136 388.180,233.676 388.000,234.200 388.000 C 234.724 388.000,235.264 387.820,235.400 387.600 C 235.536 387.380,236.087 387.200,236.624 387.200 C 237.161 387.200,237.600 387.020,237.600 386.800 C 237.600 386.580,237.955 386.400,238.388 386.400 C 238.821 386.400,239.817 386.040,240.600 385.600 C 241.383 385.160,242.289 384.800,242.612 384.800 C 242.935 384.800,243.200 384.620,243.200 384.400 C 243.200 384.180,243.560 384.000,244.000 384.000 C 244.440 384.000,244.800 383.820,244.800 383.600 C 244.800 383.380,245.160 383.200,245.600 383.200 C 246.040 383.200,246.400 383.020,246.400 382.800 C 246.400 382.580,246.771 382.400,247.224 382.400 C 247.677 382.400,247.960 382.258,247.852 382.085 C 247.745 381.912,248.230 381.517,248.929 381.207 C 249.628 380.898,250.549 380.320,250.975 379.922 C 251.402 379.525,251.915 379.200,252.115 379.200 C 252.315 379.200,252.983 378.660,253.600 378.000 C 254.217 377.340,254.843 376.800,254.992 376.800 C 255.584 376.800,259.600 372.264,259.600 371.595 C 259.600 371.378,259.780 371.200,260.000 371.200 C 260.220 371.200,260.400 370.930,260.400 370.600 C 260.400 370.270,260.580 370.000,260.800 370.000 C 261.020 370.000,261.200 369.640,261.200 369.200 C 261.200 368.760,261.380 368.400,261.600 368.400 C 261.820 368.400,262.000 367.860,262.000 367.200 C 262.000 366.540,262.180 366.000,262.400 366.000 C 262.645 366.000,262.800 364.075,262.800 361.024 C 262.800 358.137,262.632 355.943,262.400 355.800 C 262.180 355.664,262.000 355.113,262.000 354.576 C 262.000 354.039,261.820 353.600,261.600 353.600 C 261.380 353.600,261.200 353.240,261.200 352.800 C 261.200 352.360,261.020 352.000,260.800 352.000 C 260.580 352.000,260.400 351.724,260.400 351.386 C 260.400 350.321,253.747 343.424,251.703 342.369 C 251.096 342.056,250.251 341.485,249.825 341.100 C 249.398 340.715,248.813 340.400,248.525 340.400 C 248.236 340.400,248.000 340.220,248.000 340.000 C 248.000 339.780,247.640 339.600,247.200 339.600 C 246.760 339.600,246.400 339.420,246.400 339.200 C 246.400 338.980,246.040 338.800,245.600 338.800 C 245.160 338.800,244.800 338.620,244.800 338.400 C 244.800 338.180,244.440 338.000,244.000 338.000 C 243.560 338.000,243.200 337.820,243.200 337.600 C 243.200 337.380,242.840 337.200,242.400 337.200 C 241.960 337.200,241.600 337.020,241.600 336.800 C 241.600 336.580,241.240 336.400,240.800 336.400 C 240.360 336.400,240.000 336.220,240.000 336.000 C 240.000 335.780,239.561 335.600,239.024 335.600 C 238.487 335.600,237.936 335.420,237.800 335.200 C 237.664 334.980,237.124 334.800,236.600 334.800 C 236.076 334.800,235.536 334.620,235.400 334.400 C 235.264 334.180,234.724 334.000,234.200 334.000 C 233.676 334.000,233.136 333.820,233.000 333.600 C 232.864 333.380,232.324 333.200,231.800 333.200 C 231.276 333.200,230.748 333.039,230.626 332.842 C 230.505 332.645,229.729 332.390,228.903 332.275 C 228.076 332.160,226.590 331.853,225.600 331.594 C 224.610 331.335,222.900 331.032,221.800 330.920 C 220.700 330.809,219.618 330.570,219.396 330.390 C 219.065 330.121,215.120 329.846,213.342 329.968 C 213.090 329.986,212.220 331.665,211.408 333.700 C 210.596 335.735,209.659 338.030,209.325 338.800 C 208.992 339.570,208.575 340.560,208.399 341.000 C 208.223 341.440,207.702 342.653,207.240 343.696 C 206.778 344.738,206.400 345.827,206.400 346.116 C 206.400 346.404,206.248 346.811,206.061 347.020 C 205.875 347.229,205.127 348.930,204.400 350.800 C 203.673 352.670,202.925 354.371,202.739 354.580 C 202.552 354.789,202.400 355.203,202.400 355.499 C 202.400 355.796,202.040 356.784,201.600 357.694 C 201.160 358.605,200.800 359.586,200.800 359.875 C 200.800 360.164,200.538 360.400,200.219 360.400 C 199.590 360.400,198.588 358.360,196.387 352.600 C 196.219 352.160,195.808 351.170,195.474 350.400 C 195.140 349.630,193.936 346.660,192.800 343.800 C 191.664 340.940,190.501 338.060,190.217 337.400 C 189.933 336.740,189.119 334.817,188.408 333.127 C 186.946 329.651,187.106 329.758,183.600 329.921 " stroke="none" fill="#d4d4d4" fill-rule="evenodd"></path><path id="path4" d="M196.500 68.344 C 194.905 71.598,193.609 74.427,193.621 74.630 C 193.633 74.834,194.984 72.345,196.624 69.100 C 200.097 62.227,200.133 62.209,202.107 66.468 C 202.935 68.257,203.693 69.640,203.792 69.542 C 204.187 69.147,200.615 62.400,200.018 62.414 C 199.625 62.422,198.346 64.578,196.500 68.344 M204.000 70.167 C 204.000 70.714,220.846 104.340,221.315 104.729 C 221.630 104.991,223.309 105.396,225.044 105.630 C 226.780 105.863,229.280 106.210,230.600 106.400 C 231.920 106.590,234.350 106.937,236.000 107.170 C 237.650 107.403,240.170 107.771,241.600 107.989 C 244.664 108.454,245.423 108.490,245.083 108.150 C 244.946 108.013,243.701 107.755,242.317 107.578 C 239.539 107.223,235.292 106.626,231.000 105.988 C 229.460 105.758,226.940 105.410,225.400 105.214 C 223.860 105.017,222.295 104.739,221.923 104.594 C 221.299 104.353,219.284 100.428,208.215 77.900 C 204.809 70.967,204.000 69.483,204.000 70.167 M188.131 85.500 C 185.803 90.285,183.820 94.335,183.725 94.500 C 183.630 94.665,183.650 94.800,183.769 94.800 C 183.888 94.800,185.904 90.885,188.248 86.100 C 190.592 81.315,192.586 77.265,192.679 77.100 C 192.771 76.935,192.738 76.800,192.606 76.800 C 192.473 76.800,190.459 80.715,188.131 85.500 M181.089 99.776 C 178.595 104.731,178.667 104.671,174.609 105.236 C 173.064 105.450,170.630 105.801,169.200 106.015 C 165.238 106.608,160.874 107.222,158.083 107.578 C 156.699 107.755,155.454 108.013,155.317 108.150 C 154.984 108.483,155.725 108.455,158.600 108.025 C 161.434 107.602,168.494 106.584,173.000 105.949 C 179.201 105.076,178.709 105.418,181.323 100.165 C 182.598 97.604,183.581 95.448,183.507 95.374 C 183.433 95.300,182.345 97.281,181.089 99.776 M150.200 108.821 C 149.672 109.062,150.216 109.104,151.800 108.943 C 153.120 108.809,154.275 108.632,154.367 108.550 C 154.721 108.231,150.956 108.476,150.200 108.821 M246.033 108.550 C 246.125 108.632,247.280 108.809,248.600 108.943 C 250.184 109.104,250.728 109.062,250.200 108.821 C 249.444 108.476,245.679 108.231,246.033 108.550 M144.600 109.600 C 143.517 110.065,145.041 110.076,147.600 109.620 L 149.400 109.300 147.400 109.278 C 146.300 109.266,145.040 109.411,144.600 109.600 M254.000 109.753 C 258.152 110.482,261.811 110.877,261.496 110.563 C 261.204 110.271,257.093 109.684,253.400 109.407 C 251.037 109.229,251.046 109.235,254.000 109.753 M139.400 110.421 C 138.872 110.662,139.416 110.704,141.000 110.543 C 142.320 110.409,143.475 110.232,143.567 110.150 C 143.921 109.831,140.156 110.076,139.400 110.421 M133.800 111.200 L 133.000 111.544 133.800 111.549 C 134.240 111.552,135.320 111.405,136.200 111.223 L 137.800 110.892 136.200 110.874 C 135.320 110.864,134.240 111.011,133.800 111.200 M262.433 110.950 C 262.525 111.032,263.680 111.209,265.000 111.343 C 266.584 111.504,267.128 111.462,266.600 111.221 C 265.844 110.876,262.079 110.631,262.433 110.950 M131.844 111.929 C 131.732 112.110,133.161 113.771,135.020 115.620 C 136.879 117.469,138.400 118.827,138.400 118.638 C 138.400 118.448,136.945 116.897,135.166 115.191 C 133.066 113.177,132.119 112.015,132.466 111.876 C 132.815 111.737,132.834 111.652,132.524 111.632 C 132.262 111.614,131.956 111.748,131.844 111.929 M267.762 111.938 C 267.877 112.125,266.043 114.129,263.686 116.394 C 233.884 145.021,233.639 145.297,234.816 148.800 C 235.033 149.446,235.075 148.951,234.935 147.400 L 234.719 145.000 237.860 142.025 C 254.615 126.154,269.022 111.600,267.976 111.600 C 267.743 111.600,267.647 111.752,267.762 111.938 M138.800 118.920 C 138.800 119.090,142.893 123.228,147.897 128.115 C 152.900 133.002,158.930 138.896,161.297 141.214 C 163.663 143.532,165.600 145.323,165.600 145.194 C 165.600 145.065,161.955 141.376,157.500 136.997 C 153.045 132.618,147.015 126.690,144.100 123.823 C 141.185 120.957,138.800 118.750,138.800 118.920 M164.982 147.782 C 164.829 148.802,164.802 149.735,164.922 149.855 C 165.042 149.975,165.265 149.239,165.418 148.218 C 165.571 147.198,165.598 146.265,165.478 146.145 C 165.358 146.025,165.135 146.761,164.982 147.782 M235.287 151.200 C 235.283 151.970,235.424 153.050,235.600 153.600 C 236.048 154.999,236.048 152.761,235.600 151.000 L 235.295 149.800 235.287 151.200 M164.289 151.600 C 164.136 152.150,164.027 153.140,164.046 153.800 C 164.077 154.892,164.114 154.858,164.452 153.411 C 164.875 151.606,164.731 150.011,164.289 151.600 M236.080 156.200 C 236.080 156.860,236.224 157.850,236.400 158.400 C 236.711 159.372,236.720 159.367,236.720 158.200 C 236.720 157.540,236.576 156.550,236.400 156.000 C 236.089 155.028,236.080 155.033,236.080 156.200 M163.489 156.400 C 163.336 156.950,163.227 157.940,163.246 158.600 C 163.277 159.692,163.314 159.658,163.652 158.211 C 164.075 156.406,163.931 154.811,163.489 156.400 M236.868 160.800 C 236.887 162.450,237.517 164.156,237.532 162.600 C 237.538 161.940,237.389 161.040,237.200 160.600 C 236.887 159.873,236.857 159.891,236.868 160.800 M162.673 160.953 C 162.523 161.345,162.418 162.236,162.440 162.933 C 162.479 164.167,162.490 164.159,162.849 162.627 C 163.245 160.937,163.124 159.779,162.673 160.953 M237.675 165.600 C 237.686 166.150,237.832 167.140,238.000 167.800 L 238.305 169.000 238.325 167.600 C 238.335 166.830,238.189 165.840,238.000 165.400 C 237.688 164.674,237.658 164.693,237.675 165.600 M161.873 165.753 C 161.723 166.145,161.618 167.036,161.640 167.733 C 161.679 168.967,161.690 168.959,162.049 167.427 C 162.445 165.737,162.324 164.579,161.873 165.753 M238.475 170.000 C 238.486 170.550,238.632 171.540,238.800 172.200 L 239.105 173.400 239.125 172.000 C 239.135 171.230,238.989 170.240,238.800 169.800 C 238.488 169.074,238.458 169.093,238.475 170.000 M161.089 170.400 C 160.936 170.950,160.827 171.940,160.846 172.600 C 160.877 173.692,160.914 173.658,161.252 172.211 C 161.675 170.406,161.531 168.811,161.089 170.400 M197.061 171.446 C 195.994 172.001,195.198 172.531,195.290 172.624 C 195.473 172.806,199.600 170.834,199.600 170.564 C 199.600 170.236,198.961 170.457,197.061 171.446 M200.433 170.546 C 201.016 171.059,207.748 174.385,207.899 174.235 C 208.081 174.052,201.074 170.400,200.541 170.400 C 200.390 170.400,200.342 170.466,200.433 170.546 M239.275 174.800 C 239.286 175.350,239.432 176.340,239.600 177.000 L 239.905 178.200 239.925 176.800 C 239.935 176.030,239.789 175.040,239.600 174.600 C 239.288 173.874,239.258 173.893,239.275 174.800 M160.249 175.015 C 160.112 175.373,160.021 176.416,160.047 177.333 C 160.093 178.984,160.097 178.979,160.452 176.839 C 160.812 174.670,160.715 173.801,160.249 175.015 M208.400 174.583 C 208.400 174.670,208.895 174.999,209.500 175.315 C 210.105 175.630,211.590 176.421,212.800 177.073 C 214.010 177.725,217.520 179.574,220.600 181.181 C 223.680 182.789,226.979 184.546,227.931 185.087 C 228.884 185.628,229.746 185.987,229.849 185.885 C 229.951 185.783,228.902 185.111,227.517 184.392 C 226.133 183.673,223.650 182.371,222.000 181.498 C 220.350 180.625,217.110 178.914,214.800 177.696 C 212.490 176.477,210.420 175.355,210.200 175.202 C 209.650 174.820,208.400 174.390,208.400 174.583 M187.395 176.555 C 183.436 178.704,169.550 186.004,166.060 187.770 C 164.883 188.366,164.004 188.937,164.105 189.038 C 164.207 189.140,165.440 188.616,166.845 187.873 C 169.942 186.237,177.229 182.407,182.400 179.698 C 191.146 175.117,190.190 175.657,189.961 175.428 C 189.866 175.333,188.711 175.841,187.395 176.555 M240.235 180.600 C 240.382 181.700,240.569 182.675,240.651 182.767 C 241.010 183.168,240.746 179.739,240.377 179.200 C 240.086 178.774,240.045 179.180,240.235 180.600 M159.473 179.753 C 159.323 180.145,159.220 181.126,159.244 181.933 L 159.288 183.400 159.642 181.600 C 160.022 179.670,159.922 178.583,159.473 179.753 M240.875 184.000 C 240.886 184.550,241.032 185.540,241.200 186.200 L 241.505 187.400 241.525 186.000 C 241.535 185.230,241.389 184.240,241.200 183.800 C 240.888 183.074,240.858 183.093,240.875 184.000 M158.673 184.153 C 158.523 184.545,158.420 185.526,158.444 186.333 L 158.488 187.800 158.842 186.000 C 159.222 184.070,159.122 182.983,158.673 184.153 M230.620 186.350 C 231.300 186.975,238.913 190.821,239.100 190.633 C 239.200 190.533,238.018 189.815,236.472 189.036 C 234.927 188.258,233.013 187.256,232.219 186.811 C 230.713 185.965,229.968 185.750,230.620 186.350 M157.781 189.360 C 157.641 190.108,157.588 191.038,157.663 191.427 C 157.816 192.218,158.800 192.723,158.800 192.010 C 158.800 191.758,158.600 191.676,158.355 191.828 C 158.038 192.024,157.992 191.515,158.193 190.051 C 158.507 187.770,158.182 187.225,157.781 189.360 M241.871 189.960 C 242.052 191.537,241.995 192.044,241.660 191.837 C 241.407 191.681,241.200 191.758,241.200 192.010 C 241.200 192.261,241.425 192.393,241.700 192.303 C 242.355 192.088,242.547 190.037,242.030 188.786 C 241.715 188.023,241.679 188.288,241.871 189.960 " stroke="none" fill="#f3eab0" fill-rule="evenodd"></path><path id="path5" d="M197.200 68.000 C 195.877 70.640,194.930 72.794,195.097 72.787 C 195.264 72.780,196.384 70.710,197.587 68.187 C 200.209 62.689,199.779 62.764,202.127 67.400 C 205.101 73.270,205.135 72.674,202.179 66.508 C 200.150 62.278,200.054 62.307,197.200 68.000 M193.878 74.605 C 193.512 75.372,193.346 76.000,193.509 76.000 C 193.866 76.000,194.960 73.626,194.715 73.382 C 194.621 73.287,194.244 73.838,193.878 74.605 M186.640 89.240 C 186.286 89.949,186.074 90.607,186.169 90.702 C 186.264 90.797,186.638 90.301,187.000 89.600 C 187.362 88.899,187.574 88.241,187.471 88.138 C 187.368 88.035,186.994 88.531,186.640 89.240 M182.378 98.020 C 179.388 104.062,178.874 104.866,177.805 105.177 C 176.620 105.522,176.617 105.528,177.651 105.564 C 178.229 105.584,178.921 105.336,179.190 105.012 C 179.848 104.219,186.071 91.537,185.890 91.357 C 185.811 91.278,184.231 94.277,182.378 98.020 M216.416 96.300 C 216.510 98.086,221.128 105.408,222.200 105.472 C 222.933 105.516,223.088 105.460,222.600 105.329 C 221.206 104.954,220.716 104.297,218.699 100.100 C 216.896 96.348,216.372 95.477,216.416 96.300 M172.600 106.000 L 171.400 106.305 172.600 106.325 C 173.260 106.335,174.160 106.189,174.600 106.000 L 175.400 105.656 174.600 105.675 C 174.160 105.686,173.260 105.832,172.600 106.000 M225.800 106.000 C 226.240 106.189,227.140 106.335,227.800 106.325 L 229.000 106.305 227.800 106.000 C 227.140 105.832,226.240 105.686,225.800 105.675 L 225.000 105.656 225.800 106.000 M166.800 106.800 L 165.400 107.095 167.000 107.141 C 167.880 107.167,168.870 107.013,169.200 106.800 C 169.924 106.332,169.023 106.332,166.800 106.800 M231.200 106.800 C 231.530 107.013,232.430 107.169,233.200 107.147 L 234.600 107.105 233.400 106.800 C 231.524 106.323,230.461 106.323,231.200 106.800 M161.400 107.600 L 160.200 107.905 161.600 107.947 C 162.370 107.969,163.270 107.813,163.600 107.600 C 164.339 107.123,163.276 107.123,161.400 107.600 M236.600 107.600 C 237.040 107.789,238.030 107.935,238.800 107.925 L 240.200 107.905 239.000 107.600 C 237.203 107.143,235.536 107.143,236.600 107.600 M155.800 108.400 L 154.200 108.686 155.800 108.715 C 156.680 108.731,157.760 108.589,158.200 108.400 L 159.000 108.056 158.200 108.085 C 157.760 108.101,156.680 108.242,155.800 108.400 M242.200 108.386 C 242.957 108.725,246.321 108.964,245.967 108.654 C 245.875 108.574,244.810 108.400,243.600 108.268 C 242.163 108.112,241.678 108.152,242.200 108.386 M150.400 109.200 L 149.000 109.495 150.400 109.541 C 151.170 109.567,152.070 109.413,152.400 109.200 C 153.127 108.730,152.633 108.730,150.400 109.200 M247.794 109.191 C 247.933 109.416,248.787 109.600,249.690 109.600 C 251.710 109.600,251.556 109.397,249.271 109.046 C 248.131 108.872,247.627 108.921,247.794 109.191 M145.000 110.000 L 143.400 110.286 145.000 110.315 C 145.880 110.331,146.960 110.189,147.400 110.000 L 148.200 109.656 147.400 109.685 C 146.960 109.701,145.880 109.842,145.000 110.000 M253.000 109.980 C 253.761 110.326,256.717 110.564,256.367 110.251 C 256.275 110.169,255.300 109.993,254.200 109.859 C 252.854 109.695,252.461 109.735,253.000 109.980 M139.200 110.800 L 137.400 111.080 139.200 111.112 C 140.190 111.129,141.360 110.989,141.800 110.800 L 142.600 110.456 141.800 110.488 C 141.360 110.506,140.190 110.646,139.200 110.800 M258.600 110.800 C 259.040 110.989,260.120 111.136,261.000 111.126 L 262.600 111.108 261.000 110.777 C 260.120 110.595,259.040 110.448,258.600 110.451 L 257.800 110.456 258.600 110.800 M134.000 111.600 L 132.600 111.895 134.000 111.919 C 134.770 111.933,135.760 111.789,136.200 111.600 L 137.000 111.256 136.200 111.281 C 135.760 111.294,134.770 111.438,134.000 111.600 M264.000 111.577 C 264.330 111.803,265.302 111.991,266.160 111.994 L 267.720 112.000 265.015 114.600 C 263.528 116.030,262.466 117.198,262.655 117.196 C 263.226 117.189,268.099 112.107,267.736 111.897 C 267.001 111.471,263.393 111.162,264.000 111.577 M132.800 112.587 C 132.800 112.745,136.534 116.503,141.098 120.937 C 167.898 146.975,166.295 145.098,165.233 149.200 C 164.734 151.126,164.315 155.044,164.784 153.400 C 165.337 151.462,166.000 147.456,166.000 146.059 C 166.000 144.640,166.823 145.522,152.359 131.429 C 148.312 127.485,142.255 121.567,138.900 118.278 C 135.545 114.989,132.800 112.428,132.800 112.587 M254.600 124.676 C 250.640 128.555,244.385 134.678,240.700 138.282 C 233.210 145.608,233.525 145.001,234.617 150.000 C 235.214 152.734,235.203 152.186,234.552 146.800 L 234.334 145.000 240.667 138.800 C 244.150 135.390,250.446 129.225,254.658 125.100 C 258.870 120.975,262.200 117.605,262.058 117.611 C 261.916 117.617,258.560 120.796,254.600 124.676 M235.449 154.600 C 235.562 155.700,235.833 157.590,236.051 158.800 C 236.268 160.010,236.607 161.900,236.804 163.000 C 237.000 164.100,237.337 165.810,237.552 166.800 L 237.943 168.600 237.748 166.600 C 237.642 165.500,237.395 163.790,237.201 162.800 C 237.007 161.810,236.640 159.740,236.385 158.200 C 235.687 153.981,235.188 152.060,235.449 154.600 M164.067 155.650 C 164.030 156.228,163.905 157.308,163.789 158.050 C 163.596 159.286,163.615 159.317,164.008 158.414 C 164.245 157.871,164.370 156.791,164.286 156.014 C 164.177 154.992,164.116 154.891,164.067 155.650 M163.264 160.250 C 163.229 160.718,163.105 161.708,162.989 162.450 C 162.796 163.686,162.815 163.717,163.208 162.814 C 163.445 162.272,163.568 161.282,163.483 160.614 C 163.391 159.897,163.302 159.748,163.264 160.250 M162.467 164.850 C 162.430 165.428,162.305 166.508,162.189 167.250 C 161.996 168.486,162.015 168.517,162.408 167.614 C 162.645 167.071,162.770 165.991,162.686 165.214 C 162.577 164.192,162.516 164.091,162.467 164.850 M161.662 169.800 C 161.622 170.460,161.489 171.450,161.367 172.000 C 161.176 172.860,161.208 172.901,161.596 172.293 C 161.844 171.904,161.977 170.914,161.891 170.093 C 161.756 168.804,161.725 168.764,161.662 169.800 M238.028 170.033 C 238.044 170.785,238.220 171.760,238.420 172.200 C 238.665 172.739,238.705 172.346,238.541 171.000 C 238.251 168.619,237.989 168.124,238.028 170.033 M197.900 170.629 C 196.417 171.434,196.490 171.781,197.980 171.010 C 199.619 170.163,200.508 170.241,202.913 171.443 C 205.228 172.600,205.062 172.153,202.688 170.838 C 200.923 169.860,199.437 169.795,197.900 170.629 M193.600 172.860 C 192.390 173.515,191.220 174.244,191.000 174.480 C 190.644 174.863,195.954 172.177,196.367 171.766 C 196.840 171.295,195.553 171.803,193.600 172.860 M207.917 174.057 C 208.641 174.520,209.327 174.806,209.442 174.692 C 209.556 174.577,209.071 174.195,208.363 173.842 C 206.570 172.947,206.349 173.053,207.917 174.057 M238.806 174.633 C 238.809 175.495,238.988 176.470,239.203 176.800 C 239.470 177.210,239.514 176.765,239.341 175.400 C 239.025 172.905,238.798 172.581,238.806 174.633 M160.859 174.400 C 160.820 174.950,160.689 175.850,160.567 176.400 C 160.376 177.262,160.408 177.302,160.797 176.691 C 161.046 176.302,161.177 175.402,161.089 174.691 C 160.964 173.687,160.913 173.622,160.859 174.400 M210.000 174.990 C 210.000 175.094,210.585 175.465,211.300 175.814 L 212.600 176.448 211.600 175.633 C 210.637 174.848,210.000 174.592,210.000 174.990 M184.000 178.033 L 183.000 178.848 184.300 178.214 C 185.015 177.865,185.600 177.494,185.600 177.390 C 185.600 176.992,184.963 177.248,184.000 178.033 M216.000 178.140 C 216.000 178.441,221.317 181.217,221.514 181.019 C 221.606 180.927,220.538 180.257,219.140 179.529 C 215.968 177.876,216.000 177.891,216.000 178.140 M239.606 179.433 C 239.609 180.295,239.797 181.270,240.023 181.600 C 240.314 182.026,240.355 181.620,240.165 180.200 C 239.831 177.703,239.598 177.384,239.606 179.433 M160.054 179.400 C 160.019 179.840,159.889 180.650,159.767 181.200 C 159.575 182.063,159.607 182.103,159.998 181.490 C 160.247 181.099,160.377 180.289,160.286 179.690 C 160.178 178.979,160.097 178.879,160.054 179.400 M181.065 179.447 C 180.440 179.786,180.015 180.148,180.120 180.253 C 180.224 180.357,180.915 180.074,181.655 179.623 C 183.213 178.673,182.748 178.535,181.065 179.447 M176.980 181.548 C 176.771 181.740,174.260 183.111,171.400 184.595 C 168.540 186.079,166.020 187.475,165.800 187.696 C 165.327 188.173,177.225 182.073,177.780 181.555 C 178.019 181.332,178.012 181.200,177.760 181.200 C 177.540 181.200,177.189 181.357,176.980 181.548 M223.820 182.352 C 224.382 182.873,236.269 188.957,235.800 188.484 C 235.580 188.262,233.060 186.867,230.200 185.386 C 227.340 183.904,224.829 182.536,224.620 182.346 C 224.411 182.156,224.060 182.000,223.840 182.000 C 223.588 182.000,223.581 182.131,223.820 182.352 M240.406 184.033 C 240.409 184.785,240.592 185.670,240.812 186.000 C 241.091 186.419,241.133 186.058,240.950 184.800 C 240.625 182.559,240.398 182.240,240.406 184.033 M159.259 183.800 C 159.220 184.240,159.077 185.050,158.940 185.600 C 158.748 186.370,158.802 186.497,159.175 186.151 C 159.444 185.901,159.585 185.103,159.493 184.351 C 159.402 183.608,159.297 183.360,159.259 183.800 M241.393 189.100 C 241.588 191.516,241.670 191.451,239.765 190.380 C 238.963 189.930,238.236 189.631,238.151 189.716 C 238.066 189.801,238.897 190.361,239.998 190.960 L 242.000 192.050 241.977 191.125 C 241.964 190.616,241.790 189.480,241.589 188.600 C 241.240 187.066,241.232 187.086,241.393 189.100 M158.396 188.300 C 158.393 188.685,158.276 189.698,158.135 190.550 L 157.879 192.100 161.557 190.201 C 163.580 189.156,165.162 188.228,165.073 188.139 C 164.984 188.050,163.542 188.702,161.869 189.589 C 160.197 190.475,158.754 191.200,158.663 191.200 C 158.573 191.200,158.590 190.390,158.701 189.400 C 158.813 188.410,158.791 187.600,158.652 187.600 C 158.513 187.600,158.398 187.915,158.396 188.300 " stroke="none" fill="#fce481" fill-rule="evenodd"></path><path id="path6" d="M190.200 39.401 C 184.664 39.982,183.949 40.107,177.200 41.674 C 174.593 42.279,171.085 43.326,169.400 44.001 C 168.960 44.178,167.520 44.721,166.200 45.208 C 162.637 46.523,156.265 49.598,156.538 49.871 C 156.668 50.002,157.228 49.812,157.781 49.449 C 161.521 46.999,174.300 42.527,181.200 41.254 C 182.410 41.031,184.390 40.666,185.600 40.443 C 193.982 38.902,205.873 38.892,214.300 40.419 C 221.858 41.789,222.190 41.868,228.000 43.651 C 252.410 51.144,272.027 68.062,284.062 92.000 C 285.555 94.970,286.781 97.220,286.785 97.000 C 286.798 96.311,282.625 87.949,280.596 84.600 C 276.470 77.789,270.623 70.350,265.841 65.826 C 263.611 63.715,260.172 60.613,259.377 59.995 C 238.412 43.683,215.215 36.777,190.200 39.401 M152.400 51.832 C 134.718 62.524,119.103 80.636,112.770 97.800 C 112.607 98.240,112.167 99.410,111.790 100.400 C 111.414 101.390,110.932 102.740,110.720 103.400 C 109.874 106.029,108.658 110.724,108.027 113.800 C 107.756 115.120,107.382 116.920,107.196 117.800 C 107.010 118.680,106.764 121.110,106.649 123.200 C 106.496 125.994,106.533 126.523,106.791 125.200 C 106.983 124.210,107.154 122.611,107.170 121.646 C 107.187 120.682,107.366 119.242,107.569 118.446 C 107.771 117.651,108.145 115.740,108.399 114.200 C 108.653 112.660,109.006 110.950,109.184 110.400 C 109.362 109.850,109.735 108.590,110.014 107.600 C 116.559 84.356,133.434 62.541,153.059 51.955 C 155.554 50.609,156.414 49.994,155.780 50.009 C 155.571 50.014,154.050 50.834,152.400 51.832 M286.800 97.765 C 286.800 97.882,287.347 99.467,288.015 101.288 C 288.683 103.110,289.388 105.230,289.582 106.000 C 292.055 115.813,292.385 117.513,293.190 124.627 C 294.534 136.512,292.407 152.517,287.770 165.400 C 287.581 165.925,287.617 166.062,287.874 165.800 C 288.234 165.432,289.196 162.743,290.019 159.800 C 290.204 159.140,290.559 157.880,290.808 157.000 C 294.220 144.939,294.874 128.377,292.426 116.000 C 291.549 111.562,291.231 110.109,290.851 108.800 C 290.628 108.030,290.278 106.770,290.075 106.000 C 289.871 105.230,289.302 103.520,288.811 102.200 C 288.320 100.880,287.825 99.392,287.711 98.894 C 287.530 98.101,286.800 97.196,286.800 97.765 M106.157 132.800 C 106.157 135.770,106.220 136.985,106.297 135.500 C 106.374 134.015,106.374 131.585,106.297 130.100 C 106.220 128.615,106.157 129.830,106.157 132.800 M106.657 142.400 C 106.768 144.490,107.010 146.920,107.196 147.800 C 107.382 148.680,107.756 150.480,108.027 151.800 C 108.464 153.931,108.854 155.521,109.987 159.800 C 110.356 161.194,111.493 164.639,111.967 165.800 C 115.537 174.553,117.505 178.302,122.251 185.400 C 123.869 187.820,125.690 190.367,126.297 191.061 C 126.904 191.754,128.025 193.087,128.789 194.023 C 133.267 199.509,140.752 206.131,147.800 210.841 C 152.103 213.716,163.068 219.608,164.086 219.592 C 164.369 219.587,162.170 218.368,159.200 216.883 C 142.257 208.409,127.765 195.157,119.684 180.747 C 114.787 172.015,112.096 165.697,109.998 158.000 C 109.728 157.010,109.367 155.750,109.196 155.200 C 108.633 153.395,107.505 146.891,106.836 141.600 L 106.457 138.600 106.657 142.400 M285.111 171.504 C 282.704 176.817,282.198 178.555,284.297 174.299 C 286.346 170.145,287.641 167.121,287.517 166.777 C 287.453 166.598,286.370 168.725,285.111 171.504 M281.339 179.100 C 279.704 181.939,275.654 187.968,274.085 189.900 C 273.325 190.835,272.860 191.598,273.052 191.596 C 273.410 191.591,277.410 186.288,279.220 183.418 C 280.976 180.634,282.868 177.200,282.646 177.200 C 282.529 177.200,281.941 178.055,281.339 179.100 M271.404 193.300 C 265.475 200.522,254.135 209.852,245.800 214.366 C 243.460 215.634,242.369 216.400,242.906 216.400 C 243.244 216.400,250.147 212.420,252.003 211.155 C 259.438 206.088,268.977 197.440,272.323 192.735 C 273.192 191.513,272.544 191.911,271.404 193.300 M239.600 217.600 C 238.390 218.239,237.530 218.771,237.688 218.781 C 238.107 218.809,242.400 216.811,242.400 216.588 C 242.400 216.224,241.780 216.448,239.600 217.600 M233.400 220.166 C 224.135 223.895,210.713 226.401,200.000 226.401 C 189.691 226.401,177.157 224.137,167.641 220.555 C 166.231 220.024,164.989 219.678,164.881 219.785 C 164.774 219.893,165.026 220.092,165.443 220.227 C 165.859 220.362,166.560 220.624,167.000 220.810 C 168.028 221.243,172.081 222.549,174.400 223.193 C 175.390 223.468,176.650 223.833,177.200 224.004 C 178.182 224.309,180.737 224.831,184.900 225.576 C 196.504 227.654,211.252 227.040,222.800 223.998 C 225.666 223.243,230.226 221.908,231.000 221.598 C 231.440 221.422,232.880 220.872,234.200 220.377 C 235.520 219.881,236.771 219.323,236.980 219.138 C 237.625 218.565,236.763 218.812,233.400 220.166 " stroke="none" fill="#f3c7c6" fill-rule="evenodd"></path><path id="path7" d="M189.400 39.180 C 188.935 39.368,189.773 39.426,191.400 39.319 C 195.058 39.078,195.616 38.864,192.600 38.860 C 191.280 38.858,189.840 39.002,189.400 39.180 M205.400 38.999 C 206.309 39.307,211.348 39.482,210.600 39.180 C 210.160 39.002,208.720 38.858,207.400 38.860 C 206.080 38.862,205.180 38.924,205.400 38.999 M183.790 40.016 C 183.621 40.289,183.923 40.338,184.666 40.160 C 186.199 39.792,186.344 39.600,185.090 39.600 C 184.517 39.600,183.932 39.787,183.790 40.016 M214.033 39.744 C 214.125 39.823,214.740 40.008,215.400 40.156 C 216.276 40.352,216.438 40.315,216.000 40.018 C 215.460 39.653,213.632 39.398,214.033 39.744 M179.800 40.800 C 179.508 41.273,179.899 41.273,181.000 40.800 C 181.771 40.469,181.769 40.455,180.924 40.428 C 180.442 40.413,179.936 40.580,179.800 40.800 M219.000 40.800 C 220.101 41.273,220.492 41.273,220.200 40.800 C 220.064 40.580,219.558 40.413,219.076 40.428 C 218.231 40.455,218.229 40.469,219.000 40.800 M157.500 48.677 C 156.456 49.258,155.661 49.794,155.735 49.868 C 155.808 49.942,156.843 49.465,158.034 48.808 C 159.225 48.152,160.020 47.616,159.800 47.617 C 159.580 47.618,158.545 48.095,157.500 48.677 M240.033 47.752 C 240.441 48.124,244.400 49.993,244.400 49.813 C 244.400 49.588,240.580 47.600,240.147 47.600 C 239.993 47.600,239.942 47.668,240.033 47.752 M153.100 51.029 C 151.605 51.840,151.696 52.178,153.200 51.400 C 153.860 51.059,154.400 50.694,154.400 50.590 C 154.400 50.332,154.357 50.347,153.100 51.029 M245.600 50.579 C 245.600 50.689,246.140 51.059,246.800 51.400 C 247.460 51.741,248.000 51.931,248.000 51.821 C 248.000 51.711,247.460 51.341,246.800 51.000 C 246.140 50.659,245.600 50.469,245.600 50.579 M248.400 52.112 C 248.400 52.366,253.455 55.600,253.853 55.600 C 254.036 55.600,253.559 55.184,252.793 54.675 C 250.477 53.136,248.400 51.924,248.400 52.112 M146.629 55.009 C 146.205 55.329,145.938 55.671,146.035 55.769 C 146.132 55.866,146.659 55.602,147.206 55.182 C 147.753 54.761,148.020 54.420,147.800 54.422 C 147.580 54.424,147.053 54.688,146.629 55.009 M135.168 64.518 C 132.842 66.688,128.568 71.201,128.842 71.198 C 128.929 71.197,130.966 69.217,133.369 66.798 C 138.040 62.096,138.805 61.127,135.168 64.518 M263.815 63.840 C 266.151 66.096,267.769 67.470,267.466 66.941 C 267.322 66.689,266.078 65.537,264.702 64.381 C 263.238 63.152,262.870 62.928,263.815 63.840 M269.200 69.400 C 270.172 70.390,271.042 71.200,271.135 71.200 C 271.473 71.200,268.189 67.674,267.817 67.638 C 267.606 67.617,268.228 68.410,269.200 69.400 M122.198 79.602 C 121.798 80.044,121.566 80.499,121.682 80.615 C 121.797 80.730,122.190 80.369,122.555 79.812 C 123.352 78.596,123.193 78.502,122.198 79.602 M277.445 79.812 C 277.810 80.369,278.186 80.747,278.282 80.651 C 278.519 80.414,277.484 78.800,277.095 78.800 C 276.922 78.800,277.080 79.256,277.445 79.812 M117.482 87.300 C 115.500 90.871,113.925 94.059,114.073 94.201 C 114.143 94.269,115.322 92.181,116.694 89.562 C 119.320 84.548,119.845 83.041,117.482 87.300 M281.400 86.000 C 281.741 86.660,282.111 87.200,282.221 87.200 C 282.331 87.200,282.141 86.660,281.800 86.000 C 281.459 85.340,281.089 84.800,280.979 84.800 C 280.869 84.800,281.059 85.340,281.400 86.000 M284.282 91.389 C 284.873 92.593,285.423 93.511,285.505 93.429 C 285.684 93.249,283.667 89.200,283.398 89.200 C 283.294 89.200,283.692 90.185,284.282 91.389 M286.000 94.884 C 286.000 95.316,287.215 98.000,287.411 98.000 C 287.521 98.000,287.333 97.334,286.993 96.521 C 286.393 95.086,286.000 94.438,286.000 94.884 M107.867 112.667 C 107.720 112.813,107.611 113.308,107.625 113.767 C 107.649 114.533,107.682 114.523,108.034 113.642 C 108.426 112.663,108.344 112.189,107.867 112.667 M291.628 112.676 C 291.718 113.715,292.344 114.596,292.372 113.724 C 292.387 113.242,292.220 112.736,292.000 112.600 C 291.780 112.464,291.613 112.498,291.628 112.676 M107.067 116.667 C 106.920 116.813,106.815 117.398,106.834 117.967 C 106.868 118.981,106.875 118.979,107.221 117.820 C 107.585 116.603,107.531 116.202,107.067 116.667 M292.640 117.466 C 293.008 118.999,293.200 119.144,293.200 117.890 C 293.200 117.317,293.013 116.732,292.784 116.590 C 292.511 116.421,292.462 116.723,292.640 117.466 M106.256 122.484 C 106.121 122.988,106.035 124.390,106.064 125.600 C 106.115 127.685,106.132 127.643,106.403 124.800 C 106.704 121.637,106.662 120.971,106.256 122.484 M293.493 123.800 C 293.613 125.120,293.776 126.275,293.855 126.367 C 294.151 126.707,293.931 122.970,293.610 122.200 C 293.408 121.717,293.362 122.351,293.493 123.800 M106.060 140.200 C 106.058 141.520,106.202 142.960,106.380 143.400 C 106.568 143.865,106.626 143.027,106.519 141.400 C 106.278 137.742,106.064 137.184,106.060 140.200 M293.667 140.600 C 293.624 141.480,293.489 142.650,293.367 143.200 C 293.177 144.057,293.209 144.099,293.594 143.497 C 293.841 143.110,293.976 141.940,293.894 140.897 C 293.748 139.053,293.742 139.045,293.667 140.600 M106.800 147.710 C 106.800 148.283,106.987 148.868,107.216 149.010 C 107.489 149.179,107.538 148.877,107.360 148.134 C 106.992 146.601,106.800 146.456,106.800 147.710 M292.846 147.467 C 292.821 147.724,292.684 148.264,292.541 148.667 C 292.340 149.236,292.394 149.297,292.779 148.942 C 293.052 148.691,293.189 148.151,293.084 147.742 C 292.979 147.334,292.872 147.210,292.846 147.467 M107.628 151.876 C 107.613 152.358,107.780 152.864,108.000 153.000 C 108.473 153.292,108.473 152.901,108.000 151.800 C 107.669 151.029,107.655 151.031,107.628 151.876 M114.034 171.400 C 114.034 171.620,114.378 172.430,114.800 173.200 C 115.222 173.970,115.566 174.420,115.566 174.200 C 115.566 173.980,115.222 173.170,114.800 172.400 C 114.378 171.630,114.034 171.180,114.034 171.400 M116.400 176.400 C 116.849 177.280,117.306 178.000,117.416 178.000 C 117.526 178.000,117.249 177.280,116.800 176.400 C 116.351 175.520,115.894 174.800,115.784 174.800 C 115.674 174.800,115.951 175.520,116.400 176.400 M282.950 176.900 C 282.365 178.055,281.623 179.450,281.301 180.000 C 280.739 180.959,280.743 180.968,281.390 180.200 C 282.170 179.275,284.509 174.800,284.212 174.800 C 284.103 174.800,283.535 175.745,282.950 176.900 M119.213 181.456 C 119.231 181.944,120.357 183.376,120.561 183.171 C 120.655 183.077,120.387 182.575,119.966 182.056 C 119.545 181.536,119.206 181.266,119.213 181.456 M280.024 182.118 C 279.723 182.603,279.215 183.405,278.893 183.900 C 278.571 184.395,278.395 184.800,278.501 184.800 C 278.783 184.800,280.886 181.553,280.715 181.381 C 280.635 181.302,280.324 181.633,280.024 182.118 M120.800 183.728 C 120.800 183.901,121.250 184.705,121.800 185.514 C 122.350 186.323,122.800 186.844,122.800 186.672 C 122.800 186.499,122.350 185.695,121.800 184.886 C 121.250 184.077,120.800 183.556,120.800 183.728 M126.893 192.400 C 127.168 192.840,127.531 193.200,127.700 193.200 C 127.869 193.200,127.782 192.840,127.507 192.400 C 127.232 191.960,126.869 191.600,126.700 191.600 C 126.531 191.600,126.618 191.960,126.893 192.400 M272.493 192.400 C 272.218 192.840,272.131 193.200,272.300 193.200 C 272.469 193.200,272.832 192.840,273.107 192.400 C 273.382 191.960,273.469 191.600,273.300 191.600 C 273.131 191.600,272.768 191.960,272.493 192.400 M128.800 194.525 C 128.800 194.594,129.385 195.179,130.100 195.825 L 131.400 197.000 130.225 195.700 C 129.130 194.488,128.800 194.216,128.800 194.525 M266.400 199.400 C 265.428 200.390,264.723 201.200,264.833 201.200 C 264.943 201.200,265.828 200.390,266.800 199.400 C 267.772 198.410,268.477 197.600,268.367 197.600 C 268.257 197.600,267.372 198.410,266.400 199.400 M132.400 198.405 C 132.400 198.755,135.217 201.316,135.401 201.133 C 135.478 201.055,134.835 200.349,133.971 199.564 C 133.107 198.780,132.400 198.258,132.400 198.405 M135.635 201.700 C 135.728 201.755,136.433 202.340,137.202 203.000 L 138.600 204.200 137.425 202.900 C 136.779 202.185,136.074 201.600,135.858 201.600 C 135.643 201.600,135.543 201.645,135.635 201.700 M262.575 202.900 L 261.400 204.200 262.798 203.000 C 263.567 202.340,264.272 201.755,264.365 201.700 C 264.457 201.645,264.357 201.600,264.142 201.600 C 263.926 201.600,263.221 202.185,262.575 202.900 M146.624 210.587 C 147.051 210.910,147.580 211.175,147.800 211.175 C 148.020 211.175,147.851 210.910,147.424 210.587 C 146.996 210.264,146.467 210.000,146.247 210.000 C 146.027 210.000,146.196 210.264,146.624 210.587 M249.400 212.800 C 248.740 213.237,248.380 213.592,248.600 213.588 C 249.001 213.582,251.176 212.023,250.800 212.012 C 250.690 212.008,250.060 212.363,249.400 212.800 M152.000 213.779 C 152.000 213.889,152.540 214.259,153.200 214.600 C 153.860 214.941,154.400 215.131,154.400 215.021 C 154.400 214.911,153.860 214.541,153.200 214.200 C 152.540 213.859,152.000 213.669,152.000 213.779 M244.471 215.578 C 242.226 216.787,241.294 217.458,242.615 216.914 C 243.999 216.344,246.800 214.790,246.800 214.592 C 246.800 214.321,246.826 214.310,244.471 215.578 M156.400 216.198 C 156.400 216.466,161.249 218.885,161.428 218.706 C 161.508 218.625,160.410 217.985,158.987 217.283 C 157.564 216.582,156.400 216.093,156.400 216.198 M183.800 225.600 C 183.936 225.820,184.442 225.987,184.924 225.972 C 185.769 225.945,185.771 225.931,185.000 225.600 C 183.899 225.127,183.508 225.127,183.800 225.600 M215.000 225.600 C 214.229 225.931,214.231 225.945,215.076 225.972 C 215.558 225.987,216.064 225.820,216.200 225.600 C 216.492 225.127,216.101 225.127,215.000 225.600 M189.200 226.397 C 189.741 226.750,193.164 226.999,192.767 226.656 C 192.675 226.577,191.700 226.399,190.600 226.259 C 189.235 226.086,188.790 226.130,189.200 226.397 M208.600 226.400 L 207.000 226.686 208.600 226.737 C 209.480 226.765,210.470 226.613,210.800 226.400 C 211.515 225.938,211.181 225.938,208.600 226.400 " stroke="none" fill="#fbbbb7" fill-rule="evenodd"></path><path id="path8" d="M187.290 330.434 C 187.615 331.244,189.605 335.981,190.217 337.400 C 190.501 338.060,191.484 340.490,192.400 342.800 C 193.316 345.110,194.339 347.630,194.674 348.400 C 195.486 350.271,196.045 351.631,196.400 352.600 C 196.974 354.167,198.006 356.690,198.978 358.900 C 199.627 360.375,200.800 360.963,200.800 359.813 C 200.800 359.488,200.562 359.316,200.267 359.430 C 199.891 359.574,198.872 357.485,196.799 352.317 C 195.185 348.293,193.517 344.190,193.092 343.200 C 192.140 340.979,191.586 339.642,191.186 338.600 C 191.018 338.160,190.528 336.990,190.098 336.000 C 189.669 335.010,188.994 333.339,188.599 332.287 C 188.204 331.235,187.697 330.260,187.473 330.121 C 187.238 329.976,187.160 330.110,187.290 330.434 M212.113 330.900 C 211.902 331.175,211.132 332.930,210.403 334.800 C 209.674 336.670,208.925 338.371,208.739 338.580 C 208.552 338.789,208.400 339.196,208.400 339.484 C 208.400 339.773,208.065 340.772,207.657 341.704 C 205.060 347.628,200.777 358.510,200.968 358.701 C 201.182 358.915,202.400 356.135,202.400 355.431 C 202.400 355.172,202.552 354.789,202.739 354.580 C 202.925 354.371,203.673 352.670,204.400 350.800 C 205.127 348.930,205.875 347.229,206.061 347.020 C 206.248 346.811,206.400 346.404,206.400 346.116 C 206.400 345.827,206.778 344.738,207.240 343.696 C 207.702 342.653,208.223 341.440,208.399 341.000 C 208.575 340.560,208.991 339.570,209.323 338.800 C 210.571 335.913,212.733 330.400,212.618 330.400 C 212.552 330.400,212.325 330.625,212.113 330.900 " stroke="none" fill="#ecbcbc" fill-rule="evenodd"></path></g></svg>