<svg id="svg" version="1.1" xmlns="http://www.w3.org/2000/svg" xmlns:xlink="http://www.w3.org/1999/xlink" width="400" height="400" viewBox="0, 0, 400,400"><g id="svgg"><path id="path0" d="M180.700 0.274 C 178.775 0.360,177.200 0.604,177.200 0.816 C 177.200 1.027,176.120 1.200,174.800 1.200 C 173.467 1.200,172.400 1.378,172.400 1.600 C 172.400 1.820,171.500 2.000,170.400 2.000 C 169.300 2.000,168.400 2.180,168.400 2.400 C 168.400 2.620,167.500 2.800,166.400 2.800 C 165.300 2.800,164.400 2.980,164.400 3.200 C 164.400 3.420,163.680 3.600,162.800 3.600 C 161.920 3.600,161.200 3.780,161.200 4.000 C 161.200 4.220,160.570 4.400,159.800 4.400 C 159.030 4.400,158.400 4.580,158.400 4.800 C 158.400 5.020,157.781 5.200,157.024 5.200 C 156.267 5.200,155.536 5.380,155.400 5.600 C 155.264 5.820,154.623 6.000,153.976 6.000 C 153.329 6.000,152.800 6.180,152.800 6.400 C 152.800 6.620,152.361 6.800,151.824 6.800 C 151.287 6.800,150.736 6.980,150.600 7.200 C 150.464 7.420,150.003 7.600,149.576 7.600 C 149.149 7.600,148.800 7.780,148.800 8.000 C 148.800 8.220,148.356 8.400,147.814 8.400 C 146.829 8.400,143.533 9.341,142.400 9.945 C 142.070 10.121,140.945 10.515,139.900 10.820 C 138.855 11.125,138.000 11.515,138.000 11.687 C 138.000 11.859,137.640 12.000,137.200 12.000 C 136.760 12.000,136.400 12.180,136.400 12.400 C 136.400 12.620,136.040 12.800,135.600 12.800 C 135.160 12.800,134.800 12.980,134.800 13.200 C 134.800 13.420,134.440 13.600,134.000 13.600 C 133.560 13.600,133.200 13.780,133.200 14.000 C 133.200 14.220,132.840 14.400,132.400 14.400 C 131.960 14.400,131.600 14.580,131.600 14.800 C 131.600 15.020,131.240 15.200,130.800 15.200 C 130.360 15.200,130.000 15.380,130.000 15.600 C 130.000 15.820,129.550 16.000,129.000 16.000 C 128.450 16.000,128.000 16.180,128.000 16.400 C 128.000 16.620,127.640 16.800,127.200 16.800 C 126.760 16.800,126.400 16.980,126.400 17.200 C 126.400 17.420,126.080 17.600,125.688 17.600 C 125.297 17.600,124.717 17.960,124.400 18.400 C 124.083 18.840,123.503 19.200,123.112 19.200 C 122.720 19.200,122.400 19.380,122.400 19.600 C 122.400 19.820,122.080 20.000,121.688 20.000 C 121.297 20.000,120.717 20.360,120.400 20.800 C 120.083 21.240,119.503 21.600,119.112 21.600 C 118.720 21.600,118.400 21.780,118.400 22.000 C 118.400 22.220,118.080 22.400,117.688 22.400 C 117.297 22.400,116.717 22.760,116.400 23.200 C 116.083 23.640,115.503 24.000,115.112 24.000 C 114.720 24.000,114.400 24.180,114.400 24.400 C 114.400 24.620,114.129 24.800,113.798 24.800 C 113.229 24.800,108.407 27.962,107.271 29.080 C 106.981 29.366,106.598 29.600,106.422 29.600 C 106.245 29.600,105.413 30.230,104.572 31.000 C 103.731 31.770,102.881 32.400,102.682 32.400 C 102.484 32.400,101.817 32.940,101.200 33.600 C 100.583 34.260,99.897 34.800,99.674 34.800 C 99.452 34.800,98.173 35.880,96.832 37.200 C 95.492 38.520,94.313 39.600,94.213 39.600 C 93.655 39.600,80.400 52.629,80.400 53.177 C 80.400 53.380,79.545 54.425,78.500 55.499 C 77.455 56.573,76.150 58.114,75.600 58.923 C 75.050 59.733,74.465 60.396,74.300 60.397 C 74.135 60.399,74.000 60.643,74.000 60.941 C 74.000 61.238,73.460 62.046,72.800 62.737 C 72.140 63.428,71.600 64.148,71.600 64.337 C 71.600 64.526,71.060 65.246,70.400 65.937 C 69.740 66.628,69.200 67.348,69.200 67.537 C 69.200 67.726,68.660 68.446,68.000 69.137 C 67.340 69.828,66.800 70.582,66.800 70.813 C 66.800 71.044,66.440 71.620,66.000 72.092 C 65.560 72.564,65.200 73.187,65.200 73.475 C 65.200 73.764,65.020 74.000,64.800 74.000 C 64.580 74.000,64.400 74.193,64.400 74.428 C 64.400 74.663,63.860 75.641,63.200 76.600 C 62.540 77.559,62.000 78.537,62.000 78.772 C 62.000 79.007,61.858 79.200,61.684 79.200 C 61.510 79.200,60.867 80.187,60.257 81.393 C 59.646 82.599,58.978 83.690,58.773 83.817 C 58.568 83.943,58.400 84.476,58.400 85.000 C 58.400 85.524,58.220 86.064,58.000 86.200 C 57.780 86.336,57.600 86.797,57.600 87.224 C 57.600 87.651,57.420 88.000,57.200 88.000 C 56.980 88.000,56.800 88.360,56.800 88.800 C 56.800 89.240,56.620 89.600,56.400 89.600 C 56.180 89.600,56.000 89.960,56.000 90.400 C 56.000 90.840,55.854 91.200,55.675 91.200 C 55.496 91.200,55.102 91.830,54.800 92.600 C 54.498 93.370,54.104 94.000,53.925 94.000 C 53.746 94.000,53.600 94.360,53.600 94.800 C 53.600 95.240,53.420 95.600,53.200 95.600 C 52.980 95.600,52.800 95.960,52.800 96.400 C 52.800 96.840,52.620 97.200,52.400 97.200 C 52.180 97.200,52.000 97.740,52.000 98.400 C 52.000 99.060,51.820 99.600,51.600 99.600 C 51.380 99.600,51.200 100.140,51.200 100.800 C 51.200 101.460,51.020 102.000,50.800 102.000 C 50.580 102.000,50.400 102.349,50.400 102.776 C 50.400 103.203,50.220 103.664,50.000 103.800 C 49.780 103.936,49.600 104.487,49.600 105.024 C 49.600 105.561,49.420 106.000,49.200 106.000 C 48.980 106.000,48.800 106.540,48.800 107.200 C 48.800 107.860,48.620 108.400,48.400 108.400 C 48.180 108.400,48.000 108.850,48.000 109.400 C 48.000 109.950,47.820 110.400,47.600 110.400 C 47.380 110.400,47.200 110.940,47.200 111.600 C 47.200 112.260,47.020 112.800,46.800 112.800 C 46.580 112.800,46.400 113.329,46.400 113.976 C 46.400 114.623,46.220 115.264,46.000 115.400 C 45.780 115.536,45.600 116.267,45.600 117.024 C 45.600 117.781,45.420 118.400,45.200 118.400 C 44.980 118.400,44.800 119.019,44.800 119.776 C 44.800 120.533,44.620 121.264,44.400 121.400 C 44.180 121.536,44.000 122.346,44.000 123.200 C 44.000 124.054,43.820 124.864,43.600 125.000 C 43.380 125.136,43.200 125.869,43.200 126.629 C 43.200 127.389,43.038 128.323,42.840 128.705 C 42.359 129.632,41.517 136.480,41.303 141.200 C 41.208 143.290,40.966 145.171,40.765 145.380 C 40.301 145.863,40.278 172.800,40.743 172.800 C 40.931 172.800,41.201 174.645,41.342 176.900 C 41.562 180.411,41.997 184.046,43.064 191.303 C 43.185 192.129,43.445 192.905,43.642 193.026 C 43.839 193.148,44.000 193.957,44.000 194.824 C 44.000 195.691,44.162 196.400,44.360 196.400 C 44.558 196.400,44.819 197.165,44.941 198.100 C 45.380 201.463,45.694 202.800,46.044 202.800 C 46.240 202.800,46.400 203.329,46.400 203.976 C 46.400 204.623,46.580 205.264,46.800 205.400 C 47.020 205.536,47.200 206.177,47.200 206.824 C 47.200 207.471,47.380 208.000,47.600 208.000 C 47.820 208.000,48.000 208.540,48.000 209.200 C 48.000 209.860,48.180 210.400,48.400 210.400 C 48.620 210.400,48.800 210.940,48.800 211.600 C 48.800 212.260,48.980 212.800,49.200 212.800 C 49.420 212.800,49.600 213.340,49.600 214.000 C 49.600 214.660,49.780 215.200,50.000 215.200 C 50.220 215.200,50.400 215.560,50.400 216.000 C 50.400 216.440,50.580 216.800,50.800 216.800 C 51.020 216.800,51.200 217.340,51.200 218.000 C 51.200 218.660,51.380 219.200,51.600 219.200 C 51.820 219.200,52.000 219.560,52.000 220.000 C 52.000 220.440,52.180 220.800,52.400 220.800 C 52.620 220.800,52.800 221.149,52.800 221.576 C 52.800 222.003,52.980 222.464,53.200 222.600 C 53.420 222.736,53.600 223.197,53.600 223.624 C 53.600 224.051,53.780 224.400,54.000 224.400 C 54.220 224.400,54.400 224.760,54.400 225.200 C 54.400 225.640,54.580 226.000,54.800 226.000 C 55.020 226.000,55.200 226.458,55.200 227.017 C 55.200 227.576,55.560 228.420,56.000 228.892 C 56.440 229.364,56.800 229.987,56.800 230.275 C 56.800 230.564,56.980 230.800,57.200 230.800 C 57.420 230.800,57.600 231.160,57.600 231.600 C 57.600 232.040,57.780 232.400,58.000 232.400 C 58.220 232.400,58.400 232.702,58.400 233.070 C 58.400 233.940,61.167 239.570,62.089 240.575 C 62.480 241.002,62.800 241.504,62.800 241.692 C 62.800 241.880,63.160 242.420,63.600 242.892 C 64.040 243.364,64.400 243.987,64.400 244.275 C 64.400 244.564,64.580 244.800,64.800 244.800 C 65.020 244.800,65.200 245.036,65.200 245.325 C 65.200 245.613,65.560 246.236,66.000 246.708 C 66.440 247.180,66.800 247.804,66.800 248.095 C 66.800 248.386,67.160 248.883,67.600 249.200 C 68.040 249.517,68.400 250.057,68.400 250.400 C 68.400 250.743,68.760 251.283,69.200 251.600 C 69.640 251.917,70.000 252.407,70.000 252.688 C 70.000 252.970,70.180 253.200,70.400 253.200 C 70.620 253.200,70.800 253.398,70.800 253.640 C 70.800 253.881,71.340 254.583,72.000 255.200 C 72.660 255.817,73.200 256.519,73.200 256.760 C 73.200 257.002,73.380 257.200,73.600 257.200 C 73.820 257.200,74.000 257.470,74.000 257.800 C 74.000 258.130,74.175 258.400,74.390 258.400 C 74.604 258.400,75.039 258.895,75.357 259.500 C 75.675 260.105,76.579 261.298,77.367 262.150 C 78.155 263.003,78.800 263.833,78.800 263.995 C 78.800 264.158,79.925 265.448,81.300 266.863 C 82.675 268.278,84.314 270.116,84.943 270.947 C 86.245 272.669,88.279 274.723,89.542 275.588 C 90.014 275.912,90.400 276.401,90.400 276.675 C 90.400 277.155,91.663 278.704,94.207 281.347 C 94.870 282.036,95.856 283.230,96.397 284.000 C 96.938 284.770,98.420 286.425,99.690 287.678 C 100.961 288.931,102.000 290.064,102.000 290.197 C 102.000 290.330,103.260 291.681,104.800 293.200 C 106.340 294.719,107.602 296.105,107.605 296.281 C 107.612 296.702,109.777 299.314,111.900 301.460 C 112.835 302.405,113.600 303.275,113.600 303.393 C 113.600 303.961,118.265 308.800,118.813 308.800 C 119.026 308.800,119.200 309.052,119.200 309.359 C 119.200 309.666,120.550 311.299,122.200 312.987 C 123.850 314.675,125.200 316.196,125.200 316.367 C 125.200 316.862,128.945 321.102,134.300 326.668 C 135.895 328.326,137.200 329.854,137.200 330.063 C 137.200 330.273,138.235 331.470,139.500 332.723 C 140.765 333.976,142.305 335.746,142.922 336.655 C 143.540 337.564,145.025 339.243,146.222 340.386 C 147.420 341.529,148.400 342.627,148.400 342.826 C 148.400 343.024,149.750 344.537,151.400 346.187 C 153.050 347.837,154.400 349.352,154.400 349.553 C 154.400 349.754,155.255 350.800,156.300 351.876 C 157.345 352.952,158.917 354.726,159.794 355.817 C 160.671 356.907,162.206 358.610,163.205 359.600 C 164.204 360.590,165.463 362.030,166.001 362.800 C 166.540 363.570,168.020 365.225,169.290 366.478 C 170.561 367.731,171.600 368.946,171.600 369.178 C 171.600 369.410,171.780 369.600,172.000 369.600 C 172.220 369.600,172.400 369.779,172.400 369.997 C 172.400 370.215,173.658 371.700,175.195 373.297 C 176.732 374.894,177.992 376.332,177.995 376.493 C 177.998 376.654,179.170 377.955,180.600 379.385 C 182.030 380.815,183.200 382.150,183.200 382.352 C 183.200 382.553,184.505 384.074,186.100 385.731 C 187.695 387.388,189.720 389.573,190.600 390.586 C 196.014 396.819,198.030 398.800,198.963 398.800 C 199.277 398.800,199.609 399.025,199.701 399.300 C 200.047 400.335,212.183 399.973,213.114 398.900 C 213.543 398.405,214.104 398.000,214.360 398.000 C 214.909 398.000,217.600 395.393,217.600 394.862 C 217.600 394.661,218.320 393.755,219.200 392.848 C 220.080 391.941,220.800 391.101,220.800 390.981 C 220.800 390.862,221.254 390.310,221.808 389.756 C 222.362 389.202,223.126 388.265,223.505 387.674 C 224.376 386.315,224.782 385.795,225.900 384.599 C 226.395 384.070,226.800 383.448,226.800 383.219 C 226.800 382.989,227.520 382.059,228.400 381.152 C 229.280 380.245,230.000 379.327,230.000 379.112 C 230.000 378.897,230.540 378.217,231.200 377.600 C 231.860 376.983,232.400 376.314,232.400 376.112 C 232.400 375.910,232.805 375.377,233.300 374.929 C 234.326 374.000,235.600 372.486,235.600 372.196 C 235.600 372.089,236.320 371.259,237.200 370.352 C 238.080 369.445,238.800 368.546,238.800 368.353 C 238.800 368.160,239.430 367.334,240.200 366.518 C 240.970 365.701,241.600 364.787,241.600 364.485 C 241.600 364.184,242.320 363.246,243.200 362.400 C 244.080 361.554,244.800 360.672,244.800 360.438 C 244.800 360.205,245.429 359.335,246.199 358.507 C 249.063 355.420,250.400 353.835,250.400 353.522 C 250.400 353.346,251.120 352.459,252.000 351.552 C 252.880 350.645,253.600 349.739,253.600 349.538 C 253.600 349.338,254.230 348.543,255.000 347.773 C 255.770 347.003,256.400 346.208,256.400 346.005 C 256.400 345.802,256.827 345.210,257.348 344.688 C 259.732 342.305,261.688 335.600,260.000 335.600 C 259.780 335.600,259.600 335.317,259.600 334.971 C 259.600 332.716,252.655 331.689,250.544 333.632 C 249.638 334.466,243.177 342.326,240.514 345.833 C 240.026 346.475,239.269 347.450,238.830 348.000 C 238.392 348.550,234.688 353.230,230.600 358.400 C 222.315 368.877,222.583 368.539,221.200 370.243 C 220.650 370.921,219.660 372.169,219.000 373.018 C 217.494 374.954,211.347 382.724,210.461 383.812 C 210.098 384.258,209.113 385.473,208.273 386.512 C 206.153 389.135,205.855 389.022,201.357 383.900 C 199.184 381.425,196.660 378.590,195.747 377.600 C 194.835 376.610,193.577 375.170,192.951 374.400 C 192.326 373.630,190.982 372.100,189.966 371.000 C 188.950 369.900,187.422 368.190,186.572 367.200 C 185.721 366.210,184.209 364.493,183.212 363.385 C 182.215 362.277,180.855 360.747,180.190 359.985 C 179.524 359.223,177.473 356.890,175.630 354.800 C 173.788 352.710,169.834 348.210,166.845 344.800 C 163.855 341.390,160.757 337.880,159.961 337.000 C 159.164 336.120,156.935 333.600,155.007 331.400 C 153.079 329.200,150.383 326.140,149.015 324.600 C 147.647 323.060,145.824 320.992,144.964 320.004 C 144.104 319.017,143.220 318.013,143.000 317.774 C 142.780 317.534,141.520 316.101,140.200 314.588 C 137.907 311.959,135.157 308.865,132.033 305.400 C 131.240 304.520,128.079 300.920,125.008 297.400 C 121.937 293.880,119.329 290.910,119.212 290.800 C 119.096 290.690,117.652 289.070,116.006 287.200 C 114.359 285.330,112.915 283.710,112.797 283.600 C 112.680 283.490,110.073 280.520,107.004 277.000 C 103.936 273.480,101.329 270.510,101.212 270.400 C 101.094 270.290,99.109 268.041,96.799 265.401 C 94.490 262.762,92.094 260.062,91.475 259.401 C 90.108 257.941,79.960 245.229,79.400 244.274 C 79.180 243.899,77.451 241.209,75.557 238.296 C 72.264 233.232,66.533 222.606,65.040 218.800 C 64.289 216.884,63.800 215.735,62.447 212.704 C 61.981 211.662,61.600 210.624,61.600 210.399 C 61.600 210.174,61.436 209.677,61.235 209.295 C 60.843 208.548,57.904 199.240,57.226 196.600 C 53.403 181.703,51.805 165.343,52.751 150.800 C 53.001 146.950,53.386 142.630,53.604 141.200 C 53.823 139.770,54.281 136.710,54.622 134.400 C 55.293 129.854,58.184 118.076,59.579 114.200 C 60.055 112.880,60.713 110.990,61.042 110.000 C 61.371 109.010,61.793 107.840,61.980 107.400 C 62.166 106.960,62.539 105.970,62.807 105.200 C 64.753 99.607,75.724 78.856,77.611 77.200 C 77.736 77.090,78.277 76.370,78.814 75.600 C 79.350 74.830,80.002 73.930,80.263 73.600 C 80.525 73.270,82.007 71.308,83.558 69.241 C 87.763 63.633,95.381 55.415,101.220 50.188 C 114.194 38.572,125.685 31.137,142.600 23.412 C 143.920 22.809,147.340 21.510,150.200 20.526 C 153.060 19.542,155.760 18.583,156.200 18.395 C 158.433 17.440,171.855 14.255,176.400 13.602 C 178.050 13.364,180.480 12.998,181.800 12.788 C 191.171 11.295,210.778 11.473,220.800 13.141 C 222.010 13.342,224.350 13.711,226.000 13.960 C 230.226 14.597,232.442 15.122,243.000 17.980 C 249.833 19.830,266.521 27.036,273.000 30.933 C 280.098 35.204,282.988 37.118,288.400 41.138 C 291.810 43.670,296.040 47.093,297.800 48.745 C 299.560 50.396,301.900 52.593,303.000 53.626 C 304.841 55.356,309.880 60.744,313.263 64.600 C 315.051 66.638,318.250 70.820,319.995 73.400 C 320.739 74.500,321.458 75.490,321.593 75.600 C 321.973 75.909,323.420 78.048,324.300 79.600 C 324.736 80.370,326.044 82.530,327.206 84.400 C 329.474 88.048,336.800 102.797,336.800 103.714 C 336.800 104.018,336.918 104.384,337.062 104.528 C 337.297 104.764,338.608 108.343,340.237 113.200 C 340.569 114.190,340.989 115.360,341.171 115.800 C 341.353 116.240,341.721 117.590,341.988 118.800 C 342.256 120.010,342.631 121.540,342.822 122.200 C 344.178 126.876,344.852 130.217,346.028 138.107 C 348.306 153.383,347.679 176.549,344.667 188.400 C 344.359 189.610,343.887 191.770,343.617 193.200 C 343.347 194.630,342.977 196.250,342.795 196.800 C 342.613 197.350,341.886 199.690,341.179 202.000 C 338.872 209.534,338.152 211.554,336.400 215.400 C 335.983 216.315,335.258 218.040,334.788 219.232 C 333.449 222.633,327.764 233.392,325.641 236.545 C 324.583 238.115,323.410 239.998,323.034 240.729 C 322.229 242.292,315.433 251.305,308.621 259.842 C 305.969 263.165,303.324 266.495,302.743 267.242 C 301.598 268.712,297.007 274.536,295.207 276.800 C 294.595 277.570,291.598 281.350,288.547 285.200 C 281.824 293.684,273.342 304.377,272.682 305.201 C 272.417 305.532,271.570 306.611,270.800 307.600 C 270.030 308.589,269.184 309.668,268.919 309.999 C 261.052 319.832,260.483 321.146,262.725 324.294 C 263.206 324.970,263.600 325.734,263.600 325.990 C 263.600 327.096,264.780 327.600,267.371 327.600 C 268.857 327.600,270.000 327.426,270.000 327.200 C 270.000 326.980,270.278 326.800,270.618 326.800 C 271.332 326.800,272.520 325.674,274.205 323.400 C 274.858 322.520,275.708 321.509,276.096 321.153 C 276.483 320.797,276.800 320.324,276.800 320.101 C 276.800 319.879,277.520 318.955,278.400 318.048 C 279.280 317.141,280.000 316.205,280.000 315.968 C 280.000 315.731,280.720 314.846,281.600 314.000 C 282.480 313.154,283.200 312.263,283.200 312.018 C 283.200 311.773,283.785 310.973,284.500 310.240 C 285.868 308.836,286.163 308.487,288.406 305.613 C 289.172 304.631,290.205 303.373,290.700 302.817 C 291.195 302.262,291.600 301.603,291.600 301.352 C 291.600 301.102,292.320 300.155,293.200 299.248 C 294.080 298.341,294.800 297.405,294.800 297.168 C 294.800 296.931,295.520 296.046,296.400 295.200 C 297.280 294.354,298.000 293.461,298.000 293.215 C 298.000 292.969,298.720 292.083,299.600 291.246 C 300.480 290.409,301.200 289.582,301.200 289.409 C 301.200 289.236,301.524 288.803,301.919 288.447 C 302.314 288.091,303.077 287.170,303.615 286.400 C 304.152 285.630,305.088 284.478,305.696 283.841 C 306.303 283.203,306.800 282.520,306.800 282.322 C 306.800 282.125,307.205 281.530,307.700 281.001 C 309.218 279.377,309.600 278.852,309.600 278.386 C 309.600 278.139,310.320 277.246,311.200 276.400 C 312.080 275.554,312.800 274.741,312.800 274.592 C 312.800 274.443,313.340 273.817,314.000 273.200 C 314.660 272.583,315.200 271.881,315.200 271.640 C 315.200 271.398,315.380 271.200,315.600 271.200 C 315.820 271.200,316.000 271.002,316.000 270.760 C 316.000 270.519,316.540 269.817,317.200 269.200 C 317.860 268.583,318.400 267.903,318.400 267.688 C 318.400 267.473,319.120 266.555,320.000 265.648 C 320.880 264.741,321.600 263.864,321.601 263.700 C 321.601 263.535,322.152 262.770,322.824 262.000 C 323.496 261.230,324.310 260.105,324.633 259.500 C 324.956 258.895,325.396 258.400,325.610 258.400 C 325.825 258.400,326.000 258.130,326.000 257.800 C 326.000 257.470,326.180 257.200,326.400 257.200 C 326.620 257.200,326.800 257.002,326.800 256.760 C 326.800 256.519,327.340 255.817,328.000 255.200 C 328.660 254.583,329.200 253.908,329.200 253.699 C 329.200 253.490,329.740 252.754,330.400 252.063 C 331.060 251.372,331.600 250.575,331.600 250.292 C 331.600 250.009,331.960 249.517,332.400 249.200 C 332.840 248.883,333.200 248.386,333.200 248.095 C 333.200 247.804,333.560 247.180,334.000 246.708 C 334.440 246.236,334.800 245.613,334.800 245.325 C 334.800 245.036,334.980 244.800,335.200 244.800 C 335.420 244.800,335.600 244.480,335.600 244.088 C 335.600 243.697,335.960 243.117,336.400 242.800 C 336.840 242.483,337.200 242.071,337.200 241.884 C 337.200 241.697,337.706 240.792,338.325 239.872 C 339.764 237.734,341.600 233.915,341.600 233.060 C 341.600 232.697,341.780 232.400,342.000 232.400 C 342.220 232.400,342.400 232.040,342.400 231.600 C 342.400 231.160,342.580 230.800,342.800 230.800 C 343.020 230.800,343.200 230.440,343.200 230.000 C 343.200 229.560,343.380 229.200,343.600 229.200 C 343.820 229.200,344.000 228.840,344.000 228.400 C 344.000 227.960,344.180 227.600,344.400 227.600 C 344.620 227.600,344.800 227.240,344.800 226.800 C 344.800 226.360,344.935 225.999,345.100 225.997 C 345.459 225.993,346.400 224.056,346.400 223.320 C 346.400 223.034,346.580 222.800,346.800 222.800 C 347.020 222.800,347.200 222.350,347.200 221.800 C 347.200 221.250,347.380 220.800,347.600 220.800 C 347.820 220.800,348.000 220.451,348.000 220.024 C 348.000 219.597,348.180 219.136,348.400 219.000 C 348.620 218.864,348.800 218.313,348.800 217.776 C 348.800 217.239,348.980 216.800,349.200 216.800 C 349.420 216.800,349.600 216.440,349.600 216.000 C 349.600 215.560,349.780 215.200,350.000 215.200 C 350.220 215.200,350.400 214.660,350.400 214.000 C 350.400 213.340,350.580 212.800,350.800 212.800 C 351.020 212.800,351.200 212.260,351.200 211.600 C 351.200 210.940,351.380 210.400,351.600 210.400 C 351.820 210.400,352.000 209.860,352.000 209.200 C 352.000 208.540,352.180 208.000,352.400 208.000 C 352.620 208.000,352.800 207.370,352.800 206.600 C 352.800 205.830,352.980 205.200,353.200 205.200 C 353.420 205.200,353.600 204.660,353.600 204.000 C 353.600 203.340,353.780 202.800,354.000 202.800 C 354.220 202.800,354.400 202.271,354.400 201.624 C 354.400 200.977,354.580 200.336,354.800 200.200 C 355.020 200.064,355.200 199.254,355.200 198.400 C 355.200 197.546,355.380 196.736,355.600 196.600 C 355.820 196.464,356.000 195.654,356.000 194.800 C 356.000 193.946,356.180 193.136,356.400 193.000 C 356.620 192.864,356.800 192.079,356.800 191.256 C 356.800 190.433,356.963 189.589,357.161 189.380 C 357.589 188.931,357.853 186.961,358.511 179.330 C 358.780 176.212,359.135 173.527,359.300 173.363 C 359.768 172.901,359.670 146.891,359.200 146.600 C 358.980 146.464,358.790 144.878,358.778 143.076 C 358.758 139.903,358.361 135.968,357.563 131.000 C 357.350 129.680,357.074 127.880,356.947 127.000 C 356.821 126.120,356.556 125.229,356.359 125.020 C 356.162 124.811,356.000 123.956,356.000 123.120 C 356.000 122.284,355.820 121.600,355.600 121.600 C 355.380 121.600,355.200 120.880,355.200 120.000 C 355.200 119.120,355.020 118.400,354.800 118.400 C 354.580 118.400,354.400 117.781,354.400 117.024 C 354.400 116.267,354.220 115.536,354.000 115.400 C 353.780 115.264,353.600 114.544,353.600 113.800 C 353.600 113.056,353.420 112.336,353.200 112.200 C 352.980 112.064,352.800 111.513,352.800 110.976 C 352.800 110.439,352.620 110.000,352.400 110.000 C 352.180 110.000,352.000 109.561,352.000 109.024 C 352.000 108.487,351.820 107.936,351.600 107.800 C 351.380 107.664,351.200 107.203,351.200 106.776 C 351.200 106.349,351.020 106.000,350.800 106.000 C 350.580 106.000,350.400 105.460,350.400 104.800 C 350.400 104.140,350.220 103.600,350.000 103.600 C 349.780 103.600,349.600 103.060,349.600 102.400 C 349.600 101.740,349.420 101.200,349.200 101.200 C 348.980 101.200,348.800 100.761,348.800 100.224 C 348.800 99.687,348.620 99.136,348.400 99.000 C 348.180 98.864,348.000 98.403,348.000 97.976 C 348.000 97.549,347.820 97.200,347.600 97.200 C 347.380 97.200,347.200 96.840,347.200 96.400 C 347.200 95.960,347.020 95.600,346.800 95.600 C 346.580 95.600,346.400 95.150,346.400 94.600 C 346.400 94.050,346.220 93.600,346.000 93.600 C 345.780 93.600,345.600 93.240,345.600 92.800 C 345.600 92.360,345.420 92.000,345.200 92.000 C 344.980 92.000,344.800 91.640,344.800 91.200 C 344.800 90.760,344.620 90.400,344.400 90.400 C 344.180 90.400,344.000 90.040,344.000 89.600 C 344.000 89.160,343.820 88.800,343.600 88.800 C 343.380 88.800,343.200 88.440,343.200 88.000 C 343.200 87.560,343.020 87.200,342.800 87.200 C 342.580 87.200,342.400 86.840,342.400 86.400 C 342.400 85.960,342.220 85.600,342.000 85.600 C 341.780 85.600,341.600 85.303,341.600 84.940 C 341.600 84.101,339.538 80.000,339.116 80.000 C 338.942 80.000,338.800 79.807,338.800 79.572 C 338.800 79.337,338.260 78.359,337.600 77.400 C 336.940 76.441,336.400 75.463,336.400 75.228 C 336.400 74.993,336.220 74.800,336.000 74.800 C 335.780 74.800,335.600 74.480,335.600 74.088 C 335.600 73.697,335.240 73.117,334.800 72.800 C 334.360 72.483,334.000 71.943,334.000 71.600 C 334.000 71.257,333.640 70.717,333.200 70.400 C 332.760 70.083,332.400 69.591,332.400 69.308 C 332.400 69.025,331.860 68.228,331.200 67.537 C 330.540 66.846,330.000 66.078,330.000 65.829 C 330.000 65.580,329.640 65.117,329.200 64.800 C 328.760 64.483,328.400 63.993,328.400 63.712 C 328.400 63.430,328.220 63.200,328.000 63.200 C 327.780 63.200,327.600 62.970,327.600 62.688 C 327.600 62.407,327.240 61.917,326.800 61.600 C 326.360 61.283,326.000 60.876,326.000 60.695 C 326.000 60.355,325.576 59.789,324.191 58.281 C 323.747 57.796,322.940 56.770,322.400 56.000 C 321.859 55.230,320.240 53.430,318.800 52.000 C 317.360 50.570,315.743 48.770,315.205 48.000 C 314.014 46.296,313.861 46.144,311.600 44.402 C 310.610 43.640,308.540 41.748,307.000 40.198 C 305.460 38.648,303.570 36.937,302.800 36.395 C 302.030 35.852,300.878 34.912,300.241 34.304 C 299.603 33.697,298.926 33.200,298.737 33.200 C 298.548 33.200,297.828 32.660,297.137 32.000 C 296.446 31.340,295.726 30.800,295.537 30.800 C 295.348 30.800,294.628 30.260,293.937 29.600 C 293.246 28.940,292.547 28.400,292.383 28.400 C 292.219 28.400,291.545 27.896,290.886 27.281 C 290.227 26.665,288.948 25.828,288.044 25.420 C 287.140 25.012,286.400 24.526,286.400 24.339 C 286.400 24.153,286.040 24.000,285.600 24.000 C 285.160 24.000,284.800 23.820,284.800 23.600 C 284.800 23.380,284.564 23.200,284.275 23.200 C 283.987 23.200,283.364 22.840,282.892 22.400 C 282.420 21.960,281.838 21.600,281.600 21.600 C 281.362 21.600,280.780 21.240,280.308 20.800 C 279.836 20.360,279.213 20.000,278.925 20.000 C 278.636 20.000,278.400 19.820,278.400 19.600 C 278.400 19.380,278.040 19.200,277.600 19.200 C 277.160 19.200,276.800 19.020,276.800 18.800 C 276.800 18.580,276.440 18.400,276.000 18.400 C 275.560 18.400,275.200 18.254,275.200 18.075 C 275.200 17.896,274.570 17.502,273.800 17.200 C 273.030 16.898,272.400 16.504,272.400 16.325 C 272.400 16.146,272.040 16.000,271.600 16.000 C 271.160 16.000,270.800 15.820,270.800 15.600 C 270.800 15.380,270.440 15.200,270.000 15.200 C 269.560 15.200,269.200 15.020,269.200 14.800 C 269.200 14.580,268.840 14.400,268.400 14.400 C 267.960 14.400,267.600 14.220,267.600 14.000 C 267.600 13.780,267.240 13.600,266.800 13.600 C 266.360 13.600,266.000 13.420,266.000 13.200 C 266.000 12.980,265.735 12.800,265.412 12.800 C 265.089 12.800,264.183 12.440,263.400 12.000 C 262.617 11.560,261.621 11.200,261.188 11.200 C 260.755 11.200,260.400 11.020,260.400 10.800 C 260.400 10.580,259.980 10.400,259.467 10.400 C 258.953 10.400,258.414 10.281,258.268 10.135 C 257.809 9.676,253.873 8.400,252.915 8.400 C 252.412 8.400,252.000 8.220,252.000 8.000 C 252.000 7.780,251.460 7.600,250.800 7.600 C 250.140 7.600,249.600 7.420,249.600 7.200 C 249.600 6.980,249.060 6.800,248.400 6.800 C 247.740 6.800,247.200 6.620,247.200 6.400 C 247.200 6.180,246.581 6.000,245.824 6.000 C 245.067 6.000,244.336 5.820,244.200 5.600 C 244.064 5.380,243.423 5.200,242.776 5.200 C 242.129 5.200,241.600 5.020,241.600 4.800 C 241.600 4.580,240.981 4.400,240.224 4.400 C 239.467 4.400,238.736 4.220,238.600 4.000 C 238.464 3.780,237.733 3.600,236.976 3.600 C 236.219 3.600,235.600 3.420,235.600 3.200 C 235.600 2.980,234.700 2.800,233.600 2.800 C 232.500 2.800,231.600 2.620,231.600 2.400 C 231.600 2.178,230.533 2.000,229.200 2.000 C 227.867 2.000,226.800 1.822,226.800 1.600 C 226.800 1.379,225.760 1.200,224.480 1.200 C 223.196 1.200,221.944 0.984,221.675 0.715 C 221.193 0.233,189.253 -0.111,180.700 0.274 M197.533 70.142 C 196.726 70.394,195.931 70.735,195.766 70.900 C 195.601 71.065,195.178 71.200,194.824 71.200 C 194.471 71.200,190.406 73.109,185.791 75.441 C 181.176 77.774,169.570 83.631,160.000 88.457 C 140.695 98.192,140.000 98.658,140.000 101.887 C 140.000 105.286,142.207 107.651,145.426 107.700 C 147.365 107.729,145.101 108.817,184.330 89.009 L 200.060 81.067 203.530 81.084 C 207.759 81.105,204.028 79.455,239.000 96.775 C 254.620 104.511,271.490 112.856,276.490 115.320 C 281.489 117.784,285.533 119.954,285.476 120.142 C 285.419 120.330,277.458 124.480,267.786 129.365 C 258.114 134.249,240.599 143.095,228.864 149.023 L 207.527 159.800 203.852 159.800 L 200.177 159.800 189.095 154.315 C 180.490 150.057,178.066 148.693,178.249 148.215 C 178.379 147.877,178.602 147.600,178.745 147.600 C 178.888 147.600,179.728 146.925,180.613 146.100 C 181.498 145.275,183.657 143.345,185.411 141.811 C 187.165 140.277,189.507 138.207,190.615 137.211 C 191.723 136.215,193.254 134.860,194.017 134.200 C 203.888 125.663,206.699 122.918,207.236 121.290 C 208.410 117.733,205.623 114.000,201.794 114.000 C 199.672 114.000,199.138 114.349,192.800 119.872 C 192.250 120.351,191.421 121.071,190.958 121.472 C 189.570 122.674,177.818 133.068,172.159 138.100 C 169.252 140.685,166.628 142.800,166.328 142.800 C 165.836 142.800,160.633 140.263,130.900 125.528 C 120.974 120.609,121.292 120.879,123.900 119.578 C 130.993 116.042,132.491 111.751,127.863 108.221 C 125.483 106.406,123.955 106.719,116.272 110.593 C 106.736 115.402,105.600 116.494,105.600 120.854 C 105.600 125.608,106.334 126.191,122.100 133.955 L 134.400 140.012 134.400 160.142 C 134.400 184.432,134.511 185.176,138.982 190.982 C 142.064 194.983,148.799 200.083,153.500 201.974 C 155.011 202.582,155.077 203.002,154.026 205.304 C 152.623 208.378,152.404 210.116,152.404 218.200 C 152.403 228.064,153.461 230.394,157.946 230.399 C 162.420 230.403,163.320 228.509,163.585 218.529 C 163.859 208.254,164.831 206.530,169.655 207.775 C 173.239 208.700,173.600 209.718,173.601 218.919 C 173.603 228.008,174.360 229.695,178.697 230.277 C 183.296 230.894,184.554 228.542,184.800 218.872 L 185.000 211.000 189.800 211.183 C 200.924 211.607,213.513 211.271,218.800 210.409 C 220.010 210.212,222.350 209.849,224.000 209.603 C 242.370 206.864,258.233 199.606,264.945 190.868 C 271.928 181.777,271.401 169.600,264.024 169.600 C 260.126 169.600,258.787 171.314,258.358 176.853 C 258.045 180.894,257.807 181.564,255.733 184.227 C 246.849 195.635,208.750 203.413,184.200 198.830 C 183.100 198.625,180.702 198.230,178.872 197.952 C 173.716 197.169,174.221 199.203,174.064 178.588 C 173.989 168.672,174.085 160.555,174.279 160.361 C 174.480 160.160,178.553 161.957,183.815 164.568 C 196.284 170.755,197.796 171.271,203.600 171.315 C 210.582 171.368,209.469 171.846,248.963 151.837 C 258.916 146.794,258.000 146.917,258.000 150.623 C 258.000 157.008,259.887 160.000,263.915 160.000 C 268.354 160.000,269.599 157.496,269.599 148.562 C 269.600 140.337,268.273 141.890,280.600 135.694 C 297.460 127.220,298.979 126.398,300.099 125.134 C 302.819 122.065,302.394 116.751,299.215 114.084 C 298.611 113.578,285.794 107.177,242.400 85.713 C 213.547 71.441,213.399 71.370,210.434 70.421 C 207.514 69.487,200.143 69.327,197.533 70.142 M154.355 149.977 L 162.302 153.955 162.600 173.209 C 162.812 186.881,162.772 192.588,162.464 192.896 C 160.789 194.571,148.272 185.631,146.482 181.481 C 146.002 180.366,145.732 146.000,146.204 146.000 C 146.316 146.000,149.984 147.790,154.355 149.977 " stroke="none" fill="#040506" fill-rule="evenodd"></path><path id="path1" d="M191.000 12.607 C 187.040 12.901,182.450 13.343,180.800 13.588 C 179.150 13.833,176.900 14.130,175.800 14.248 C 171.132 14.750,153.597 19.478,148.600 21.582 C 148.160 21.768,147.170 22.136,146.400 22.402 C 138.588 25.094,122.554 34.053,113.600 40.728 C 112.610 41.466,111.267 42.459,110.616 42.935 C 105.675 46.544,97.474 54.195,90.251 61.936 C 85.921 66.575,77.687 77.722,74.395 83.400 C 74.013 84.060,72.945 85.832,72.022 87.338 C 69.919 90.772,63.976 103.336,62.817 106.800 C 61.929 109.454,61.381 110.860,60.753 112.095 C 60.559 112.477,60.400 113.141,60.400 113.571 C 60.400 114.001,60.241 114.451,60.048 114.570 C 59.854 114.690,59.576 115.286,59.430 115.894 C 59.284 116.502,58.992 117.675,58.782 118.500 C 58.572 119.325,58.220 120.720,58.000 121.600 C 57.780 122.480,57.420 123.920,57.200 124.800 C 56.980 125.680,56.609 127.165,56.375 128.100 C 55.808 130.368,55.281 133.200,54.795 136.600 C 54.574 138.140,54.207 140.660,53.977 142.200 C 52.924 149.272,52.923 168.428,53.974 176.200 C 55.203 185.284,55.158 185.015,56.378 190.500 C 56.734 192.099,56.995 193.176,58.025 197.300 C 58.258 198.235,58.549 199.497,58.671 200.105 C 58.793 200.713,59.051 201.308,59.246 201.429 C 59.441 201.549,59.600 201.999,59.600 202.429 C 59.600 202.859,59.762 203.523,59.959 203.905 C 60.156 204.287,60.731 205.950,61.236 207.600 C 61.741 209.250,62.551 211.500,63.036 212.600 C 63.522 213.700,64.215 215.320,64.578 216.200 C 66.217 220.179,66.738 221.298,69.147 226.000 C 72.645 232.829,73.321 234.023,75.613 237.419 C 76.706 239.038,77.600 240.552,77.600 240.782 C 77.600 241.012,77.759 241.200,77.954 241.200 C 78.149 241.200,78.591 241.785,78.936 242.500 C 79.712 244.108,88.518 255.325,92.291 259.510 C 93.823 261.210,95.773 263.410,96.626 264.400 C 97.478 265.390,98.991 267.102,99.988 268.204 C 102.656 271.156,106.536 275.600,107.842 277.200 C 108.470 277.970,109.267 278.870,109.612 279.200 C 109.958 279.530,112.371 282.230,114.975 285.200 C 117.580 288.170,120.901 291.926,122.355 293.547 C 123.810 295.169,125.090 296.631,125.200 296.798 C 125.310 296.964,126.506 298.338,127.857 299.850 C 129.209 301.363,131.984 304.490,134.024 306.800 C 136.065 309.110,138.469 311.829,139.367 312.841 C 140.265 313.854,141.525 315.294,142.166 316.041 C 142.807 316.789,144.067 318.212,144.966 319.204 C 145.865 320.196,147.680 322.248,149.000 323.765 C 150.320 325.282,151.580 326.724,151.800 326.971 C 153.472 328.846,158.068 334.052,159.025 335.156 C 159.671 335.901,160.386 336.711,160.612 336.956 C 160.839 337.200,162.995 339.650,165.404 342.400 C 167.813 345.150,169.878 347.490,169.993 347.600 C 170.107 347.710,171.371 349.147,172.800 350.794 C 174.230 352.441,175.760 354.171,176.200 354.639 C 176.640 355.107,178.080 356.728,179.400 358.241 C 180.720 359.754,183.510 362.901,185.600 365.235 C 189.749 369.867,193.811 374.455,196.000 376.983 C 196.770 377.872,197.490 378.690,197.600 378.800 C 198.181 379.381,201.651 383.299,203.358 385.302 C 205.701 388.050,206.249 388.120,208.028 385.900 C 208.776 384.965,209.608 383.930,209.876 383.600 C 210.144 383.270,211.489 381.560,212.864 379.800 C 214.239 378.040,216.362 375.333,217.582 373.785 C 218.802 372.237,220.340 370.282,221.000 369.440 C 221.660 368.598,222.535 367.525,222.945 367.055 C 223.355 366.585,224.165 365.571,224.745 364.803 C 225.325 364.034,226.205 362.991,226.700 362.485 C 227.195 361.978,227.600 361.435,227.600 361.278 C 227.600 361.120,228.007 360.544,228.504 359.996 C 229.001 359.448,230.027 358.190,230.784 357.200 C 232.781 354.588,238.128 347.834,238.385 347.600 C 238.506 347.490,239.096 346.741,239.696 345.935 C 240.297 345.129,241.022 344.229,241.307 343.935 C 241.593 343.641,242.262 342.770,242.794 342.000 C 243.327 341.230,244.044 340.330,244.388 340.000 C 244.733 339.670,246.038 338.049,247.288 336.398 C 250.670 331.932,253.358 330.877,257.174 332.519 C 258.594 333.130,259.600 332.748,259.600 331.597 C 259.600 331.344,260.275 330.472,261.100 329.659 C 261.925 328.847,262.659 327.917,262.732 327.595 C 262.805 327.272,263.068 326.882,263.316 326.728 C 263.715 326.482,263.221 325.610,261.998 324.400 C 261.887 324.290,261.568 323.547,261.289 322.748 C 260.382 320.146,261.537 318.077,269.075 308.800 C 269.343 308.470,270.834 306.580,272.389 304.600 C 273.943 302.620,275.619 300.548,276.112 299.996 C 276.606 299.443,277.449 298.363,277.985 297.596 C 278.522 296.828,279.065 296.110,279.191 296.000 C 279.317 295.890,280.046 294.991,280.810 294.001 C 281.575 293.012,282.498 291.842,282.862 291.401 C 283.832 290.228,287.242 285.918,288.400 284.403 C 288.950 283.682,289.670 282.781,290.000 282.400 C 290.330 282.019,291.050 281.119,291.600 280.400 C 292.150 279.681,292.870 278.781,293.200 278.400 C 293.530 278.019,294.250 277.110,294.800 276.381 C 295.710 275.174,308.157 259.416,309.319 258.000 C 309.589 257.670,310.439 256.590,311.206 255.600 C 311.972 254.610,312.690 253.710,312.800 253.600 C 312.910 253.490,314.620 251.240,316.599 248.600 C 318.578 245.960,320.289 243.710,320.400 243.600 C 320.511 243.490,320.856 242.905,321.168 242.300 C 321.480 241.695,321.885 241.200,322.068 241.200 C 322.250 241.200,322.400 241.012,322.400 240.782 C 322.400 240.552,323.300 239.030,324.400 237.400 C 325.500 235.770,326.400 234.248,326.400 234.018 C 326.400 233.788,326.535 233.599,326.700 233.597 C 326.865 233.595,327.196 233.190,327.435 232.697 C 327.675 232.204,329.061 229.460,330.516 226.600 C 333.355 221.017,335.600 216.184,335.600 215.651 C 335.600 215.471,335.850 214.800,336.156 214.161 C 337.246 211.887,337.940 210.178,338.416 208.600 C 338.681 207.720,339.056 206.687,339.249 206.305 C 339.442 205.923,339.600 205.336,339.600 205.000 C 339.600 204.664,339.762 204.077,339.961 203.695 C 340.160 203.313,340.537 202.190,340.800 201.200 C 341.063 200.210,341.440 199.087,341.639 198.705 C 341.838 198.323,342.000 197.569,342.000 197.029 C 342.000 196.489,342.180 195.936,342.400 195.800 C 342.620 195.664,342.800 194.879,342.800 194.056 C 342.800 193.233,342.962 192.389,343.159 192.180 C 343.356 191.971,343.615 191.080,343.733 190.200 C 343.851 189.320,344.153 187.700,344.402 186.600 C 344.840 184.675,344.985 183.735,346.071 175.800 C 346.735 170.951,346.730 146.984,346.064 142.400 C 345.793 140.530,345.392 137.830,345.174 136.400 C 344.956 134.970,344.683 132.990,344.568 132.000 C 344.453 131.010,344.200 129.840,344.006 129.400 C 343.813 128.960,343.544 127.970,343.408 127.200 C 343.273 126.430,343.061 125.213,342.937 124.496 C 342.813 123.779,342.551 123.094,342.356 122.973 C 342.160 122.852,342.000 122.144,342.000 121.400 C 342.000 120.656,341.820 119.936,341.600 119.800 C 341.380 119.664,341.200 118.944,341.200 118.200 C 341.200 117.456,341.020 116.736,340.800 116.600 C 340.580 116.464,340.400 116.001,340.400 115.571 C 340.400 115.141,340.192 114.387,339.938 113.895 C 338.944 111.974,338.800 111.584,338.800 110.829 C 338.800 110.399,338.656 109.958,338.479 109.849 C 338.303 109.740,337.907 108.728,337.600 107.600 C 337.293 106.472,336.897 105.460,336.721 105.351 C 336.544 105.242,336.400 104.899,336.400 104.588 C 336.400 104.278,335.929 102.983,335.353 101.712 C 333.354 97.301,328.710 87.799,328.456 87.600 C 328.067 87.296,326.780 85.091,326.529 84.300 C 326.407 83.915,326.148 83.600,325.953 83.600 C 325.759 83.600,325.600 83.403,325.600 83.162 C 325.600 82.921,325.261 82.246,324.847 81.662 C 324.433 81.078,323.668 79.851,323.147 78.935 C 322.626 78.019,321.811 76.759,321.335 76.135 C 320.859 75.511,318.969 73.001,317.135 70.557 C 310.787 62.101,305.250 56.271,294.181 46.389 C 293.311 45.612,291.970 44.541,291.200 44.008 C 290.430 43.475,289.710 42.931,289.600 42.800 C 289.490 42.669,288.770 42.129,288.000 41.600 C 287.230 41.071,286.510 40.539,286.400 40.417 C 285.535 39.459,278.759 35.027,274.000 32.307 C 273.230 31.866,272.150 31.199,271.600 30.824 C 271.050 30.449,267.900 28.836,264.600 27.241 C 261.300 25.645,257.908 23.993,257.062 23.570 C 256.216 23.146,255.269 22.800,254.957 22.800 C 254.645 22.800,254.077 22.628,253.695 22.418 C 252.346 21.677,243.968 18.816,240.705 17.982 C 230.851 15.465,229.749 15.224,224.200 14.371 C 222.660 14.134,220.320 13.762,219.000 13.545 C 216.845 13.190,213.302 12.929,201.800 12.276 C 199.820 12.163,194.960 12.312,191.000 12.607 M211.721 70.269 C 213.304 70.821,224.000 75.937,235.488 81.637 C 246.976 87.337,256.561 92.000,256.788 92.000 C 257.015 92.000,257.201 92.135,257.203 92.300 C 257.207 92.659,259.144 93.600,259.880 93.600 C 260.166 93.600,260.400 93.780,260.400 94.000 C 260.400 94.220,260.760 94.400,261.200 94.400 C 261.640 94.400,262.000 94.536,262.000 94.702 C 262.000 94.869,262.585 95.253,263.300 95.556 C 264.412 96.027,291.292 109.188,296.330 111.728 C 302.259 114.717,304.223 120.067,301.071 124.642 C 299.630 126.732,300.653 126.154,278.400 137.468 L 270.600 141.434 270.387 148.417 C 270.116 157.298,268.734 160.400,265.048 160.400 L 263.972 160.400 264.086 164.500 L 264.200 168.600 265.583 169.000 C 272.054 170.871,271.981 182.648,265.447 191.140 C 261.756 195.936,254.254 201.167,247.600 203.585 C 245.965 204.179,243.878 205.058,242.239 205.844 C 241.600 206.150,240.665 206.400,240.162 206.400 C 239.659 206.400,239.148 206.560,239.027 206.756 C 238.906 206.951,238.221 207.205,237.504 207.319 C 236.787 207.432,235.480 207.734,234.600 207.989 C 229.690 209.413,224.985 210.220,215.400 211.285 C 210.359 211.845,192.374 211.948,188.200 211.442 L 185.400 211.102 185.400 218.651 C 185.400 228.327,184.163 230.800,179.321 230.800 C 174.431 230.800,173.211 228.732,173.161 220.362 C 173.100 209.859,172.345 208.077,167.936 208.019 C 164.871 207.979,164.400 209.266,164.400 217.684 C 164.400 226.152,164.107 227.504,161.855 229.431 C 159.313 231.607,156.241 231.462,153.831 229.052 L 152.082 227.303 151.786 223.352 C 151.263 216.387,151.760 209.308,152.979 206.349 C 153.556 204.947,154.067 203.631,154.114 203.425 C 154.161 203.219,152.818 202.299,151.129 201.381 C 143.884 197.443,138.910 192.897,136.266 187.800 C 134.192 183.801,134.075 182.524,133.776 160.600 L 133.498 140.200 126.649 136.838 C 106.959 127.174,107.721 127.610,106.148 125.117 C 104.131 121.922,105.237 115.862,108.113 114.347 C 108.601 114.090,109.090 113.767,109.200 113.628 C 109.673 113.030,122.693 106.836,123.600 106.777 C 126.302 106.600,127.140 106.837,128.628 108.200 C 130.474 109.891,129.545 110.021,134.996 107.308 L 139.600 105.016 139.600 102.358 C 139.600 98.132,139.605 98.129,158.525 88.591 C 167.465 84.085,175.419 80.039,176.202 79.599 C 176.984 79.160,177.874 78.800,178.179 78.800 C 178.484 78.800,178.793 78.662,178.867 78.493 C 179.026 78.126,193.019 71.183,195.600 70.190 C 199.867 68.549,206.893 68.583,211.721 70.269 " stroke="none" fill="#56d6fb" fill-rule="evenodd"></path><path id="path2" d="M187.800 88.214 C 184.280 90.049,181.085 91.562,180.700 91.575 C 180.315 91.589,180.000 91.780,180.000 92.000 C 180.000 92.220,179.640 92.400,179.200 92.400 C 178.760 92.400,178.400 92.580,178.400 92.800 C 178.400 93.020,178.040 93.200,177.600 93.200 C 177.160 93.200,176.800 93.380,176.800 93.600 C 176.800 93.820,176.440 94.000,176.000 94.000 C 175.560 94.000,175.200 94.180,175.200 94.400 C 175.200 94.620,174.840 94.800,174.400 94.800 C 173.960 94.800,173.599 94.935,173.599 95.100 C 173.598 95.265,172.608 95.850,171.400 96.400 C 170.192 96.950,169.202 97.535,169.201 97.700 C 169.201 97.865,168.840 98.000,168.400 98.000 C 167.960 98.000,167.600 98.180,167.600 98.400 C 167.600 98.620,167.240 98.800,166.800 98.800 C 166.360 98.800,166.000 98.980,166.000 99.200 C 166.000 99.420,165.640 99.600,165.200 99.600 C 164.760 99.600,164.400 99.780,164.400 100.000 C 164.400 100.220,164.040 100.400,163.600 100.400 C 163.160 100.400,162.800 100.580,162.800 100.800 C 162.800 101.020,162.440 101.200,162.000 101.200 C 161.560 101.200,161.200 101.380,161.200 101.600 C 161.200 101.820,160.855 102.000,160.433 102.000 C 160.012 102.000,159.607 102.138,159.533 102.307 C 159.356 102.715,148.069 108.251,146.830 108.538 C 144.417 109.095,141.433 107.738,140.151 105.498 C 139.855 104.981,139.015 105.284,134.800 107.422 C 132.050 108.817,130.025 109.968,130.300 109.979 C 130.650 109.994,130.800 110.835,130.800 112.784 C 130.800 116.016,129.381 117.969,125.871 119.568 C 123.702 120.556,123.212 121.173,124.360 121.474 C 124.822 121.594,125.200 121.852,125.200 122.047 C 125.200 122.241,125.425 122.399,125.700 122.398 C 126.220 122.395,129.875 124.136,144.450 131.330 C 149.208 133.679,153.303 135.600,153.550 135.600 C 153.798 135.600,154.000 135.780,154.000 136.000 C 154.000 136.220,154.360 136.400,154.800 136.400 C 155.240 136.400,155.600 136.580,155.600 136.800 C 155.600 137.020,155.960 137.200,156.400 137.200 C 156.840 137.200,157.200 137.380,157.200 137.600 C 157.200 137.820,157.560 138.000,158.000 138.000 C 158.440 138.000,158.800 138.180,158.800 138.400 C 158.800 138.620,159.160 138.800,159.600 138.800 C 160.040 138.800,160.400 138.980,160.400 139.200 C 160.400 139.420,160.760 139.600,161.200 139.600 C 161.640 139.600,162.000 139.780,162.000 140.000 C 162.000 140.220,162.360 140.400,162.800 140.400 C 163.240 140.400,163.600 140.580,163.600 140.800 C 163.600 141.020,163.960 141.200,164.400 141.200 C 164.840 141.200,165.200 141.380,165.200 141.600 C 165.200 142.253,166.456 142.055,167.153 141.292 C 167.509 140.903,168.430 140.087,169.200 139.480 C 169.970 138.873,171.770 137.314,173.200 136.014 C 179.004 130.741,181.782 128.303,183.155 127.278 C 183.950 126.685,185.410 125.385,186.400 124.389 C 187.390 123.393,188.830 122.138,189.600 121.600 C 190.370 121.062,191.810 119.804,192.800 118.805 C 197.448 114.113,202.359 111.516,203.400 113.200 C 203.536 113.420,203.952 113.600,204.324 113.600 C 205.201 113.601,206.813 115.063,207.700 116.662 C 209.571 120.033,207.815 123.711,202.244 128.091 C 201.608 128.591,200.201 129.855,199.117 130.900 C 198.034 131.945,196.489 133.295,195.685 133.900 C 194.882 134.505,193.499 135.699,192.612 136.552 C 191.725 137.406,190.015 138.936,188.811 139.952 C 187.607 140.969,186.045 142.366,185.341 143.057 C 184.636 143.748,183.372 144.828,182.532 145.457 C 179.421 147.786,178.653 148.800,180.000 148.800 C 180.440 148.800,180.801 148.935,180.803 149.100 C 180.807 149.459,182.744 150.400,183.480 150.400 C 183.766 150.400,184.000 150.580,184.000 150.800 C 184.000 151.020,184.360 151.200,184.800 151.200 C 185.240 151.200,185.600 151.380,185.600 151.600 C 185.600 151.820,185.960 152.000,186.400 152.000 C 186.840 152.000,187.201 152.135,187.201 152.300 C 187.202 152.465,188.192 153.050,189.400 153.600 C 190.608 154.150,191.598 154.735,191.599 154.900 C 191.599 155.065,191.960 155.200,192.400 155.200 C 192.840 155.200,193.200 155.358,193.200 155.550 C 193.200 157.322,195.497 156.292,229.540 139.249 C 263.446 122.275,264.683 121.582,264.243 119.831 C 263.994 118.837,196.527 84.760,194.963 84.838 C 194.543 84.859,191.320 86.378,187.800 88.214 M146.400 163.128 C 146.400 176.356,146.509 179.761,146.967 180.851 C 147.910 183.095,149.847 185.457,151.877 186.839 C 152.935 187.558,153.890 188.249,154.000 188.374 C 154.354 188.775,161.861 192.800,162.255 192.800 C 162.508 192.800,162.408 164.813,162.135 159.474 L 161.874 154.348 154.437 150.710 C 150.347 148.710,146.865 147.001,146.700 146.913 C 146.535 146.825,146.400 154.121,146.400 163.128 M252.437 151.076 C 249.707 152.464,247.320 153.600,247.133 153.600 C 246.603 153.600,235.817 158.962,235.667 159.300 C 235.593 159.465,235.203 159.600,234.800 159.600 C 234.397 159.600,234.007 159.735,233.933 159.900 C 233.860 160.065,229.480 162.386,224.200 165.058 C 205.487 174.527,202.325 174.527,183.500 165.057 L 174.400 160.480 174.454 168.940 C 174.484 173.593,174.619 181.709,174.754 186.976 L 175.000 196.552 177.000 197.017 C 189.979 200.041,214.803 199.925,227.310 196.782 C 229.021 196.352,230.779 196.000,231.216 196.000 C 231.653 196.000,232.323 195.836,232.705 195.636 C 234.348 194.775,237.781 193.600,238.653 193.600 C 239.174 193.600,239.600 193.420,239.600 193.200 C 239.600 192.980,240.140 192.800,240.800 192.800 C 241.460 192.800,242.000 192.620,242.000 192.400 C 242.000 192.180,242.360 192.000,242.800 192.000 C 243.240 192.000,243.600 191.820,243.600 191.600 C 243.600 191.380,243.945 191.200,244.367 191.200 C 244.788 191.200,245.193 191.065,245.267 190.900 C 245.340 190.735,246.222 190.184,247.226 189.675 C 248.231 189.166,249.671 188.222,250.426 187.576 C 251.182 186.930,251.940 186.401,252.111 186.401 C 252.710 186.399,255.869 182.945,256.429 181.679 C 256.741 180.976,257.131 180.400,257.298 180.400 C 257.464 180.400,257.600 178.690,257.600 176.600 C 257.600 174.510,257.746 172.800,257.925 172.800 C 258.104 172.800,258.481 172.215,258.762 171.500 C 259.296 170.145,262.660 168.106,263.700 168.507 C 264.085 168.656,264.171 167.760,264.076 164.630 L 263.952 160.560 262.477 160.461 C 261.316 160.383,260.644 159.982,259.315 158.575 L 257.627 156.788 257.513 152.670 L 257.400 148.551 252.437 151.076 " stroke="none" fill="#3f72f2" fill-rule="evenodd"></path><path id="path3" d="M199.400 81.983 C 196.579 83.004,180.214 91.338,180.707 91.502 C 180.931 91.577,184.132 90.099,187.821 88.219 C 191.509 86.339,194.797 84.800,195.127 84.800 C 195.457 84.800,211.091 92.477,229.871 101.860 C 265.733 119.778,265.187 119.465,264.076 121.450 C 263.433 122.598,195.604 156.392,194.400 156.163 C 193.850 156.059,194.824 156.680,196.565 157.544 C 200.650 159.572,203.343 160.130,206.115 159.521 C 208.569 158.983,284.406 120.983,284.682 120.154 C 284.797 119.810,279.161 116.979,231.179 93.268 C 204.415 80.043,204.588 80.104,199.400 81.983 M160.422 101.414 C 145.222 109.128,144.596 109.296,141.617 106.462 C 139.774 104.709,139.454 104.876,141.100 106.731 C 142.286 108.068,145.064 108.947,146.819 108.540 C 148.066 108.252,159.355 102.717,159.533 102.307 C 159.607 102.138,160.012 102.000,160.433 102.000 C 160.855 102.000,161.200 101.820,161.200 101.600 C 161.200 101.380,161.560 101.200,162.000 101.200 C 162.440 101.200,162.800 101.020,162.800 100.800 C 162.800 100.580,163.160 100.400,163.600 100.400 C 164.040 100.400,164.400 100.220,164.400 100.000 C 164.400 99.780,164.760 99.600,165.200 99.600 C 165.640 99.600,166.000 99.420,166.000 99.200 C 166.000 98.980,166.360 98.800,166.800 98.800 C 167.240 98.800,167.600 98.620,167.600 98.400 C 167.600 98.180,167.960 98.000,168.400 98.000 C 168.840 98.000,169.201 97.865,169.201 97.700 C 169.202 97.535,170.192 96.950,171.400 96.400 C 172.608 95.850,173.598 95.265,173.599 95.100 C 173.601 94.692,174.812 94.112,160.422 101.414 M199.600 113.471 C 197.553 114.357,191.200 119.778,191.200 120.639 C 191.200 120.846,195.603 117.094,197.896 114.932 C 199.490 113.430,203.747 113.332,205.469 114.758 C 208.644 117.388,208.665 121.822,205.514 124.513 C 205.055 124.905,203.401 126.362,201.839 127.750 C 198.373 130.830,191.897 136.559,188.218 139.800 C 186.719 141.120,185.292 142.380,185.046 142.600 C 184.800 142.820,183.294 144.144,181.699 145.541 C 178.017 148.769,177.745 148.267,185.200 152.000 C 188.720 153.763,191.599 155.069,191.599 154.902 C 191.598 154.736,190.608 154.150,189.400 153.600 C 188.192 153.050,187.202 152.465,187.201 152.300 C 187.201 152.135,186.840 152.000,186.400 152.000 C 185.960 152.000,185.600 151.820,185.600 151.600 C 185.600 151.380,185.240 151.200,184.800 151.200 C 184.360 151.200,184.000 151.020,184.000 150.800 C 184.000 150.580,183.766 150.400,183.480 150.400 C 182.744 150.400,180.807 149.459,180.803 149.100 C 180.801 148.935,180.440 148.800,180.000 148.800 C 178.653 148.800,179.421 147.786,182.532 145.457 C 183.372 144.828,184.636 143.748,185.341 143.057 C 186.045 142.366,187.607 140.969,188.811 139.952 C 190.015 138.936,191.725 137.406,192.612 136.552 C 193.499 135.699,194.882 134.505,195.685 133.900 C 196.489 133.295,198.034 131.945,199.117 130.900 C 200.201 129.855,201.608 128.591,202.244 128.091 C 207.815 123.711,209.571 120.033,207.700 116.662 C 206.813 115.063,205.201 113.601,204.324 113.600 C 203.952 113.600,203.536 113.420,203.400 113.200 C 203.049 112.632,201.241 112.761,199.600 113.471 M130.175 114.956 C 129.826 116.346,128.126 117.813,125.097 119.337 C 123.085 120.349,122.548 120.788,122.898 121.138 C 123.491 121.731,124.029 121.732,123.900 121.141 C 123.845 120.889,124.788 120.157,125.995 119.515 C 128.459 118.206,130.800 115.883,130.800 114.750 C 130.800 113.703,130.462 113.814,130.175 114.956 M189.400 121.712 C 187.885 122.831,184.675 126.009,184.867 126.200 C 184.946 126.279,186.358 125.105,188.005 123.590 C 191.061 120.778,191.544 120.128,189.400 121.712 M181.033 129.097 C 179.330 130.584,177.283 132.340,176.483 133.000 C 175.683 133.660,174.212 135.010,173.214 136.000 C 172.216 136.990,170.721 138.307,169.891 138.927 C 169.061 139.547,167.971 140.466,167.468 140.968 C 166.966 141.471,166.304 141.965,165.997 142.068 C 165.624 142.192,165.584 142.343,165.876 142.523 C 166.116 142.672,168.261 141.067,170.656 138.946 C 173.045 136.830,175.543 134.627,176.208 134.049 C 176.872 133.472,178.942 131.657,180.808 130.015 C 182.673 128.373,184.275 126.978,184.367 126.915 C 184.458 126.852,184.442 126.709,184.331 126.597 C 184.219 126.486,182.735 127.611,181.033 129.097 M135.600 127.364 C 135.600 127.525,159.906 139.600,160.232 139.600 C 160.324 139.600,160.400 139.420,160.400 139.200 C 160.400 138.980,160.040 138.800,159.600 138.800 C 159.160 138.800,158.800 138.620,158.800 138.400 C 158.800 138.180,158.440 138.000,158.000 138.000 C 157.560 138.000,157.200 137.820,157.200 137.600 C 157.200 137.380,156.840 137.200,156.400 137.200 C 155.960 137.200,155.600 137.020,155.600 136.800 C 155.600 136.580,155.240 136.400,154.800 136.400 C 154.360 136.400,154.000 136.220,154.000 136.000 C 154.000 135.780,153.795 135.600,153.544 135.600 C 153.294 135.600,149.333 133.710,144.744 131.400 C 137.111 127.558,135.600 126.891,135.600 127.364 M146.160 153.000 C 146.161 156.300,146.222 157.597,146.298 155.882 C 146.373 154.167,146.372 151.467,146.297 149.882 C 146.221 148.297,146.159 149.700,146.160 153.000 M251.654 150.796 C 246.365 153.529,245.084 154.287,246.612 153.781 C 248.008 153.319,257.224 148.684,257.439 148.336 C 257.845 147.680,256.937 148.066,251.654 150.796 M257.663 152.633 L 257.600 156.667 259.029 158.233 L 260.458 159.800 259.351 158.260 C 258.378 156.906,258.213 156.232,257.985 152.660 L 257.725 148.600 257.663 152.633 M161.997 157.718 L 162.194 161.400 162.314 158.037 C 162.380 156.188,162.292 154.531,162.117 154.355 C 161.943 154.180,161.889 155.693,161.997 157.718 M219.900 166.825 C 218.195 167.697,216.800 168.500,216.800 168.609 C 216.800 168.719,218.240 168.085,220.000 167.200 C 221.760 166.315,223.200 165.503,223.200 165.396 C 223.200 165.126,223.350 165.061,219.900 166.825 M260.924 169.347 C 260.003 169.816,259.148 170.470,259.024 170.800 C 258.901 171.130,258.680 171.669,258.534 171.999 C 258.387 172.328,258.903 171.923,259.680 171.099 C 260.477 170.255,261.643 169.491,262.355 169.349 C 263.049 169.210,263.714 168.940,263.832 168.748 C 264.206 168.143,262.664 168.460,260.924 169.347 M214.200 169.629 C 213.320 170.052,213.050 170.286,213.600 170.149 C 214.733 169.867,216.812 168.825,216.200 168.846 C 215.980 168.853,215.080 169.206,214.200 169.629 M198.600 171.600 C 199.040 171.789,199.850 171.938,200.400 171.932 L 201.400 171.920 200.400 171.600 C 199.850 171.424,199.040 171.274,198.600 171.268 L 197.800 171.256 198.600 171.600 M207.400 171.600 C 206.311 171.877,206.293 171.907,207.200 171.925 C 207.750 171.935,208.560 171.789,209.000 171.600 C 209.986 171.176,209.066 171.176,207.400 171.600 M257.632 176.300 C 257.649 178.225,257.725 179.620,257.801 179.400 C 258.129 178.445,258.248 172.800,257.940 172.800 C 257.753 172.800,257.614 174.375,257.632 176.300 M174.480 187.876 C 174.436 192.538,174.535 196.437,174.700 196.539 C 174.865 196.642,174.953 194.177,174.896 191.063 C 174.702 180.466,174.561 179.383,174.480 187.876 M256.429 181.679 C 255.869 182.945,252.710 186.399,252.111 186.401 C 251.940 186.401,251.170 186.942,250.400 187.603 C 249.630 188.264,248.148 189.209,247.107 189.702 C 246.066 190.196,245.211 190.738,245.207 190.907 C 245.185 191.861,252.661 187.045,254.961 184.623 C 256.162 183.358,257.596 181.226,257.599 180.700 C 257.602 179.963,256.945 180.513,256.429 181.679 M152.200 187.365 C 152.860 187.932,153.565 188.397,153.767 188.398 C 154.201 188.400,154.196 188.396,152.400 187.237 L 151.000 186.334 152.200 187.365 M154.400 188.990 C 154.400 189.094,154.985 189.465,155.700 189.814 L 157.000 190.448 156.000 189.633 C 155.037 188.848,154.400 188.592,154.400 188.990 M239.600 193.200 C 239.600 193.701,240.024 193.701,240.800 193.200 C 241.285 192.886,241.228 192.811,240.500 192.806 C 240.005 192.803,239.600 192.980,239.600 193.200 M235.800 194.400 C 234.920 194.807,234.346 195.154,234.525 195.170 C 234.974 195.211,238.800 193.944,238.800 193.754 C 238.800 193.388,237.277 193.716,235.800 194.400 M229.000 196.400 C 228.496 196.617,228.422 196.744,228.800 196.744 C 229.130 196.744,229.760 196.589,230.200 196.400 C 230.704 196.183,230.778 196.056,230.400 196.056 C 230.070 196.056,229.440 196.211,229.000 196.400 M176.400 197.182 C 176.730 197.405,177.345 197.591,177.767 197.594 C 178.790 197.602,178.471 197.373,177.000 197.044 C 176.124 196.848,175.962 196.885,176.400 197.182 M182.900 198.276 C 183.285 198.376,183.915 198.376,184.300 198.276 C 184.685 198.175,184.370 198.093,183.600 198.093 C 182.830 198.093,182.515 198.175,182.900 198.276 M219.505 198.283 C 220.002 198.379,220.722 198.375,221.105 198.275 C 221.487 198.175,221.080 198.096,220.200 198.101 C 219.320 198.105,219.007 198.187,219.505 198.283 M186.400 198.820 C 187.352 199.106,193.835 199.284,193.000 199.001 C 192.780 198.927,190.980 198.788,189.000 198.692 C 187.020 198.597,185.850 198.654,186.400 198.820 M213.600 198.800 L 211.000 199.062 213.400 199.091 C 214.720 199.107,216.250 198.976,216.800 198.800 C 218.001 198.415,217.417 198.415,213.600 198.800 M197.107 199.490 C 197.826 199.579,198.906 199.577,199.507 199.486 C 200.108 199.395,199.520 199.322,198.200 199.324 C 196.880 199.326,196.388 199.401,197.107 199.490 M204.900 199.487 C 205.505 199.578,206.495 199.578,207.100 199.487 C 207.705 199.395,207.210 199.320,206.000 199.320 C 204.790 199.320,204.295 199.395,204.900 199.487 " stroke="none" fill="#2b61e4" fill-rule="evenodd"></path><path id="path4" d="M189.200 12.011 C 186.670 12.204,183.385 12.550,181.900 12.781 C 180.415 13.011,177.895 13.387,176.300 13.617 C 171.841 14.257,158.410 17.450,156.200 18.395 C 155.760 18.583,153.060 19.542,150.200 20.526 C 144.896 22.351,143.524 22.930,135.800 26.596 C 126.937 30.804,113.039 39.860,105.820 46.132 C 96.373 54.340,88.966 62.028,83.558 69.241 C 82.007 71.308,80.525 73.270,80.263 73.600 C 80.002 73.930,79.350 74.830,78.814 75.600 C 78.277 76.370,77.736 77.090,77.611 77.200 C 75.724 78.856,64.753 99.607,62.807 105.200 C 62.539 105.970,62.166 106.960,61.980 107.400 C 61.793 107.840,61.371 109.010,61.042 110.000 C 60.713 110.990,60.055 112.880,59.579 114.200 C 57.507 119.956,54.000 135.582,54.000 139.062 C 54.000 141.040,54.500 139.658,54.849 136.715 C 55.040 135.112,55.365 132.900,55.573 131.800 C 55.923 129.942,56.193 128.776,57.237 124.600 C 57.457 123.720,57.817 122.280,58.037 121.400 C 58.257 120.520,58.600 119.170,58.800 118.400 C 59.000 117.630,59.284 116.502,59.430 115.894 C 59.576 115.286,59.854 114.690,60.048 114.570 C 60.241 114.451,60.400 114.001,60.400 113.571 C 60.400 113.141,60.559 112.477,60.753 112.095 C 61.381 110.860,61.929 109.454,62.817 106.800 C 63.976 103.336,69.919 90.772,72.022 87.338 C 72.945 85.832,74.013 84.060,74.395 83.400 C 77.687 77.722,85.921 66.575,90.251 61.936 C 97.474 54.195,105.675 46.544,110.616 42.935 C 111.267 42.459,112.610 41.466,113.600 40.728 C 122.554 34.053,138.588 25.094,146.400 22.402 C 147.170 22.136,148.160 21.768,148.600 21.582 C 153.770 19.405,171.048 14.782,176.200 14.196 C 177.520 14.046,179.680 13.765,181.000 13.570 C 187.544 12.606,201.047 11.970,206.200 12.384 C 209.060 12.614,212.750 12.883,214.400 12.983 C 216.050 13.082,218.480 13.345,219.800 13.567 C 221.120 13.789,223.370 14.148,224.800 14.364 C 229.449 15.067,231.302 15.466,237.800 17.165 C 244.853 19.008,247.301 19.784,251.800 21.597 C 252.240 21.774,253.230 22.136,254.000 22.400 C 256.349 23.207,256.806 23.412,262.800 26.356 C 265.990 27.922,268.711 29.203,268.846 29.202 C 268.982 29.201,272.132 31.052,275.846 33.316 C 281.757 36.918,284.653 38.866,287.305 41.026 C 287.692 41.342,288.187 41.600,288.405 41.600 C 288.622 41.600,288.800 41.741,288.800 41.914 C 288.800 42.086,289.295 42.521,289.900 42.880 C 291.981 44.114,302.056 53.168,305.576 56.968 C 306.579 58.051,307.940 59.493,308.600 60.173 C 312.934 64.637,324.800 80.190,324.800 81.406 C 324.800 81.543,325.340 82.441,326.000 83.400 C 326.660 84.359,327.200 85.228,327.200 85.331 C 327.200 85.434,327.886 86.662,328.724 88.059 C 329.563 89.457,330.539 91.230,330.893 92.000 C 331.248 92.770,332.331 95.110,333.301 97.200 C 336.162 103.367,336.278 103.641,337.586 107.400 C 338.275 109.380,339.010 111.313,339.219 111.695 C 339.429 112.077,339.600 112.716,339.600 113.115 C 339.600 113.514,339.749 114.011,339.930 114.220 C 340.112 114.429,340.484 115.410,340.758 116.400 C 341.031 117.390,341.422 118.753,341.627 119.428 C 341.832 120.104,342.000 121.038,342.000 121.505 C 342.000 121.971,342.180 122.464,342.400 122.600 C 342.620 122.736,342.800 123.456,342.800 124.200 C 342.800 124.944,342.980 125.664,343.200 125.800 C 343.420 125.936,343.600 126.631,343.600 127.344 C 343.600 128.057,343.763 128.811,343.963 129.020 C 344.163 129.229,344.427 130.300,344.549 131.400 C 345.192 137.170,345.445 138.776,345.757 139.074 C 346.633 139.907,344.689 128.746,342.817 122.200 C 342.629 121.540,342.256 120.010,341.988 118.800 C 341.721 117.590,341.353 116.240,341.171 115.800 C 340.989 115.360,340.569 114.190,340.237 113.200 C 338.608 108.343,337.297 104.764,337.062 104.528 C 336.918 104.384,336.800 104.018,336.800 103.714 C 336.800 102.797,329.474 88.048,327.206 84.400 C 326.044 82.530,324.736 80.370,324.300 79.600 C 323.420 78.048,321.973 75.909,321.593 75.600 C 321.458 75.490,320.739 74.500,319.995 73.400 C 318.250 70.820,315.051 66.638,313.263 64.600 C 309.880 60.744,304.841 55.356,303.000 53.626 C 301.900 52.593,299.560 50.396,297.800 48.745 C 296.040 47.093,291.810 43.670,288.400 41.138 C 282.988 37.118,280.098 35.204,273.000 30.933 C 266.521 27.036,249.833 19.830,243.000 17.980 C 236.151 16.126,234.608 15.729,230.600 14.788 C 229.720 14.581,227.650 14.209,226.000 13.960 C 224.350 13.711,222.010 13.342,220.800 13.141 C 214.181 12.039,196.928 11.423,189.200 12.011 M199.600 69.180 C 196.512 69.627,179.373 77.325,178.867 78.493 C 178.793 78.662,178.484 78.800,178.179 78.800 C 177.874 78.800,176.984 79.160,176.202 79.599 C 175.419 80.039,167.465 84.085,158.525 88.591 C 139.782 98.039,139.600 98.169,139.600 102.131 C 139.600 104.991,142.090 108.058,144.320 107.946 C 145.392 107.891,145.393 107.890,144.405 107.705 C 141.843 107.227,140.000 104.793,140.000 101.887 C 140.000 98.658,140.695 98.192,160.000 88.457 C 169.570 83.631,181.176 77.774,185.791 75.441 C 190.406 73.109,194.465 71.200,194.811 71.200 C 195.157 71.200,195.611 71.050,195.820 70.867 C 197.510 69.389,206.362 69.118,210.434 70.421 C 213.399 71.370,213.547 71.441,242.400 85.713 C 285.794 107.177,298.611 113.578,299.215 114.084 C 302.394 116.751,302.819 122.065,300.099 125.134 C 298.979 126.398,297.460 127.220,280.600 135.694 C 268.273 141.890,269.600 140.337,269.599 148.562 C 269.599 157.750,268.260 160.260,263.538 159.930 C 262.513 159.859,261.759 159.935,261.861 160.100 C 262.352 160.892,266.142 160.386,267.505 159.347 C 269.792 157.602,270.148 156.255,270.387 148.417 L 270.600 141.434 278.400 137.468 C 300.653 126.154,299.630 126.732,301.071 124.642 C 304.223 120.067,302.259 114.717,296.330 111.728 C 291.292 109.188,264.412 96.027,263.300 95.556 C 262.585 95.253,262.000 94.869,262.000 94.702 C 262.000 94.536,261.640 94.400,261.200 94.400 C 260.760 94.400,260.400 94.220,260.400 94.000 C 260.400 93.780,260.166 93.600,259.880 93.600 C 259.144 93.600,257.207 92.659,257.203 92.300 C 257.201 92.135,257.015 92.000,256.788 92.000 C 256.561 92.000,246.976 87.337,235.488 81.637 C 209.505 68.746,207.473 68.040,199.600 69.180 M202.900 81.076 C 203.285 81.176,203.915 81.176,204.300 81.076 C 204.685 80.975,204.370 80.893,203.600 80.893 C 202.830 80.893,202.515 80.975,202.900 81.076 M198.500 81.834 C 197.785 82.146,197.200 82.481,197.200 82.577 C 197.200 82.750,200.847 81.615,201.167 81.342 C 201.603 80.970,199.652 81.330,198.500 81.834 M207.800 81.955 C 208.900 82.354,212.024 83.799,214.742 85.165 C 217.461 86.531,219.754 87.579,219.839 87.494 C 220.114 87.219,207.418 81.200,206.595 81.214 C 206.158 81.222,206.700 81.556,207.800 81.955 M228.400 91.783 C 228.400 91.963,230.802 93.200,231.150 93.200 C 231.497 93.200,229.894 92.167,229.100 91.879 C 228.715 91.739,228.400 91.696,228.400 91.783 M171.900 95.224 C 169.755 96.315,168.000 97.298,168.000 97.408 C 168.000 97.517,169.800 96.704,172.000 95.600 C 174.200 94.496,176.000 93.504,176.000 93.396 C 176.000 93.125,176.225 93.025,171.900 95.224 M231.600 93.347 C 231.600 93.454,232.635 94.035,233.900 94.639 C 235.165 95.243,236.335 95.807,236.500 95.892 C 236.665 95.977,236.800 95.960,236.800 95.853 C 236.800 95.746,235.765 95.165,234.500 94.561 C 233.235 93.957,232.065 93.393,231.900 93.308 C 231.735 93.223,231.600 93.240,231.600 93.347 M239.411 97.334 C 240.296 97.932,241.600 98.458,241.600 98.217 C 241.600 98.037,239.198 96.800,238.850 96.800 C 238.724 96.800,238.977 97.040,239.411 97.334 M245.233 100.149 C 245.645 100.517,248.000 101.600,248.000 101.421 C 248.000 101.190,245.782 100.000,245.353 100.000 C 245.196 100.000,245.142 100.067,245.233 100.149 M250.400 102.800 C 251.610 103.439,252.780 103.962,253.000 103.962 C 253.220 103.962,252.410 103.439,251.200 102.800 C 249.990 102.161,248.820 101.638,248.600 101.638 C 248.380 101.638,249.190 102.161,250.400 102.800 M123.600 106.721 C 122.659 106.834,109.631 113.083,109.200 113.628 C 109.090 113.767,108.601 114.090,108.113 114.347 C 105.237 115.862,104.131 121.922,106.148 125.117 C 107.721 127.610,106.959 127.174,126.649 136.838 L 133.498 140.200 133.776 160.600 C 134.075 182.524,134.192 183.801,136.266 187.800 C 138.910 192.897,143.884 197.443,151.129 201.381 C 152.818 202.299,154.161 203.219,154.114 203.425 C 154.067 203.631,153.556 204.947,152.979 206.349 C 151.760 209.308,151.263 216.387,151.786 223.352 L 152.082 227.303 153.831 229.052 C 156.241 231.462,159.313 231.607,161.855 229.431 C 164.107 227.504,164.400 226.152,164.400 217.684 C 164.400 209.266,164.871 207.979,167.936 208.019 C 172.345 208.077,173.100 209.859,173.161 220.362 C 173.211 228.732,174.431 230.800,179.321 230.800 C 184.163 230.800,185.400 228.327,185.400 218.651 L 185.400 211.102 188.200 211.442 C 192.374 211.948,210.359 211.845,215.400 211.285 C 224.985 210.220,229.690 209.413,234.600 207.989 C 235.480 207.734,236.787 207.432,237.504 207.319 C 238.221 207.205,238.906 206.951,239.027 206.756 C 239.148 206.560,239.659 206.400,240.162 206.400 C 240.665 206.400,241.600 206.141,242.239 205.825 C 242.877 205.508,243.920 205.053,244.555 204.813 C 245.191 204.574,245.619 204.286,245.507 204.174 C 245.396 204.062,244.336 204.355,243.152 204.825 C 239.017 206.468,230.087 208.695,224.000 209.603 C 222.350 209.849,220.010 210.212,218.800 210.409 C 213.513 211.271,200.924 211.607,189.800 211.183 L 185.000 211.000 184.800 218.872 C 184.554 228.542,183.296 230.894,178.697 230.277 C 174.360 229.695,173.603 228.008,173.601 218.919 C 173.600 209.718,173.239 208.700,169.655 207.775 C 164.831 206.530,163.859 208.254,163.585 218.529 C 163.320 228.509,162.420 230.403,157.946 230.399 C 153.461 230.394,152.403 228.064,152.404 218.200 C 152.404 210.116,152.623 208.378,154.026 205.304 C 155.077 203.002,155.011 202.582,153.500 201.974 C 148.799 200.083,142.064 194.983,138.982 190.982 C 134.511 185.176,134.400 184.432,134.400 160.142 L 134.400 140.012 122.100 133.955 C 115.335 130.624,109.213 127.460,108.496 126.926 C 104.708 124.101,104.692 117.440,108.468 114.752 C 111.646 112.489,123.057 107.200,124.762 107.200 C 127.713 107.200,130.320 109.799,130.460 112.880 C 130.518 114.152,130.526 114.158,130.691 113.057 C 131.218 109.527,127.545 106.245,123.600 106.721 M146.800 107.600 L 145.800 107.920 146.876 107.960 C 147.468 107.982,148.064 107.820,148.200 107.600 C 148.481 107.145,148.220 107.145,146.800 107.600 M266.400 110.539 C 266.400 110.641,268.155 111.583,270.300 112.632 C 272.445 113.681,274.335 114.608,274.500 114.693 C 274.665 114.778,274.800 114.764,274.800 114.661 C 274.800 114.559,273.045 113.617,270.900 112.568 C 268.755 111.519,266.865 110.592,266.700 110.507 C 266.535 110.422,266.400 110.436,266.400 110.539 M201.105 113.883 C 201.602 113.979,202.322 113.975,202.705 113.875 C 203.087 113.775,202.680 113.696,201.800 113.701 C 200.920 113.705,200.607 113.787,201.105 113.883 M198.600 114.478 C 198.160 114.727,197.710 115.043,197.600 115.178 C 197.490 115.314,194.520 117.937,191.000 121.008 C 187.480 124.079,183.880 127.244,183.000 128.043 C 182.120 128.841,180.468 130.283,179.329 131.247 C 178.191 132.211,177.246 133.170,177.229 133.378 C 177.213 133.587,177.785 133.212,178.500 132.545 C 179.639 131.484,181.620 129.719,189.641 122.628 C 194.735 118.124,198.538 114.944,199.400 114.467 C 199.840 114.224,200.020 114.024,199.800 114.024 C 199.580 114.024,199.040 114.228,198.600 114.478 M204.841 114.908 C 206.651 116.117,207.693 118.183,207.459 120.100 C 207.357 120.941,207.435 121.502,207.638 121.376 C 209.314 120.340,206.249 114.066,204.041 114.013 C 203.733 114.006,204.093 114.409,204.841 114.908 M129.606 115.384 C 129.401 115.925,128.505 116.849,127.616 117.437 C 126.727 118.025,126.000 118.572,126.000 118.653 C 126.000 119.550,129.813 116.359,130.113 115.211 C 130.410 114.077,130.057 114.197,129.606 115.384 M283.900 119.288 C 285.331 119.978,285.036 120.274,280.800 122.400 C 278.600 123.504,276.800 124.497,276.800 124.607 C 276.800 124.717,278.780 123.814,281.200 122.600 C 285.901 120.242,286.162 119.985,284.581 119.264 C 283.298 118.680,282.683 118.701,283.900 119.288 M122.000 120.664 C 122.000 121.065,125.203 122.931,125.456 122.677 C 125.535 122.599,125.104 122.287,124.499 121.985 C 123.895 121.682,123.085 121.174,122.700 120.855 C 122.315 120.537,122.000 120.451,122.000 120.664 M205.695 123.589 C 204.977 124.425,202.331 126.885,199.816 129.055 C 197.301 131.225,195.234 133.151,195.222 133.336 C 195.202 133.634,197.038 132.081,203.183 126.600 C 205.720 124.337,207.200 122.774,207.200 122.358 C 207.200 121.852,207.149 121.894,205.695 123.589 M126.057 122.960 C 126.474 123.426,134.107 127.226,134.280 127.053 C 134.410 126.923,132.447 125.906,126.200 122.866 C 125.980 122.759,125.916 122.801,126.057 122.960 M274.700 125.429 C 273.149 126.270,273.325 126.561,274.900 125.759 C 276.408 124.993,276.675 124.794,276.167 124.816 C 275.965 124.825,275.305 125.101,274.700 125.429 M137.011 128.534 C 137.896 129.132,139.200 129.658,139.200 129.417 C 139.200 129.237,136.798 128.000,136.450 128.000 C 136.324 128.000,136.577 128.240,137.011 128.534 M150.400 135.200 C 152.930 136.497,155.180 137.559,155.400 137.559 C 155.620 137.559,153.730 136.497,151.200 135.200 C 148.670 133.903,146.420 132.841,146.200 132.841 C 145.980 132.841,147.870 133.903,150.400 135.200 M171.543 138.111 C 168.762 140.580,166.549 142.667,166.626 142.750 C 166.773 142.907,176.800 134.052,176.800 133.766 C 176.800 133.456,176.602 133.620,171.543 138.111 M191.600 136.439 C 188.992 138.906,188.913 139.016,191.000 137.283 C 192.320 136.187,193.743 134.909,194.162 134.445 C 195.659 132.785,194.551 133.647,191.600 136.439 M156.000 137.792 C 156.000 137.910,158.115 139.023,160.700 140.267 C 163.285 141.511,165.535 142.601,165.700 142.688 C 165.865 142.776,166.000 142.757,166.000 142.647 C 166.000 142.537,164.245 141.603,162.100 140.572 C 159.955 139.541,157.705 138.446,157.100 138.138 C 156.495 137.831,156.000 137.675,156.000 137.792 M246.700 139.624 C 244.555 140.715,242.800 141.698,242.800 141.808 C 242.800 141.917,244.600 141.104,246.800 140.000 C 249.000 138.896,250.800 137.904,250.800 137.796 C 250.800 137.525,251.025 137.425,246.700 139.624 M186.785 140.532 C 186.008 141.229,184.388 142.684,183.186 143.765 C 181.984 144.846,181.198 145.656,181.440 145.565 C 181.683 145.474,182.943 144.467,184.240 143.327 C 185.538 142.186,187.034 140.880,187.564 140.424 C 188.094 139.968,188.454 139.520,188.363 139.429 C 188.272 139.338,187.562 139.835,186.785 140.532 M346.227 142.000 C 346.991 152.429,346.995 163.932,346.239 176.200 L 346.066 179.000 346.591 175.600 C 347.802 167.755,347.683 146.755,346.395 141.000 C 346.095 139.662,346.068 139.826,346.227 142.000 M53.503 141.800 C 53.341 142.680,53.228 144.210,53.251 145.200 L 53.294 147.000 53.661 144.800 C 53.864 143.590,53.977 142.060,53.913 141.400 C 53.805 140.281,53.778 140.309,53.503 141.800 M146.032 146.700 C 146.050 147.098,146.149 147.189,146.261 146.912 C 146.394 146.584,148.407 147.400,152.424 149.412 C 155.705 151.055,158.527 152.391,158.695 152.379 C 159.044 152.355,146.758 146.053,146.300 146.021 C 146.135 146.009,146.014 146.315,146.032 146.700 M179.300 147.222 C 178.585 147.892,178.000 148.520,178.000 148.617 C 178.000 148.847,188.292 154.007,188.694 153.979 C 188.862 153.968,186.705 152.796,183.900 151.376 C 178.229 148.505,178.388 148.673,179.875 147.122 C 181.307 145.627,180.932 145.693,179.300 147.222 M52.595 153.771 C 52.436 157.385,52.475 162.920,52.683 166.071 C 53.045 171.559,53.063 171.284,53.119 159.500 C 53.184 145.743,53.026 144.010,52.595 153.771 M256.562 148.062 C 256.376 148.362,256.453 148.414,256.783 148.211 C 257.078 148.028,257.435 148.128,257.639 148.449 C 257.915 148.885,257.989 148.854,257.994 148.300 C 258.001 147.516,257.002 147.349,256.562 148.062 M189.200 154.213 C 189.200 154.751,199.958 159.582,201.600 159.781 L 203.400 159.999 201.339 159.466 C 199.362 158.954,197.834 158.285,191.900 155.333 C 190.415 154.594,189.200 154.090,189.200 154.213 M212.633 156.828 C 208.601 158.833,207.372 159.571,209.264 158.852 C 210.913 158.225,216.800 155.212,216.800 154.996 C 216.800 154.738,217.131 154.592,212.633 156.828 M258.402 156.362 C 258.399 157.099,260.314 159.600,260.882 159.600 C 261.124 159.600,260.938 159.267,260.468 158.859 C 259.998 158.452,259.342 157.597,259.009 156.959 C 258.677 156.322,258.404 156.053,258.402 156.362 M146.088 169.481 C 146.025 177.204,146.139 180.687,146.478 181.481 C 147.162 183.083,149.406 185.809,150.911 186.867 C 151.757 187.462,151.495 187.081,150.148 185.759 C 146.557 182.235,146.629 182.541,146.388 169.800 L 146.175 158.600 146.088 169.481 M205.600 159.600 C 204.808 159.854,204.767 159.920,205.400 159.920 C 205.840 159.920,206.650 159.776,207.200 159.600 C 207.992 159.346,208.033 159.280,207.400 159.280 C 206.960 159.280,206.150 159.424,205.600 159.600 M227.100 162.824 C 223.635 164.573,220.800 166.095,220.800 166.205 C 220.800 166.315,223.680 164.963,227.200 163.200 C 230.720 161.437,233.600 159.906,233.600 159.798 C 233.600 159.524,234.049 159.315,227.100 162.824 M174.196 160.467 C 174.083 160.761,174.040 168.201,174.100 177.001 L 174.209 193.000 174.305 176.700 C 174.357 167.735,174.485 160.400,174.588 160.400 C 174.691 160.400,175.366 160.727,176.088 161.127 C 177.639 161.987,178.800 162.445,178.800 162.197 C 178.800 162.055,177.024 161.134,174.700 160.071 C 174.535 159.995,174.308 160.174,174.196 160.467 M181.400 163.698 C 182.846 164.554,186.800 166.370,186.800 166.178 C 186.800 166.074,185.510 165.362,183.934 164.595 C 181.115 163.223,179.829 162.768,181.400 163.698 M187.233 166.552 C 187.641 166.924,191.600 168.793,191.600 168.613 C 191.600 168.388,187.780 166.400,187.347 166.400 C 187.193 166.400,187.142 166.468,187.233 166.552 M218.700 167.029 C 217.149 167.870,217.325 168.161,218.900 167.359 C 220.408 166.593,220.675 166.394,220.167 166.416 C 219.965 166.425,219.305 166.701,218.700 167.029 M262.800 169.188 C 262.003 169.453,262.234 169.528,263.938 169.560 C 268.171 169.639,269.602 171.643,269.596 177.480 C 269.584 187.974,262.116 196.933,248.685 202.564 C 246.013 203.685,245.127 204.598,247.687 203.592 C 254.796 200.800,261.785 195.898,265.454 191.130 C 273.065 181.239,271.267 166.372,262.800 169.188 M194.400 170.000 C 194.730 170.213,195.270 170.388,195.600 170.388 C 196.133 170.388,196.133 170.345,195.600 170.000 C 195.270 169.787,194.730 169.612,194.400 169.612 C 193.867 169.612,193.867 169.655,194.400 170.000 M259.747 171.028 C 259.006 171.814,258.401 172.759,258.402 173.128 C 258.404 173.528,258.651 173.314,259.014 172.600 C 259.349 171.940,260.113 170.996,260.712 170.502 C 261.310 170.008,261.641 169.603,261.447 169.602 C 261.253 169.601,260.488 170.243,259.747 171.028 M209.800 170.800 L 209.000 171.144 209.800 171.166 C 210.240 171.178,210.870 171.013,211.200 170.800 C 211.995 170.286,210.996 170.286,209.800 170.800 M200.434 171.650 C 201.669 171.995,205.839 171.987,207.400 171.635 C 208.060 171.487,206.545 171.369,204.034 171.373 C 201.522 171.377,199.902 171.501,200.434 171.650 M53.270 173.600 C 53.257 174.590,53.395 176.120,53.577 177.000 C 53.905 178.587,53.908 178.582,53.907 176.400 C 53.906 175.190,53.768 173.660,53.600 173.000 C 53.324 171.914,53.292 171.971,53.270 173.600 M162.493 182.900 C 162.442 188.345,162.248 192.800,162.061 192.800 C 161.420 192.800,155.094 189.560,153.648 188.491 C 152.385 187.557,152.299 187.536,152.979 188.329 C 154.104 189.641,161.898 193.462,162.409 192.951 C 162.667 192.693,162.773 188.997,162.700 182.773 L 162.585 173.000 162.493 182.900 M258.131 176.600 C 258.133 178.140,258.205 178.721,258.292 177.891 C 258.379 177.061,258.377 175.801,258.289 175.091 C 258.200 174.381,258.129 175.060,258.131 176.600 M54.162 181.400 C 54.737 187.316,59.445 205.886,61.235 209.295 C 61.436 209.677,61.600 210.174,61.600 210.399 C 61.600 210.624,61.981 211.662,62.447 212.704 C 63.800 215.735,64.289 216.884,65.040 218.800 C 66.533 222.606,72.264 233.232,75.557 238.296 C 77.451 241.209,79.180 243.899,79.400 244.274 C 79.960 245.229,90.108 257.941,91.475 259.401 C 92.094 260.062,94.490 262.762,96.799 265.401 C 99.109 268.041,101.094 270.290,101.212 270.400 C 101.329 270.510,103.936 273.480,107.004 277.000 C 110.073 280.520,112.680 283.490,112.797 283.600 C 112.915 283.710,114.359 285.330,116.006 287.200 C 117.652 289.070,119.096 290.690,119.212 290.800 C 119.329 290.910,121.937 293.880,125.008 297.400 C 128.079 300.920,131.240 304.520,132.033 305.400 C 135.157 308.865,137.907 311.959,140.200 314.588 C 141.520 316.101,142.780 317.534,143.000 317.774 C 143.220 318.013,144.104 319.017,144.964 320.004 C 145.824 320.992,147.647 323.060,149.015 324.600 C 150.383 326.140,153.079 329.200,155.007 331.400 C 156.935 333.600,159.164 336.120,159.961 337.000 C 160.757 337.880,163.855 341.390,166.845 344.800 C 169.834 348.210,173.788 352.710,175.630 354.800 C 177.473 356.890,179.524 359.223,180.190 359.985 C 180.855 360.747,182.215 362.277,183.212 363.385 C 184.209 364.493,185.721 366.210,186.572 367.200 C 187.422 368.190,188.950 369.900,189.966 371.000 C 190.982 372.100,192.326 373.630,192.951 374.400 C 193.577 375.170,194.835 376.610,195.747 377.600 C 196.660 378.590,199.184 381.425,201.357 383.900 C 205.855 389.022,206.153 389.135,208.273 386.512 C 209.113 385.473,210.098 384.258,210.461 383.812 C 211.347 382.724,217.494 374.954,219.000 373.018 C 219.660 372.169,220.650 370.921,221.200 370.243 C 223.028 367.991,237.328 349.929,238.686 348.156 C 242.519 343.156,249.537 334.559,250.544 333.632 C 251.656 332.609,254.380 332.330,257.000 332.973 L 258.200 333.267 257.054 332.634 C 253.299 330.556,250.195 332.319,244.800 339.594 C 244.250 340.336,243.350 341.493,242.800 342.166 C 241.227 344.090,241.105 344.244,235.790 351.000 C 233.021 354.520,230.538 357.670,230.272 358.000 C 230.007 358.330,229.161 359.406,228.394 360.390 C 227.628 361.375,226.772 362.425,226.494 362.725 C 226.216 363.024,225.497 363.929,224.896 364.735 C 224.296 365.541,223.702 366.290,223.577 366.400 C 223.452 366.510,221.655 368.760,219.582 371.400 C 217.510 374.040,215.091 377.105,214.207 378.211 C 213.323 379.317,212.115 380.847,211.523 381.611 C 205.514 389.359,206.702 389.380,199.785 381.400 C 198.259 379.640,196.739 377.930,196.406 377.599 C 196.073 377.269,194.810 375.829,193.601 374.399 C 192.391 372.970,191.041 371.423,190.601 370.961 C 190.160 370.500,189.350 369.595,188.800 368.949 C 188.250 368.304,185.820 365.533,183.400 362.791 C 180.980 360.049,178.550 357.282,178.000 356.641 C 177.450 356.001,176.640 355.097,176.200 354.633 C 175.760 354.168,174.230 352.441,172.800 350.794 C 171.371 349.147,170.107 347.710,169.993 347.600 C 169.809 347.424,162.726 339.370,160.006 336.244 C 159.453 335.609,158.819 334.889,158.598 334.644 C 158.377 334.400,156.847 332.674,155.198 330.810 C 153.549 328.945,152.020 327.218,151.800 326.971 C 151.580 326.724,150.320 325.282,149.000 323.765 C 147.680 322.248,145.865 320.196,144.966 319.204 C 144.067 318.212,142.807 316.789,142.166 316.041 C 141.525 315.294,140.265 313.854,139.367 312.841 C 138.469 311.829,136.065 309.110,134.024 306.800 C 131.984 304.490,129.209 301.363,127.857 299.850 C 126.506 298.338,125.310 296.964,125.200 296.798 C 125.090 296.631,123.810 295.169,122.355 293.547 C 120.901 291.926,117.580 288.170,114.975 285.200 C 112.371 282.230,109.958 279.530,109.612 279.200 C 109.267 278.870,108.470 277.970,107.842 277.200 C 106.536 275.600,102.656 271.156,99.988 268.204 C 98.991 267.102,97.478 265.390,96.626 264.400 C 95.773 263.410,93.823 261.210,92.291 259.510 C 88.518 255.325,79.712 244.108,78.936 242.500 C 78.591 241.785,78.149 241.200,77.954 241.200 C 77.759 241.200,77.600 241.012,77.600 240.782 C 77.600 240.552,76.706 239.038,75.613 237.419 C 73.321 234.023,72.645 232.829,69.147 226.000 C 66.738 221.298,66.217 220.179,64.578 216.200 C 64.215 215.320,63.522 213.700,63.036 212.600 C 62.551 211.500,61.741 209.250,61.236 207.600 C 60.731 205.950,60.156 204.287,59.959 203.905 C 59.762 203.523,59.600 202.859,59.600 202.429 C 59.600 201.999,59.441 201.549,59.246 201.429 C 59.051 201.308,58.793 200.713,58.671 200.105 C 58.549 199.497,58.266 198.280,58.043 197.400 C 57.043 193.463,56.516 191.204,55.592 186.900 C 55.368 185.855,55.031 183.688,54.844 182.085 C 54.404 178.320,53.805 177.718,54.162 181.400 M345.432 180.500 C 345.319 181.215,345.142 182.520,345.039 183.400 C 344.936 184.280,344.660 185.855,344.426 186.900 C 343.756 189.886,343.231 192.257,342.830 194.100 C 342.627 195.035,342.279 196.430,342.057 197.200 C 341.835 197.970,341.537 199.050,341.394 199.600 C 341.250 200.150,340.989 200.960,340.812 201.400 C 340.636 201.840,340.273 203.010,340.007 204.000 C 339.740 204.990,339.360 206.113,339.161 206.495 C 338.962 206.877,338.800 207.522,338.800 207.928 C 338.800 208.334,338.677 208.790,338.526 208.941 C 338.375 209.092,338.036 209.797,337.772 210.507 C 336.331 214.392,333.401 221.262,332.321 223.288 C 331.639 224.568,331.186 225.719,331.314 225.848 C 331.578 226.111,333.598 222.249,334.827 219.132 C 335.275 217.995,335.983 216.315,336.400 215.400 C 338.152 211.554,338.872 209.534,341.179 202.000 C 341.886 199.690,342.611 197.350,342.790 196.800 C 342.969 196.250,343.325 194.720,343.581 193.400 C 343.837 192.080,344.382 189.560,344.793 187.800 C 345.595 184.360,346.239 179.200,345.865 179.200 C 345.739 179.200,345.544 179.785,345.432 180.500 M255.833 183.622 C 255.191 184.476,253.526 186.012,252.133 187.034 C 248.890 189.415,248.826 189.794,252.049 187.533 C 254.292 185.960,257.529 182.595,257.157 182.224 C 257.070 182.139,256.475 182.767,255.833 183.622 M244.600 191.459 C 242.180 192.666,240.650 193.527,241.200 193.374 C 242.436 193.028,249.200 189.665,249.200 189.396 C 249.200 189.143,249.638 188.947,244.600 191.459 M234.804 195.118 C 233.816 195.458,233.206 195.802,233.449 195.883 C 233.691 195.964,234.770 195.673,235.845 195.237 C 238.138 194.307,237.407 194.223,234.804 195.118 M230.200 196.400 C 229.181 196.838,230.232 196.838,231.600 196.400 C 232.404 196.143,232.443 196.077,231.800 196.068 C 231.360 196.062,230.640 196.211,230.200 196.400 M174.976 197.005 C 175.404 197.332,175.989 197.600,176.276 197.600 C 177.168 197.600,176.857 197.297,175.500 196.845 C 174.311 196.448,174.266 196.462,174.976 197.005 M226.800 197.200 C 226.036 197.694,226.858 197.694,228.400 197.200 L 229.400 196.880 228.400 196.846 C 227.850 196.827,227.130 196.987,226.800 197.200 M179.000 198.000 C 179.660 198.168,180.740 198.305,181.400 198.305 L 182.600 198.305 181.400 198.000 C 180.740 197.832,179.660 197.695,179.000 197.695 L 177.800 197.695 179.000 198.000 M222.600 198.000 L 221.400 198.305 222.600 198.305 C 223.260 198.305,224.340 198.168,225.000 198.000 L 226.200 197.695 225.000 197.695 C 224.340 197.695,223.260 197.832,222.600 198.000 M184.200 198.800 C 184.860 198.968,185.850 199.109,186.400 199.113 L 187.400 199.120 186.400 198.800 C 185.850 198.624,184.860 198.483,184.200 198.487 L 183.000 198.495 184.200 198.800 M216.800 198.800 C 215.401 199.248,217.639 199.248,219.400 198.800 L 220.600 198.495 219.200 198.487 C 218.430 198.483,217.350 198.624,216.800 198.800 M191.600 199.622 C 193.470 199.786,196.440 199.909,198.200 199.896 L 201.400 199.871 198.400 199.588 C 196.750 199.432,193.780 199.309,191.800 199.314 L 188.200 199.324 191.600 199.622 M205.600 199.600 L 203.000 199.862 206.200 199.881 C 207.960 199.892,210.660 199.771,212.200 199.613 L 215.000 199.326 211.600 199.332 C 209.730 199.335,207.030 199.456,205.600 199.600 M329.224 229.310 C 328.467 230.900,326.982 233.497,325.924 235.082 C 324.866 236.667,324.000 238.152,324.000 238.382 C 324.000 238.612,323.853 238.800,323.674 238.800 C 323.495 238.800,323.056 239.412,322.699 240.161 C 322.036 241.551,311.940 255.139,310.094 257.125 C 309.816 257.424,309.097 258.329,308.496 259.135 C 307.896 259.941,307.297 260.690,307.165 260.800 C 307.034 260.910,306.309 261.810,305.555 262.800 C 304.293 264.458,303.209 265.845,297.904 272.590 C 296.861 273.915,295.561 275.540,295.015 276.200 C 294.257 277.116,283.212 291.057,280.274 294.805 C 280.013 295.138,279.350 295.961,278.800 296.634 C 278.250 297.307,277.350 298.453,276.800 299.182 C 276.250 299.911,275.530 300.819,275.200 301.200 C 274.870 301.581,274.150 302.485,273.600 303.209 C 273.050 303.933,270.650 306.961,268.267 309.939 C 260.527 319.608,259.761 321.657,262.633 324.999 C 263.839 326.403,263.899 325.943,262.725 324.294 C 260.483 321.146,261.052 319.832,268.919 309.999 C 269.184 309.668,270.030 308.589,270.800 307.600 C 271.570 306.611,272.417 305.532,272.682 305.201 C 273.342 304.377,281.824 293.684,288.547 285.200 C 291.598 281.350,294.595 277.570,295.207 276.800 C 297.007 274.536,301.598 268.712,302.743 267.242 C 303.324 266.495,305.969 263.165,308.621 259.842 C 315.433 251.305,322.229 242.292,323.034 240.729 C 323.410 239.998,324.563 238.140,325.595 236.600 C 327.313 234.038,331.200 227.111,331.200 226.611 C 331.200 225.756,330.388 226.865,329.224 229.310 " stroke="none" fill="#36869c" fill-rule="evenodd"></path></g></svg>